<?xml version="1.0" encoding="UTF-8"?>
<svg xmlns="http://www.w3.org/2000/svg" xmlns:xlink="http://www.w3.org/1999/xlink" width="428.518pt" height="106.146pt" viewBox="0 0 428.518 106.146" version="1.1">
<defs>
<g>
<symbol overflow="visible" id="glyph0-0">
<path style="stroke:none;" d=""/>
</symbol>
<symbol overflow="visible" id="glyph0-1">
<path style="stroke:none;" d="M 7.296875 -3.40625 C 7.296875 -4.203125 7.171875 -5.15625 6.609375 -5.875 C 5.859375 -6.796875 4.671875 -6.921875 4.015625 -6.921875 L 1.390625 -6.921875 C 1.03125 -6.921875 0.90625 -6.8125 0.90625 -6.4375 L 0.90625 -0.484375 C 0.90625 -0.125 1.015625 0 1.390625 0 L 4.015625 0 C 6.453125 0 7.296875 -1.453125 7.296875 -3.40625 Z M 5.859375 -3.40625 C 5.859375 -2.28125 5.75 -0.859375 3.625 -0.859375 L 2.34375 -0.859375 L 2.34375 -6.0625 L 3.625 -6.0625 C 5.765625 -6.0625 5.859375 -4.53125 5.859375 -3.40625 Z M 5.859375 -3.40625 "/>
</symbol>
<symbol overflow="visible" id="glyph0-2">
<path style="stroke:none;" d="M 4.78125 -2.59375 C 4.78125 -3.875 4.171875 -4.734375 2.6875 -4.734375 C 1.09375 -4.734375 0.3125 -3.84375 0.3125 -2.328125 C 0.3125 -0.6875 1.25 0.109375 2.828125 0.109375 C 3.203125 0.109375 3.765625 0.0625 4.421875 -0.265625 C 4.640625 -0.375 4.71875 -0.40625 4.71875 -0.53125 C 4.71875 -0.59375 4.6875 -0.890625 4.671875 -0.96875 C 4.640625 -1.28125 4.625 -1.28125 4.53125 -1.28125 C 4.5 -1.28125 4.46875 -1.28125 4.359375 -1.1875 C 3.78125 -0.671875 3.1875 -0.609375 2.859375 -0.609375 C 1.734375 -0.609375 1.609375 -1.5 1.578125 -2.140625 L 4.296875 -2.140625 C 4.53125 -2.140625 4.78125 -2.140625 4.78125 -2.59375 Z M 3.671875 -2.65625 L 1.59375 -2.65625 C 1.625 -3.265625 1.828125 -4.015625 2.6875 -4.015625 C 3.484375 -4.015625 3.640625 -3.4375 3.671875 -2.65625 Z M 3.671875 -2.65625 "/>
</symbol>
<symbol overflow="visible" id="glyph0-3">
<path style="stroke:none;" d="M 3.953125 -1.40625 C 3.953125 -1.96875 3.65625 -2.3125 3.46875 -2.46875 C 3.078125 -2.828125 2.71875 -2.890625 2.296875 -2.96875 C 1.75 -3.078125 1.359375 -3.15625 1.359375 -3.53125 C 1.359375 -3.953125 1.6875 -4.03125 2.078125 -4.03125 C 2.734375 -4.03125 3.09375 -3.78125 3.359375 -3.5625 C 3.453125 -3.453125 3.484375 -3.453125 3.515625 -3.453125 C 3.625 -3.453125 3.640625 -3.546875 3.65625 -3.59375 C 3.671875 -3.671875 3.765625 -4.234375 3.765625 -4.28125 C 3.765625 -4.4375 3.234375 -4.578125 3.125 -4.609375 C 2.734375 -4.71875 2.40625 -4.734375 2.15625 -4.734375 C 1.703125 -4.734375 0.375 -4.734375 0.375 -3.3125 C 0.375 -2.828125 0.59375 -2.515625 0.859375 -2.28125 C 1.203125 -1.96875 1.59375 -1.890625 2.15625 -1.78125 C 2.453125 -1.734375 2.953125 -1.640625 2.953125 -1.203125 C 2.953125 -0.734375 2.578125 -0.671875 2.1875 -0.671875 C 1.75 -0.671875 1.1875 -0.796875 0.71875 -1.359375 C 0.671875 -1.40625 0.640625 -1.4375 0.578125 -1.4375 C 0.484375 -1.4375 0.453125 -1.34375 0.453125 -1.28125 C 0.421875 -1.140625 0.3125 -0.578125 0.3125 -0.484375 C 0.3125 -0.296875 1.0625 -0.0625 1.0625 -0.0625 C 1.609375 0.109375 2.015625 0.109375 2.1875 0.109375 C 2.6875 0.109375 3.953125 0.0625 3.953125 -1.40625 Z M 3.953125 -1.40625 "/>
</symbol>
<symbol overflow="visible" id="glyph0-4">
<path style="stroke:none;" d="M 4.5625 -0.5 C 4.5625 -0.609375 4.515625 -1.0625 4.5 -1.203125 C 4.5 -1.21875 4.46875 -1.328125 4.375 -1.328125 C 4.34375 -1.328125 4.3125 -1.328125 4.21875 -1.21875 C 4.046875 -1.078125 3.578125 -0.671875 2.765625 -0.671875 C 1.71875 -0.671875 1.71875 -1.671875 1.71875 -2.3125 C 1.71875 -3.125 1.78125 -3.953125 2.796875 -3.953125 C 3.4375 -3.953125 3.703125 -3.796875 4.0625 -3.5 C 4.1875 -3.390625 4.203125 -3.390625 4.25 -3.390625 C 4.34375 -3.390625 4.359375 -3.484375 4.375 -3.515625 C 4.390625 -3.59375 4.5 -4.15625 4.5 -4.203125 C 4.5 -4.296875 4.421875 -4.34375 4.25 -4.421875 C 3.78125 -4.640625 3.484375 -4.734375 2.78125 -4.734375 C 1.296875 -4.734375 0.375 -4.03125 0.375 -2.296875 C 0.375 -0.640625 1.21875 0.109375 2.734375 0.109375 C 3 0.109375 3.59375 0.09375 4.265625 -0.234375 C 4.546875 -0.390625 4.5625 -0.40625 4.5625 -0.5 Z M 4.5625 -0.5 "/>
</symbol>
<symbol overflow="visible" id="glyph0-5">
<path style="stroke:none;" d="M 3.546875 -3.9375 L 3.546875 -4.40625 C 3.546875 -4.609375 3.546875 -4.671875 3.375 -4.671875 C 3.09375 -4.671875 2.359375 -4.578125 1.890625 -3.5 L 1.890625 -4.140625 C 1.890625 -4.46875 1.8125 -4.625 1.40625 -4.625 L 1.09375 -4.625 C 0.734375 -4.625 0.609375 -4.515625 0.609375 -4.140625 L 0.609375 -0.484375 C 0.609375 -0.125 0.71875 0 1.09375 0 L 1.453125 0 C 1.828125 0 1.9375 -0.125 1.9375 -0.484375 L 1.9375 -2.296875 C 1.9375 -3.234375 2.71875 -3.625 3.34375 -3.671875 C 3.53125 -3.671875 3.546875 -3.671875 3.546875 -3.9375 Z M 3.546875 -3.9375 "/>
</symbol>
<symbol overflow="visible" id="glyph0-6">
<path style="stroke:none;" d="M 1.9375 -0.484375 L 1.9375 -4.09375 C 1.9375 -4.40625 1.859375 -4.5625 1.453125 -4.5625 L 1.09375 -4.5625 C 0.734375 -4.5625 0.609375 -4.453125 0.609375 -4.09375 L 0.609375 -0.484375 C 0.609375 -0.125 0.71875 0 1.09375 0 L 1.453125 0 C 1.828125 0 1.9375 -0.125 1.9375 -0.484375 Z M 2 -6.046875 L 2 -6.234375 C 2 -6.546875 1.9375 -6.703125 1.53125 -6.703125 L 1.015625 -6.703125 C 0.640625 -6.703125 0.53125 -6.578125 0.53125 -6.234375 L 0.53125 -6.046875 C 0.53125 -5.75 0.59375 -5.5625 1.015625 -5.5625 L 1.53125 -5.5625 C 1.9375 -5.5625 2 -5.734375 2 -6.046875 Z M 2 -6.046875 "/>
</symbol>
<symbol overflow="visible" id="glyph0-7">
<path style="stroke:none;" d="M 4.5625 -0.5 C 4.5625 -0.609375 4.515625 -1.0625 4.5 -1.203125 C 4.5 -1.21875 4.46875 -1.328125 4.375 -1.328125 C 4.34375 -1.328125 4.3125 -1.328125 4.21875 -1.21875 C 4.046875 -1.078125 3.578125 -0.671875 2.765625 -0.671875 C 1.71875 -0.671875 1.71875 -1.671875 1.71875 -2.3125 C 1.71875 -3.125 1.78125 -3.953125 2.796875 -3.953125 C 3.4375 -3.953125 3.703125 -3.796875 4.0625 -3.5 C 4.1875 -3.390625 4.203125 -3.390625 4.25 -3.390625 C 4.34375 -3.390625 4.359375 -3.484375 4.375 -3.515625 C 4.390625 -3.59375 4.5 -4.15625 4.5 -4.203125 C 4.5 -4.296875 4.421875 -4.34375 4.25 -4.421875 C 3.78125 -4.640625 3.484375 -4.734375 2.78125 -4.734375 C 1.296875 -4.734375 0.375 -4.03125 0.375 -2.296875 C 0.375 -0.640625 1.21875 0.109375 2.734375 0.109375 C 3 0.109375 3.59375 0.09375 4.265625 -0.234375 C 4.546875 -0.390625 4.5625 -0.40625 4.5625 -0.5 Z M 3.3125 0.59375 C 3.3125 0.453125 3.203125 0.453125 3.046875 0.453125 L 2.875 0.453125 C 2.65625 0.453125 2.65625 0.46875 2.515625 0.671875 C 2.40625 0.84375 1.6875 1.9375 1.6875 2 C 1.6875 2.140625 1.78125 2.140625 1.9375 2.140625 L 2.4375 2.140625 C 2.65625 2.140625 2.671875 2.140625 2.75 1.953125 L 3.265625 0.75 C 3.3125 0.625 3.3125 0.59375 3.3125 0.59375 Z M 3.3125 0.59375 "/>
</symbol>
<symbol overflow="visible" id="glyph0-8">
<path style="stroke:none;" d="M 4.71875 -0.484375 L 4.71875 -3.15625 C 4.71875 -4.71875 3.203125 -4.734375 2.71875 -4.734375 C 2.25 -4.734375 1.75 -4.6875 1.078125 -4.421875 C 0.875 -4.328125 0.8125 -4.296875 0.8125 -4.1875 C 0.8125 -4.109375 0.875 -3.53125 0.890625 -3.453125 C 0.890625 -3.40625 0.953125 -3.34375 1.015625 -3.34375 C 1.0625 -3.34375 1.09375 -3.375 1.125 -3.40625 C 1.5625 -3.859375 2.046875 -4.078125 2.671875 -4.078125 C 3.203125 -4.078125 3.375 -3.75 3.375 -3.15625 L 3.375 -2.8125 C 3.015625 -2.8125 0.40625 -2.796875 0.40625 -1.328125 C 0.40625 -0.625 0.96875 0.109375 1.84375 0.109375 C 2.1875 0.109375 2.9375 0.015625 3.40625 -0.671875 L 3.40625 -0.484375 C 3.40625 -0.15625 3.46875 0 3.875 0 L 4.25 0 C 4.625 0 4.71875 -0.125 4.71875 -0.484375 Z M 3.375 -1.53125 C 3.375 -0.609375 2.421875 -0.609375 2.390625 -0.609375 C 1.96875 -0.609375 1.703125 -0.96875 1.703125 -1.34375 C 1.703125 -2.328125 3.09375 -2.390625 3.375 -2.40625 Z M 4.453125 -6.625 C 4.453125 -6.78125 4.375 -6.78125 4.171875 -6.78125 L 4 -6.78125 C 3.796875 -6.78125 3.75 -6.78125 3.734375 -6.640625 C 3.6875 -6.25 3.453125 -6.203125 3.34375 -6.203125 C 3.1875 -6.203125 3.03125 -6.3125 2.875 -6.421875 C 2.65625 -6.5625 2.359375 -6.78125 1.90625 -6.78125 C 1.203125 -6.78125 0.8125 -6.140625 0.8125 -5.65625 C 0.8125 -5.484375 0.890625 -5.484375 1.078125 -5.484375 L 1.25 -5.484375 C 1.453125 -5.484375 1.5 -5.484375 1.53125 -5.625 C 1.5625 -6.015625 1.796875 -6.078125 1.90625 -6.078125 C 2.0625 -6.078125 2.21875 -5.96875 2.375 -5.859375 C 2.59375 -5.703125 2.90625 -5.484375 3.34375 -5.484375 C 4.0625 -5.484375 4.453125 -6.125 4.453125 -6.625 Z M 4.453125 -6.625 "/>
</symbol>
<symbol overflow="visible" id="glyph0-9">
<path style="stroke:none;" d="M 5.15625 -2.25 C 5.15625 -3.875 4.359375 -4.734375 2.734375 -4.734375 C 1.078125 -4.734375 0.3125 -3.84375 0.3125 -2.25 C 0.3125 -0.625 1.171875 0.109375 2.734375 0.109375 C 4.296875 0.109375 5.15625 -0.609375 5.15625 -2.25 Z M 3.8125 -2.359375 C 3.8125 -1.578125 3.8125 -0.671875 2.734375 -0.671875 C 1.671875 -0.671875 1.671875 -1.5625 1.671875 -2.359375 C 1.671875 -3.125 1.671875 -4.015625 2.734375 -4.015625 C 3.8125 -4.015625 3.8125 -3.140625 3.8125 -2.359375 Z M 3.8125 -2.359375 "/>
</symbol>
<symbol overflow="visible" id="glyph0-10">
<path style="stroke:none;" d="M 6.515625 -0.296875 L 4.8125 -3.1875 C 5.4375 -3.34375 6.390625 -3.71875 6.390625 -4.953125 C 6.390625 -6.921875 4.234375 -6.921875 3.78125 -6.921875 L 1.390625 -6.921875 C 1.03125 -6.921875 0.90625 -6.8125 0.90625 -6.4375 L 0.90625 -0.484375 C 0.90625 -0.125 1.015625 0 1.390625 0 L 1.859375 0 C 2.25 0 2.34375 -0.125 2.34375 -0.484375 L 2.34375 -3.09375 L 3.453125 -3.09375 L 5.078125 -0.234375 C 5.21875 0 5.328125 0 5.546875 0 L 6.140625 0 C 6.34375 0 6.515625 0 6.515625 -0.296875 Z M 5 -4.9375 C 5 -4.359375 4.859375 -3.8125 3.640625 -3.8125 L 2.34375 -3.8125 L 2.34375 -6.0625 L 3.640625 -6.0625 C 4.796875 -6.0625 5 -5.609375 5 -4.9375 Z M 5 -4.9375 "/>
</symbol>
<symbol overflow="visible" id="glyph0-11">
<path style="stroke:none;" d="M 4.96875 1.453125 L 4.96875 -4.203125 C 4.96875 -4.515625 4.90625 -4.671875 4.5 -4.671875 L 4.125 -4.671875 C 3.75 -4.671875 3.65625 -4.546875 3.65625 -4.203125 L 3.65625 -4 C 3.203125 -4.671875 2.625 -4.671875 2.453125 -4.671875 C 0.53125 -4.671875 0.375 -3.078125 0.375 -2.265625 C 0.375 -1.5 0.53125 0.109375 2.375 0.109375 C 2.90625 0.109375 3.28125 -0.09375 3.625 -0.484375 L 3.625 1.453125 C 3.625 1.78125 3.6875 1.9375 4.09375 1.9375 L 4.5 1.9375 C 4.875 1.9375 4.96875 1.796875 4.96875 1.453125 Z M 3.65625 -1.140625 C 3.46875 -0.890625 3.203125 -0.609375 2.734375 -0.609375 C 1.71875 -0.609375 1.71875 -1.875 1.71875 -2.265625 C 1.71875 -2.65625 1.71875 -3.890625 2.84375 -3.890625 C 3 -3.890625 3.203125 -3.859375 3.390625 -3.671875 C 3.65625 -3.421875 3.65625 -3.234375 3.65625 -3.125 Z M 3.65625 -1.140625 "/>
</symbol>
<symbol overflow="visible" id="glyph0-12">
<path style="stroke:none;" d="M 4.984375 -0.484375 L 4.984375 -4.09375 C 4.984375 -4.40625 4.921875 -4.5625 4.5 -4.5625 L 4.109375 -4.5625 C 3.734375 -4.5625 3.625 -4.4375 3.625 -4.09375 L 3.625 -1.71875 C 3.625 -1.0625 3.28125 -0.5 2.578125 -0.5 C 2.015625 -0.5 1.953125 -0.640625 1.953125 -1.171875 L 1.953125 -4.09375 C 1.953125 -4.40625 1.890625 -4.5625 1.46875 -4.5625 L 1.078125 -4.5625 C 0.71875 -4.5625 0.59375 -4.453125 0.59375 -4.09375 L 0.59375 -1.25 C 0.59375 -0.1875 1.171875 0.109375 2.21875 0.109375 C 2.484375 0.109375 3.1875 0.109375 3.65625 -0.734375 L 3.65625 -0.484375 C 3.65625 -0.15625 3.734375 0 4.140625 0 L 4.5 0 C 4.890625 0 4.984375 -0.125 4.984375 -0.484375 Z M 4.984375 -0.484375 "/>
</symbol>
<symbol overflow="visible" id="glyph0-13">
<path style="stroke:none;" d="M 6.875 -0.265625 C 6.875 -0.3125 6.875 -0.34375 6.828125 -0.46875 L 4.71875 -6.484375 C 4.578125 -6.921875 4.28125 -6.921875 4.09375 -6.921875 L 3.203125 -6.921875 C 3.015625 -6.921875 2.71875 -6.921875 2.578125 -6.484375 L 0.46875 -0.46875 C 0.421875 -0.34375 0.421875 -0.3125 0.421875 -0.265625 C 0.421875 0 0.671875 0 0.8125 0 L 1.171875 0 C 1.34375 0 1.65625 0 1.796875 -0.40625 L 2.1875 -1.5 L 4.9375 -1.5 L 5.28125 -0.546875 C 5.40625 -0.203125 5.46875 0 5.953125 0 L 6.484375 0 C 6.625 0 6.875 0 6.875 -0.265625 Z M 4.640625 -2.359375 L 2.484375 -2.359375 L 3.203125 -4.46875 C 3.34375 -4.921875 3.484375 -5.296875 3.5625 -5.65625 C 3.625 -5.40625 3.625 -5.390625 3.703125 -5.15625 Z M 4.640625 -2.359375 "/>
</symbol>
<symbol overflow="visible" id="glyph0-14">
<path style="stroke:none;" d="M 5.328125 -4.03125 C 5.328125 -4.078125 5.28125 -4.3125 5.25 -4.421875 C 5.21875 -4.65625 5.21875 -4.671875 5.03125 -4.671875 C 4.71875 -4.671875 4.234375 -4.5625 3.84375 -4.328125 C 3.375 -4.640625 2.859375 -4.671875 2.4375 -4.671875 C 2.015625 -4.671875 0.421875 -4.671875 0.421875 -3.03125 C 0.421875 -2.625 0.53125 -2.140625 0.921875 -1.796875 C 0.640625 -1.4375 0.640625 -1.046875 0.640625 -1 C 0.640625 -0.8125 0.703125 -0.484375 0.921875 -0.203125 C 0.765625 -0.15625 0.25 0.03125 0.25 0.671875 C 0.25 0.984375 0.40625 1.5 1.03125 1.78125 C 1.59375 2.046875 2.265625 2.046875 2.734375 2.046875 C 3.3125 2.046875 5.21875 2.046875 5.21875 0.640625 C 5.21875 -0.921875 3.8125 -0.921875 2.46875 -0.921875 L 2 -0.921875 C 1.640625 -0.921875 1.5 -0.921875 1.359375 -1.03125 C 1.3125 -1.078125 1.140625 -1.21875 1.140625 -1.484375 C 1.140625 -1.5625 1.15625 -1.578125 1.171875 -1.640625 C 1.640625 -1.375 2.21875 -1.375 2.4375 -1.375 C 2.84375 -1.375 4.4375 -1.375 4.4375 -3.015625 C 4.4375 -3.59375 4.21875 -3.953125 4.125 -4.0625 C 4.296875 -4.0625 4.640625 -4.0625 5.046875 -3.953125 C 5.09375 -3.921875 5.15625 -3.90625 5.1875 -3.90625 C 5.28125 -3.90625 5.328125 -3.96875 5.328125 -4.03125 Z M 3.15625 -3.03125 C 3.15625 -2.484375 3.125 -2.09375 2.4375 -2.09375 C 1.734375 -2.09375 1.703125 -2.46875 1.703125 -3.015625 C 1.703125 -3.5625 1.734375 -3.953125 2.4375 -3.953125 C 3.125 -3.953125 3.15625 -3.578125 3.15625 -3.03125 Z M 4.203125 0.671875 C 4.203125 1.328125 3.0625 1.328125 2.734375 1.328125 C 2.34375 1.328125 1.28125 1.328125 1.28125 0.640625 C 1.28125 0.171875 1.578125 0.171875 1.8125 0.171875 L 2.96875 0.171875 C 3.78125 0.171875 4.203125 0.3125 4.203125 0.671875 Z M 4.203125 0.671875 "/>
</symbol>
<symbol overflow="visible" id="glyph0-15">
<path style="stroke:none;" d="M 4.71875 -0.484375 L 4.71875 -3.15625 C 4.71875 -4.71875 3.203125 -4.734375 2.71875 -4.734375 C 2.25 -4.734375 1.75 -4.6875 1.078125 -4.421875 C 0.875 -4.328125 0.8125 -4.296875 0.8125 -4.1875 C 0.8125 -4.109375 0.875 -3.53125 0.890625 -3.453125 C 0.890625 -3.40625 0.953125 -3.34375 1.015625 -3.34375 C 1.0625 -3.34375 1.09375 -3.375 1.125 -3.40625 C 1.5625 -3.859375 2.046875 -4.078125 2.671875 -4.078125 C 3.203125 -4.078125 3.375 -3.75 3.375 -3.15625 L 3.375 -2.8125 C 3.015625 -2.8125 0.40625 -2.796875 0.40625 -1.328125 C 0.40625 -0.625 0.96875 0.109375 1.84375 0.109375 C 2.1875 0.109375 2.9375 0.015625 3.40625 -0.671875 L 3.40625 -0.484375 C 3.40625 -0.15625 3.46875 0 3.875 0 L 4.25 0 C 4.625 0 4.71875 -0.125 4.71875 -0.484375 Z M 3.375 -1.53125 C 3.375 -0.609375 2.421875 -0.609375 2.390625 -0.609375 C 1.96875 -0.609375 1.703125 -0.96875 1.703125 -1.34375 C 1.703125 -2.328125 3.09375 -2.390625 3.375 -2.40625 Z M 3.375 -1.53125 "/>
</symbol>
<symbol overflow="visible" id="glyph0-16">
<path style="stroke:none;" d="M 5.21875 -2.296875 C 5.21875 -2.796875 5.21875 -4.671875 3.40625 -4.671875 C 2.828125 -4.671875 2.296875 -4.4375 1.9375 -4.09375 C 1.9375 -4.46875 1.796875 -4.5625 1.453125 -4.5625 L 1.09375 -4.5625 C 0.734375 -4.5625 0.609375 -4.453125 0.609375 -4.09375 L 0.609375 1.453125 C 0.609375 1.8125 0.71875 1.9375 1.09375 1.9375 L 1.484375 1.9375 C 1.859375 1.9375 1.96875 1.796875 1.96875 1.453125 L 1.96875 -0.390625 C 2.40625 0.109375 2.953125 0.109375 3.09375 0.109375 C 5.21875 0.109375 5.21875 -1.796875 5.21875 -2.296875 Z M 3.859375 -2.28125 C 3.859375 -1.890625 3.859375 -0.609375 2.734375 -0.609375 C 2.5 -0.609375 2.328125 -0.6875 2.203125 -0.78125 C 1.96875 -0.953125 1.96875 -1 1.96875 -1.171875 L 1.96875 -3.5625 C 2.078125 -3.671875 2.40625 -3.890625 2.828125 -3.890625 C 3.84375 -3.890625 3.859375 -2.71875 3.859375 -2.28125 Z M 3.859375 -2.28125 "/>
</symbol>
<symbol overflow="visible" id="glyph0-17">
<path style="stroke:none;" d="M 4.96875 -0.484375 L 4.96875 -6.4375 C 4.96875 -6.765625 4.90625 -6.921875 4.5 -6.921875 L 4.125 -6.921875 C 3.75 -6.921875 3.65625 -6.78125 3.65625 -6.4375 L 3.65625 -4.171875 C 3.203125 -4.609375 2.703125 -4.671875 2.390625 -4.671875 C 0.375 -4.671875 0.375 -2.765625 0.375 -2.265625 C 0.375 -1.8125 0.375 0.109375 2.34375 0.109375 C 2.765625 0.109375 3.1875 -0.015625 3.625 -0.46875 C 3.625 -0.09375 3.765625 0 4.09375 0 L 4.5 0 C 4.875 0 4.96875 -0.125 4.96875 -0.484375 Z M 3.625 -1.25 C 3.625 -1.078125 3.625 -0.984375 3.328125 -0.78125 C 3.078125 -0.625 2.84375 -0.609375 2.734375 -0.609375 C 1.71875 -0.609375 1.71875 -1.53125 1.71875 -2.265625 C 1.71875 -3.015625 1.71875 -3.953125 2.84375 -3.953125 C 3.125 -3.953125 3.40625 -3.859375 3.625 -3.65625 Z M 3.625 -1.25 "/>
</symbol>
<symbol overflow="visible" id="glyph0-18">
<path style="stroke:none;" d="M 8.03125 -0.484375 L 8.03125 -3.234375 C 8.03125 -4.265625 7.59375 -4.671875 6.578125 -4.671875 C 5.875 -4.671875 5.328125 -4.34375 4.96875 -3.6875 C 4.8125 -4.640625 3.953125 -4.671875 3.53125 -4.671875 C 3.34375 -4.671875 2.9375 -4.671875 2.484375 -4.34375 C 2.171875 -4.109375 1.96875 -3.796875 1.90625 -3.65625 L 1.890625 -3.65625 L 1.890625 -4.140625 C 1.890625 -4.46875 1.828125 -4.625 1.421875 -4.625 L 1.078125 -4.625 C 0.71875 -4.625 0.59375 -4.515625 0.59375 -4.140625 L 0.59375 -0.484375 C 0.59375 -0.125 0.703125 0 1.078125 0 L 1.46875 0 C 1.859375 0 1.953125 -0.125 1.953125 -0.484375 L 1.953125 -2.6875 C 1.953125 -3.578125 2.5625 -3.953125 3.046875 -3.953125 C 3.53125 -3.953125 3.640625 -3.75 3.640625 -3.21875 L 3.640625 -0.484375 C 3.640625 -0.125 3.75 0 4.109375 0 L 4.515625 0 C 4.890625 0 5 -0.125 5 -0.484375 L 5 -2.6875 C 5 -3.578125 5.609375 -3.953125 6.09375 -3.953125 C 6.5625 -3.953125 6.671875 -3.75 6.671875 -3.21875 L 6.671875 -0.484375 C 6.671875 -0.125 6.78125 0 7.15625 0 L 7.5625 0 C 7.9375 0 8.03125 -0.125 8.03125 -0.484375 Z M 8.03125 -0.484375 "/>
</symbol>
<symbol overflow="visible" id="glyph0-19">
<path style="stroke:none;" d="M 4.984375 -0.484375 L 4.984375 -3.234375 C 4.984375 -4.265625 4.546875 -4.671875 3.53125 -4.671875 C 2.484375 -4.671875 2.03125 -3.921875 1.90625 -3.65625 L 1.890625 -3.65625 L 1.890625 -4.140625 C 1.890625 -4.46875 1.828125 -4.625 1.421875 -4.625 L 1.078125 -4.625 C 0.71875 -4.625 0.59375 -4.515625 0.59375 -4.140625 L 0.59375 -0.484375 C 0.59375 -0.125 0.703125 0 1.078125 0 L 1.46875 0 C 1.859375 0 1.953125 -0.125 1.953125 -0.484375 L 1.953125 -2.6875 C 1.953125 -3.546875 2.53125 -3.953125 3.046875 -3.953125 C 3.53125 -3.953125 3.625 -3.734375 3.625 -3.21875 L 3.625 -0.484375 C 3.625 -0.15625 3.703125 0 4.109375 0 L 4.5 0 C 4.890625 0 4.984375 -0.125 4.984375 -0.484375 Z M 4.984375 -0.484375 "/>
</symbol>
<symbol overflow="visible" id="glyph0-20">
<path style="stroke:none;" d="M 3.71875 -0.46875 C 3.71875 -0.5 3.703125 -0.5625 3.640625 -0.78125 C 3.59375 -0.984375 3.5625 -1.03125 3.484375 -1.03125 C 3.421875 -1.03125 3.421875 -1.03125 3.359375 -0.96875 C 3.25 -0.890625 2.984375 -0.671875 2.5625 -0.671875 C 2.328125 -0.671875 2.171875 -0.84375 2.171875 -1.5 L 2.171875 -3.84375 L 3.0625 -3.84375 C 3.1875 -3.84375 3.53125 -3.84375 3.53125 -4.203125 C 3.53125 -4.5625 3.1875 -4.5625 3.0625 -4.5625 L 2.171875 -4.5625 L 2.171875 -5.390625 C 2.171875 -5.71875 2.109375 -5.875 1.6875 -5.875 L 1.390625 -5.875 C 1.03125 -5.875 0.90625 -5.765625 0.90625 -5.390625 L 0.90625 -4.5625 L 0.671875 -4.5625 C 0.5625 -4.5625 0.203125 -4.5625 0.203125 -4.203125 C 0.203125 -3.84375 0.5625 -3.84375 0.671875 -3.84375 L 0.875 -3.84375 L 0.875 -1.328125 C 0.875 -0.3125 1.234375 0.109375 1.921875 0.109375 C 2.015625 0.109375 2.453125 0.109375 2.96875 -0.046875 C 3.140625 -0.09375 3.71875 -0.28125 3.71875 -0.46875 Z M 3.71875 -0.46875 "/>
</symbol>
<symbol overflow="visible" id="glyph0-21">
<path style="stroke:none;" d="M 5.234375 -6.046875 L 5.234375 -6.453125 C 5.234375 -6.765625 5.15625 -6.921875 4.75 -6.921875 L 4.359375 -6.921875 C 3.984375 -6.921875 3.875 -6.796875 3.875 -6.453125 L 3.875 -6.046875 C 3.875 -5.734375 3.953125 -5.578125 4.359375 -5.578125 L 4.75 -5.578125 C 5.140625 -5.578125 5.234375 -5.703125 5.234375 -6.046875 Z M 5.21875 -0.484375 L 5.21875 -4.09375 C 5.21875 -4.40625 5.15625 -4.5625 4.75 -4.5625 L 4.375 -4.5625 C 4 -4.5625 3.890625 -4.4375 3.890625 -4.09375 L 3.890625 -0.484375 C 3.890625 -0.15625 3.96875 0 4.375 0 L 4.75 0 C 5.125 0 5.21875 -0.125 5.21875 -0.484375 Z M 3.234375 -4.203125 C 3.234375 -4.5625 2.875 -4.5625 2.75 -4.5625 L 2.15625 -4.5625 L 2.15625 -5.703125 C 2.15625 -5.984375 2.171875 -6.3125 2.484375 -6.3125 C 2.828125 -6.3125 2.921875 -6.09375 2.984375 -5.96875 C 3 -5.9375 3.03125 -5.875 3.09375 -5.875 C 3.234375 -5.875 3.234375 -5.984375 3.234375 -6.140625 L 3.234375 -6.65625 C 3.234375 -6.875 3.234375 -6.890625 2.984375 -6.953125 C 2.734375 -7.03125 2.609375 -7.03125 2.46875 -7.03125 C 1.421875 -7.03125 0.859375 -6.484375 0.859375 -5.390625 L 0.859375 -4.5625 C 0.640625 -4.5625 0.296875 -4.5625 0.296875 -4.203125 C 0.296875 -3.84375 0.640625 -3.84375 0.859375 -3.84375 L 0.859375 -0.484375 C 0.859375 -0.125 0.96875 0 1.328125 0 L 1.703125 0 C 2.078125 0 2.1875 -0.125 2.1875 -0.484375 L 2.1875 -3.84375 L 2.75 -3.84375 C 2.875 -3.84375 3.234375 -3.84375 3.234375 -4.203125 Z M 3.234375 -4.203125 "/>
</symbol>
<symbol overflow="visible" id="glyph1-0">
<path style="stroke:none;" d=""/>
</symbol>
<symbol overflow="visible" id="glyph1-1">
<path style="stroke:none;" d="M 1.796875 -3.59375 L 1.796875 -4.421875 L 0.96875 -4.421875 L 0.96875 -3.59375 Z M 1.796875 0 L 1.796875 -0.828125 L 0.96875 -0.828125 L 0.96875 0 Z M 1.796875 0 "/>
</symbol>
<symbol overflow="visible" id="glyph1-2">
<path style="stroke:none;" d="M 6.15625 0 L 4.171875 -3.25 C 5.203125 -3.546875 5.875 -4.25 5.875 -5.0625 C 5.875 -6.046875 4.78125 -6.921875 3.359375 -6.921875 L 0.953125 -6.921875 L 0.953125 0 L 1.8125 0 L 1.8125 -3.15625 L 3.390625 -3.15625 L 5.265625 0 Z M 5.0625 -5.0625 C 5.0625 -4.359375 4.421875 -3.765625 3.25 -3.765625 L 1.8125 -3.765625 L 1.8125 -6.359375 L 3.25 -6.359375 C 4.40625 -6.359375 5.0625 -5.765625 5.0625 -5.0625 Z M 5.0625 -5.0625 "/>
</symbol>
<symbol overflow="visible" id="glyph1-3">
<path style="stroke:none;" d="M 4.125 -2.1875 C 4.125 -2.515625 4.109375 -3.265625 3.734375 -3.875 C 3.3125 -4.484375 2.71875 -4.59375 2.359375 -4.59375 C 1.25 -4.59375 0.34375 -3.53125 0.34375 -2.25 C 0.34375 -0.9375 1.3125 0.109375 2.5 0.109375 C 3.125 0.109375 3.703125 -0.125 4.09375 -0.40625 L 4.03125 -1.0625 C 3.40625 -0.53125 2.734375 -0.5 2.515625 -0.5 C 1.71875 -0.5 1.078125 -1.203125 1.046875 -2.1875 Z M 3.5625 -2.734375 L 1.09375 -2.734375 C 1.25 -3.484375 1.78125 -3.984375 2.359375 -3.984375 C 2.875 -3.984375 3.421875 -3.65625 3.5625 -2.734375 Z M 3.5625 -2.734375 "/>
</symbol>
<symbol overflow="visible" id="glyph1-4">
<path style="stroke:none;" d="M 4.078125 0 L 4.078125 -2.875 C 4.078125 -3.890625 3.34375 -4.59375 2.4375 -4.59375 C 1.78125 -4.59375 1.328125 -4.4375 0.875 -4.171875 L 0.921875 -3.515625 C 1.453125 -3.875 1.9375 -4 2.4375 -4 C 2.90625 -4 3.296875 -3.609375 3.296875 -2.875 L 3.296875 -2.4375 C 1.796875 -2.421875 0.53125 -2 0.53125 -1.125 C 0.53125 -0.703125 0.8125 0.109375 1.671875 0.109375 C 1.8125 0.109375 2.75 0.09375 3.328125 -0.359375 L 3.328125 0 Z M 3.296875 -1.3125 C 3.296875 -1.125 3.296875 -0.875 2.953125 -0.6875 C 2.671875 -0.515625 2.296875 -0.5 2.1875 -0.5 C 1.703125 -0.5 1.25 -0.734375 1.25 -1.140625 C 1.25 -1.84375 2.875 -1.90625 3.296875 -1.9375 Z M 3.296875 -1.3125 "/>
</symbol>
<symbol overflow="visible" id="glyph1-5">
<path style="stroke:none;" d="M 1.5625 0 L 1.5625 -6.921875 L 0.8125 -6.921875 L 0.8125 0 Z M 1.5625 0 "/>
</symbol>
<symbol overflow="visible" id="glyph1-6">
<path style="stroke:none;" d="M 1.5625 0 L 1.5625 -4.421875 L 0.8125 -4.421875 L 0.8125 0 Z M 1.640625 -5.640625 L 1.640625 -6.53125 L 0.75 -6.53125 L 0.75 -5.640625 Z M 1.640625 -5.640625 "/>
</symbol>
<symbol overflow="visible" id="glyph1-7">
<path style="stroke:none;" d="M 4 0 L 4 -0.625 L 2.546875 -0.625 C 2.421875 -0.625 2.296875 -0.609375 2.1875 -0.609375 L 1.328125 -0.609375 L 3.984375 -4.03125 L 3.984375 -4.421875 L 0.421875 -4.421875 L 0.421875 -3.84375 L 1.796875 -3.84375 C 1.921875 -3.84375 2.046875 -3.84375 2.15625 -3.84375 L 2.9375 -3.84375 L 0.28125 -0.40625 L 0.28125 0 Z M 4 0 "/>
</symbol>
<symbol overflow="visible" id="glyph1-8">
<path style="stroke:none;" d="M 3.3125 -0.265625 L 3.15625 -0.859375 C 2.890625 -0.640625 2.578125 -0.53125 2.25 -0.53125 C 1.890625 -0.53125 1.75 -0.828125 1.75 -1.359375 L 1.75 -3.84375 L 3.15625 -3.84375 L 3.15625 -4.421875 L 1.75 -4.421875 L 1.75 -5.6875 L 1.0625 -5.6875 L 1.0625 -4.421875 L 0.1875 -4.421875 L 0.1875 -3.84375 L 1.03125 -3.84375 L 1.03125 -1.1875 C 1.03125 -0.59375 1.171875 0.109375 1.859375 0.109375 C 2.546875 0.109375 3.0625 -0.140625 3.3125 -0.265625 Z M 3.3125 -0.265625 "/>
</symbol>
<symbol overflow="visible" id="glyph1-9">
<path style="stroke:none;" d="M 3.265625 -3.875 L 3.265625 -4.53125 C 2.375 -4.53125 1.828125 -4.03125 1.515625 -3.578125 L 1.515625 -4.484375 L 0.8125 -4.484375 L 0.8125 0 L 1.5625 0 L 1.5625 -2.140625 C 1.5625 -3.125 2.28125 -3.84375 3.265625 -3.875 Z M 3.265625 -3.875 "/>
</symbol>
<symbol overflow="visible" id="glyph1-10">
<path style="stroke:none;" d="M 4.671875 -2.1875 C 4.671875 -3.53125 3.671875 -4.59375 2.5 -4.59375 C 1.265625 -4.59375 0.296875 -3.5 0.296875 -2.1875 C 0.296875 -0.875 1.3125 0.109375 2.484375 0.109375 C 3.671875 0.109375 4.671875 -0.890625 4.671875 -2.1875 Z M 3.890625 -2.296875 C 3.890625 -1.109375 3.21875 -0.53125 2.484375 -0.53125 C 1.796875 -0.53125 1.078125 -1.09375 1.078125 -2.296875 C 1.078125 -3.5 1.828125 -3.984375 2.484375 -3.984375 C 3.1875 -3.984375 3.890625 -3.46875 3.890625 -2.296875 Z M 3.890625 -2.296875 "/>
</symbol>
<symbol overflow="visible" id="glyph1-11">
<path style="stroke:none;" d="M 4.140625 -0.40625 L 4.078125 -1.0625 C 3.5625 -0.671875 3.03125 -0.53125 2.515625 -0.53125 C 1.6875 -0.53125 1.140625 -1.25 1.140625 -2.21875 C 1.140625 -3 1.5 -3.953125 2.5625 -3.953125 C 3.078125 -3.953125 3.421875 -3.875 3.96875 -3.515625 L 4.09375 -4.171875 C 3.5 -4.5 3.15625 -4.59375 2.546875 -4.59375 C 1.171875 -4.59375 0.359375 -3.390625 0.359375 -2.21875 C 0.359375 -0.984375 1.265625 0.109375 2.515625 0.109375 C 3.046875 0.109375 3.59375 -0.03125 4.140625 -0.40625 Z M 4.140625 -0.40625 "/>
</symbol>
<symbol overflow="visible" id="glyph1-12">
<path style="stroke:none;" d="M 4.328125 0 L 4.328125 -6.921875 L 3.578125 -6.921875 L 3.578125 -3.984375 C 3.046875 -4.421875 2.5 -4.53125 2.125 -4.53125 C 1.140625 -4.53125 0.359375 -3.5 0.359375 -2.21875 C 0.359375 -0.90625 1.125 0.109375 2.078125 0.109375 C 2.40625 0.109375 2.984375 0.015625 3.546875 -0.515625 L 3.546875 0 Z M 3.546875 -1.390625 C 3.546875 -1.25 3.53125 -1.0625 3.21875 -0.78125 C 2.984375 -0.578125 2.734375 -0.5 2.484375 -0.5 C 1.859375 -0.5 1.140625 -0.96875 1.140625 -2.203125 C 1.140625 -3.515625 2 -3.921875 2.578125 -3.921875 C 3.03125 -3.921875 3.328125 -3.703125 3.546875 -3.375 Z M 3.546875 -1.390625 "/>
</symbol>
<symbol overflow="visible" id="glyph1-13">
<path style="stroke:none;" d="M 4.453125 -4.421875 L 3.703125 -4.421875 L 2.90625 -2.359375 C 2.703125 -1.796875 2.390625 -1 2.3125 -0.53125 L 2.296875 -0.53125 C 2.25 -0.890625 1.984375 -1.578125 1.890625 -1.84375 L 0.921875 -4.421875 L 0.140625 -4.421875 L 1.859375 0 L 2.734375 0 Z M 4.453125 -4.421875 "/>
</symbol>
<symbol overflow="visible" id="glyph1-14">
<path style="stroke:none;" d="M 3.59375 -1.28125 C 3.59375 -1.828125 3.21875 -2.15625 3.203125 -2.1875 C 2.8125 -2.546875 2.546875 -2.609375 2.046875 -2.6875 C 1.5 -2.796875 1.03125 -2.90625 1.03125 -3.390625 C 1.03125 -4 1.75 -4 1.890625 -4 C 2.203125 -4 2.734375 -3.96875 3.296875 -3.625 L 3.421875 -4.28125 C 2.90625 -4.515625 2.5 -4.59375 1.984375 -4.59375 C 1.734375 -4.59375 0.328125 -4.59375 0.328125 -3.296875 C 0.328125 -2.796875 0.625 -2.484375 0.875 -2.296875 C 1.171875 -2.078125 1.390625 -2.03125 1.9375 -1.921875 C 2.296875 -1.859375 2.875 -1.734375 2.875 -1.203125 C 2.875 -0.515625 2.09375 -0.515625 1.9375 -0.515625 C 1.140625 -0.515625 0.578125 -0.890625 0.40625 -1 L 0.28125 -0.328125 C 0.59375 -0.171875 1.140625 0.109375 1.953125 0.109375 C 2.140625 0.109375 2.6875 0.109375 3.109375 -0.203125 C 3.421875 -0.453125 3.59375 -0.84375 3.59375 -1.28125 Z M 3.59375 -1.28125 "/>
</symbol>
<symbol overflow="visible" id="glyph1-15">
<path style="stroke:none;" d="M 4.34375 0 L 4.34375 -2.96875 C 4.34375 -3.625 4.1875 -4.53125 2.96875 -4.53125 C 2.078125 -4.53125 1.578125 -3.859375 1.53125 -3.78125 L 1.53125 -4.484375 L 0.8125 -4.484375 L 0.8125 0 L 1.578125 0 L 1.578125 -2.4375 C 1.578125 -3.09375 1.828125 -3.921875 2.59375 -3.921875 C 3.546875 -3.921875 3.5625 -3.21875 3.5625 -2.90625 L 3.5625 0 Z M 4.34375 0 "/>
</symbol>
<symbol overflow="visible" id="glyph1-16">
<path style="stroke:none;" d="M 4.34375 0 L 4.34375 -4.421875 L 3.5625 -4.421875 L 3.5625 -1.53125 C 3.5625 -0.78125 3 -0.4375 2.359375 -0.4375 C 1.65625 -0.4375 1.578125 -0.703125 1.578125 -1.125 L 1.578125 -4.421875 L 0.8125 -4.421875 L 0.8125 -1.09375 C 0.8125 -0.375 1.03125 0.109375 1.859375 0.109375 C 2.390625 0.109375 3.09375 -0.046875 3.59375 -0.484375 L 3.59375 0 Z M 4.34375 0 "/>
</symbol>
<symbol overflow="visible" id="glyph1-17">
<path style="stroke:none;" d="M 4.078125 0 L 4.078125 -2.875 C 4.078125 -3.890625 3.34375 -4.59375 2.4375 -4.59375 C 1.78125 -4.59375 1.328125 -4.4375 0.875 -4.171875 L 0.921875 -3.515625 C 1.453125 -3.875 1.9375 -4 2.4375 -4 C 2.90625 -4 3.296875 -3.609375 3.296875 -2.875 L 3.296875 -2.4375 C 1.796875 -2.421875 0.53125 -2 0.53125 -1.125 C 0.53125 -0.703125 0.8125 0.109375 1.671875 0.109375 C 1.8125 0.109375 2.75 0.09375 3.328125 -0.359375 L 3.328125 0 Z M 3.296875 -1.3125 C 3.296875 -1.125 3.296875 -0.875 2.953125 -0.6875 C 2.671875 -0.515625 2.296875 -0.5 2.1875 -0.5 C 1.703125 -0.5 1.25 -0.734375 1.25 -1.140625 C 1.25 -1.84375 2.875 -1.90625 3.296875 -1.9375 Z M 3.796875 -6.921875 L 3.015625 -6.921875 L 1.6875 -5.25 L 2.296875 -5.25 Z M 3.796875 -6.921875 "/>
</symbol>
<symbol overflow="visible" id="glyph1-18">
<path style="stroke:none;" d="M 7.109375 0 L 7.109375 -2.96875 C 7.109375 -3.640625 6.953125 -4.53125 5.734375 -4.53125 C 5.140625 -4.53125 4.625 -4.25 4.25 -3.71875 C 4 -4.46875 3.296875 -4.53125 2.984375 -4.53125 C 2.265625 -4.53125 1.796875 -4.125 1.53125 -3.765625 L 1.53125 -4.484375 L 0.8125 -4.484375 L 0.8125 0 L 1.578125 0 L 1.578125 -2.4375 C 1.578125 -3.125 1.859375 -3.921875 2.59375 -3.921875 C 3.515625 -3.921875 3.5625 -3.28125 3.5625 -2.90625 L 3.5625 0 L 4.34375 0 L 4.34375 -2.4375 C 4.34375 -3.125 4.609375 -3.921875 5.359375 -3.921875 C 6.28125 -3.921875 6.328125 -3.28125 6.328125 -2.90625 L 6.328125 0 Z M 7.109375 0 "/>
</symbol>
<symbol overflow="visible" id="glyph1-19">
<path style="stroke:none;" d="M 2.75 -1.921875 L 2.75 -2.5 L 0.109375 -2.5 L 0.109375 -1.921875 Z M 2.75 -1.921875 "/>
</symbol>
<symbol overflow="visible" id="glyph1-20">
<path style="stroke:none;" d="M 4.078125 0 L 4.078125 -2.875 C 4.078125 -3.890625 3.34375 -4.59375 2.4375 -4.59375 C 1.78125 -4.59375 1.328125 -4.4375 0.875 -4.171875 L 0.921875 -3.515625 C 1.453125 -3.875 1.9375 -4 2.4375 -4 C 2.90625 -4 3.296875 -3.609375 3.296875 -2.875 L 3.296875 -2.4375 C 1.796875 -2.421875 0.53125 -2 0.53125 -1.125 C 0.53125 -0.703125 0.8125 0.109375 1.671875 0.109375 C 1.8125 0.109375 2.75 0.09375 3.328125 -0.359375 L 3.328125 0 Z M 3.296875 -1.3125 C 3.296875 -1.125 3.296875 -0.875 2.953125 -0.6875 C 2.671875 -0.515625 2.296875 -0.5 2.1875 -0.5 C 1.703125 -0.5 1.25 -0.734375 1.25 -1.140625 C 1.25 -1.84375 2.875 -1.90625 3.296875 -1.9375 Z M 4.0625 -6.671875 L 3.453125 -6.671875 C 3.4375 -6.34375 3.3125 -6.09375 3.0625 -6.09375 C 2.828125 -6.09375 2.625 -6.234375 2.359375 -6.4375 C 2.15625 -6.5625 1.96875 -6.671875 1.71875 -6.671875 C 1.25 -6.671875 0.75 -6.265625 0.734375 -5.5 L 1.34375 -5.5 C 1.359375 -5.828125 1.46875 -6.078125 1.734375 -6.078125 C 1.96875 -6.078125 2.171875 -5.9375 2.4375 -5.734375 C 2.625 -5.609375 2.828125 -5.5 3.078125 -5.5 C 3.546875 -5.5 4.03125 -5.90625 4.0625 -6.671875 Z M 4.0625 -6.671875 "/>
</symbol>
<symbol overflow="visible" id="glyph1-21">
<path style="stroke:none;" d="M 4.78125 -2.21875 C 4.78125 -3.421875 4.15625 -4.53125 3.203125 -4.53125 C 2.609375 -4.53125 2.03125 -4.328125 1.5625 -3.9375 L 1.5625 -4.421875 L 0.8125 -4.421875 L 0.8125 1.9375 L 1.59375 1.9375 L 1.59375 -0.453125 C 1.90625 -0.171875 2.34375 0.109375 2.9375 0.109375 C 3.90625 0.109375 4.78125 -0.875 4.78125 -2.21875 Z M 4 -2.21875 C 4 -1.203125 3.296875 -0.5 2.546875 -0.5 C 2.15625 -0.5 1.890625 -0.703125 1.6875 -0.96875 C 1.59375 -1.109375 1.59375 -1.140625 1.59375 -1.3125 L 1.59375 -3.3125 C 1.828125 -3.671875 2.21875 -3.890625 2.65625 -3.890625 C 3.40625 -3.890625 4 -3.140625 4 -2.21875 Z M 4 -2.21875 "/>
</symbol>
<symbol overflow="visible" id="glyph1-22">
<path style="stroke:none;" d="M 3.453125 -6.25 L 3.453125 -6.921875 C 3.34375 -6.953125 3.03125 -7.03125 2.65625 -7.03125 C 1.71875 -7.03125 1 -6.3125 1 -5.328125 L 1 -4.421875 L 0.265625 -4.421875 L 0.265625 -3.84375 L 1 -3.84375 L 1 0 L 1.75 0 L 1.75 -3.84375 L 2.84375 -3.84375 L 2.84375 -4.421875 L 1.71875 -4.421875 L 1.71875 -5.609375 C 1.71875 -6.34375 2.390625 -6.421875 2.65625 -6.421875 C 2.84375 -6.421875 3.125 -6.40625 3.453125 -6.25 Z M 3.453125 -6.25 "/>
</symbol>
<symbol overflow="visible" id="glyph1-23">
<path style="stroke:none;" d="M 4.125 -2.1875 C 4.125 -2.515625 4.109375 -3.265625 3.734375 -3.875 C 3.3125 -4.484375 2.71875 -4.59375 2.359375 -4.59375 C 1.25 -4.59375 0.34375 -3.53125 0.34375 -2.25 C 0.34375 -0.9375 1.3125 0.109375 2.5 0.109375 C 3.125 0.109375 3.703125 -0.125 4.09375 -0.40625 L 4.03125 -1.0625 C 3.40625 -0.53125 2.734375 -0.5 2.515625 -0.5 C 1.71875 -0.5 1.078125 -1.203125 1.046875 -2.1875 Z M 3.5625 -2.734375 L 1.09375 -2.734375 C 1.25 -3.484375 1.78125 -3.984375 2.359375 -3.984375 C 2.875 -3.984375 3.421875 -3.65625 3.5625 -2.734375 Z M 3.765625 -5.234375 L 2.515625 -6.953125 L 1.90625 -6.953125 L 0.671875 -5.234375 L 1.25 -5.234375 L 2.21875 -6.453125 L 3.171875 -5.234375 Z M 3.765625 -5.234375 "/>
</symbol>
<symbol overflow="visible" id="glyph1-24">
<path style="stroke:none;" d="M 4.328125 1.9375 L 4.328125 -4.53125 L 3.578125 -4.53125 L 3.578125 -3.859375 C 3.484375 -3.984375 2.984375 -4.53125 2.21875 -4.53125 C 1.21875 -4.53125 0.359375 -3.546875 0.359375 -2.203125 C 0.359375 -0.9375 1.09375 0.109375 2.046875 0.109375 C 2.609375 0.109375 3.125 -0.125 3.546875 -0.5 L 3.546875 1.9375 Z M 3.578125 -1.390625 C 3.578125 -1.21875 3.578125 -1.203125 3.484375 -1.0625 C 3.21875 -0.671875 2.84375 -0.5 2.5 -0.5 C 1.734375 -0.5 1.140625 -1.28125 1.140625 -2.203125 C 1.140625 -3.21875 1.859375 -3.890625 2.578125 -3.890625 C 3.265625 -3.890625 3.578125 -3.1875 3.578125 -2.796875 Z M 3.578125 -1.390625 "/>
</symbol>
<symbol overflow="visible" id="glyph1-25">
<path style="stroke:none;" d="M 4.34375 0 L 4.34375 -2.96875 C 4.34375 -3.625 4.1875 -4.53125 2.96875 -4.53125 C 2.359375 -4.53125 1.875 -4.234375 1.5625 -3.8125 L 1.5625 -6.921875 L 0.8125 -6.921875 L 0.8125 0 L 1.578125 0 L 1.578125 -2.4375 C 1.578125 -3.09375 1.828125 -3.921875 2.59375 -3.921875 C 3.546875 -3.921875 3.5625 -3.21875 3.5625 -2.90625 L 3.5625 0 Z M 4.34375 0 "/>
</symbol>
<symbol overflow="visible" id="glyph1-26">
<path style="stroke:none;" d="M 1.5625 0 L 1.5625 -4.421875 L 0.8125 -4.421875 L 0.8125 0 Z M 2.90625 -6.921875 L 2.140625 -6.921875 L 0.8125 -5.25 L 1.421875 -5.25 Z M 2.90625 -6.921875 "/>
</symbol>
<symbol overflow="visible" id="glyph1-27">
<path style="stroke:none;" d="M 4.828125 -3.90625 L 4.71875 -4.53125 C 4.03125 -4.53125 3.453125 -4.34375 3.15625 -4.21875 C 2.9375 -4.390625 2.609375 -4.53125 2.203125 -4.53125 C 1.34375 -4.53125 0.625 -3.8125 0.625 -2.90625 C 0.625 -2.546875 0.75 -2.1875 0.953125 -1.921875 C 0.65625 -1.515625 0.65625 -1.125 0.65625 -1.078125 C 0.65625 -0.8125 0.75 -0.53125 0.921875 -0.3125 C 0.40625 -0.015625 0.28125 0.453125 0.28125 0.703125 C 0.28125 1.453125 1.265625 2.046875 2.484375 2.046875 C 3.703125 2.046875 4.6875 1.46875 4.6875 0.703125 C 4.6875 -0.6875 3.03125 -0.6875 2.640625 -0.6875 L 1.765625 -0.6875 C 1.640625 -0.6875 1.1875 -0.6875 1.1875 -1.21875 C 1.1875 -1.328125 1.21875 -1.484375 1.296875 -1.578125 C 1.5 -1.421875 1.828125 -1.28125 2.203125 -1.28125 C 3.09375 -1.28125 3.796875 -2.03125 3.796875 -2.90625 C 3.796875 -3.390625 3.578125 -3.765625 3.46875 -3.90625 L 3.515625 -3.890625 C 3.734375 -3.890625 4 -3.9375 4.25 -3.9375 C 4.421875 -3.9375 4.828125 -3.90625 4.828125 -3.90625 Z M 3.09375 -2.90625 C 3.09375 -2.140625 2.625 -1.859375 2.203125 -1.859375 C 1.828125 -1.859375 1.3125 -2.078125 1.3125 -2.90625 C 1.3125 -3.734375 1.828125 -3.96875 2.203125 -3.96875 C 2.625 -3.96875 3.09375 -3.6875 3.09375 -2.90625 Z M 4 0.71875 C 4 1.15625 3.3125 1.484375 2.5 1.484375 C 1.6875 1.484375 0.984375 1.171875 0.984375 0.703125 C 0.984375 0.671875 0.984375 0.03125 1.75 0.03125 L 2.65625 0.03125 C 2.875 0.03125 4 0.03125 4 0.71875 Z M 4 0.71875 "/>
</symbol>
<symbol overflow="visible" id="glyph1-28">
<path style="stroke:none;" d="M 1.796875 -0.015625 L 1.796875 -0.828125 L 0.96875 -0.828125 L 0.96875 0 L 1.21875 0 L 0.96875 1.25 L 1.375 1.25 Z M 1.796875 -0.015625 "/>
</symbol>
<symbol overflow="visible" id="glyph1-29">
<path style="stroke:none;" d="M 4.578125 0 L 2.59375 -2.28125 L 4.421875 -4.421875 L 3.59375 -4.421875 L 2.265625 -2.78125 L 0.890625 -4.421875 L 0.0625 -4.421875 L 1.9375 -2.28125 L 0 0 L 0.8125 0 L 2.265625 -1.875 L 3.765625 0 Z M 4.578125 0 "/>
</symbol>
<symbol overflow="visible" id="glyph1-30">
<path style="stroke:none;" d="M 3.3125 2.5 C 2.828125 2.015625 1.5625 0.734375 1.5625 -2.5 C 1.5625 -3.046875 1.59375 -4.21875 2 -5.390625 C 2.40625 -6.546875 2.984375 -7.140625 3.3125 -7.484375 L 2.703125 -7.484375 C 2.375 -7.171875 1.71875 -6.5625 1.25 -5.34375 C 0.859375 -4.28125 0.78125 -3.21875 0.78125 -2.5 C 0.78125 0.734375 2.21875 2.046875 2.703125 2.5 Z M 3.3125 2.5 "/>
</symbol>
<symbol overflow="visible" id="glyph1-31">
<path style="stroke:none;" d="M 3.078125 -2.5 C 3.078125 -5.71875 1.640625 -7.03125 1.171875 -7.484375 L 0.5625 -7.484375 C 1.03125 -7 2.296875 -5.71875 2.296875 -2.5 C 2.296875 -1.9375 2.265625 -0.765625 1.859375 0.40625 C 1.453125 1.5625 0.890625 2.15625 0.5625 2.5 L 1.171875 2.5 C 1.484375 2.1875 2.15625 1.578125 2.609375 0.359375 C 3.015625 -0.703125 3.078125 -1.765625 3.078125 -2.5 Z M 3.078125 -2.5 "/>
</symbol>
<symbol overflow="visible" id="glyph2-0">
<path style="stroke:none;" d=""/>
</symbol>
<symbol overflow="visible" id="glyph2-1">
<path style="stroke:none;" d="M 7.6875 -3.375 C 7.6875 -5.421875 6.09375 -7.03125 4.203125 -7.03125 C 2.28125 -7.03125 0.71875 -5.40625 0.71875 -3.375 C 0.71875 -1.359375 2.296875 0.21875 4.203125 0.21875 C 6.125 0.21875 7.6875 -1.390625 7.6875 -3.375 Z M 6.65625 -3.53125 C 6.65625 -0.921875 5.21875 -0.046875 4.203125 -0.046875 C 3.125 -0.046875 1.75 -0.984375 1.75 -3.53125 C 1.75 -5.96875 3.1875 -6.78125 4.203125 -6.78125 C 5.25 -6.78125 6.65625 -5.9375 6.65625 -3.53125 Z M 6.65625 -3.53125 "/>
</symbol>
<symbol overflow="visible" id="glyph2-2">
<path style="stroke:none;" d="M 5.90625 -0.671875 C 5.90625 -0.734375 5.90625 -0.828125 5.78125 -0.828125 C 5.671875 -0.828125 5.65625 -0.734375 5.65625 -0.703125 C 5.59375 -0.09375 5.234375 -0.078125 5.15625 -0.078125 C 4.96875 -0.078125 4.875 -0.203125 4.8125 -0.3125 C 4.734375 -0.484375 4.671875 -0.75 4.546875 -1.390625 C 4.46875 -1.75 4.359375 -2.25 3.625 -2.546875 C 4.3125 -2.71875 4.9375 -3.171875 4.9375 -3.78125 C 4.9375 -4.46875 4.046875 -5.125 2.84375 -5.125 L 0.453125 -5.125 L 0.453125 -4.875 C 1.109375 -4.875 1.171875 -4.8125 1.171875 -4.40625 L 1.171875 -0.71875 C 1.171875 -0.3125 1.109375 -0.25 0.453125 -0.25 L 0.453125 0 L 1.5 -0.03125 L 2.578125 0 L 2.578125 -0.25 C 1.90625 -0.25 1.859375 -0.3125 1.859375 -0.71875 L 1.859375 -2.453125 L 2.75 -2.453125 C 3 -2.453125 3.265625 -2.4375 3.5625 -2.140625 C 3.78125 -1.90625 3.78125 -1.671875 3.78125 -1.234375 C 3.78125 -0.671875 3.78125 -0.5 4.09375 -0.1875 C 4.28125 -0.015625 4.671875 0.140625 5.125 0.140625 C 5.765625 0.140625 5.90625 -0.484375 5.90625 -0.671875 Z M 4.078125 -3.78125 C 4.078125 -3.390625 4.03125 -2.671875 2.734375 -2.671875 L 1.859375 -2.671875 L 1.859375 -4.453125 C 1.859375 -4.6875 1.875 -4.796875 1.96875 -4.84375 C 2.046875 -4.875 2.3125 -4.875 2.5 -4.875 C 3.234375 -4.875 4.078125 -4.84375 4.078125 -3.78125 Z M 4.078125 -3.78125 "/>
</symbol>
<symbol overflow="visible" id="glyph2-3">
<path style="stroke:none;" d="M 5.71875 -2.515625 C 5.71875 -3.890625 4.6875 -5.125 3.25 -5.125 L 0.453125 -5.125 L 0.453125 -4.875 C 1.109375 -4.875 1.171875 -4.8125 1.171875 -4.40625 L 1.171875 -0.71875 C 1.171875 -0.3125 1.109375 -0.25 0.453125 -0.25 L 0.453125 0 L 3.25 0 C 4.65625 0 5.71875 -1.15625 5.71875 -2.515625 Z M 4.890625 -2.515625 C 4.890625 -1.703125 4.734375 -1.28125 4.53125 -0.96875 C 4.359375 -0.75 3.9375 -0.25 3.015625 -0.25 L 2.25 -0.25 C 1.90625 -0.25 1.859375 -0.28125 1.859375 -0.671875 L 1.859375 -4.453125 C 1.859375 -4.84375 1.90625 -4.875 2.25 -4.875 L 3.015625 -4.875 C 3.875 -4.875 4.3125 -4.40625 4.453125 -4.234375 C 4.671875 -3.953125 4.890625 -3.53125 4.890625 -2.515625 Z M 4.890625 -2.515625 "/>
</symbol>
<symbol overflow="visible" id="glyph2-4">
<path style="stroke:none;" d="M 5.28125 -1.9375 L 5.03125 -1.9375 C 4.859375 -0.734375 4.609375 -0.25 3.34375 -0.25 L 2.265625 -0.25 C 1.90625 -0.25 1.859375 -0.28125 1.859375 -0.671875 L 1.859375 -2.515625 L 2.5625 -2.515625 C 3.296875 -2.515625 3.421875 -2.328125 3.421875 -1.65625 L 3.671875 -1.65625 L 3.671875 -3.640625 L 3.421875 -3.640625 C 3.421875 -2.96875 3.296875 -2.765625 2.5625 -2.765625 L 1.859375 -2.765625 L 1.859375 -4.421875 C 1.859375 -4.8125 1.90625 -4.84375 2.265625 -4.84375 L 3.28125 -4.84375 C 4.4375 -4.84375 4.6875 -4.5 4.8125 -3.40625 L 5.046875 -3.40625 L 4.859375 -5.09375 L 0.421875 -5.09375 L 0.421875 -4.84375 C 1.09375 -4.84375 1.140625 -4.78125 1.140625 -4.375 L 1.140625 -0.71875 C 1.140625 -0.3125 1.09375 -0.25 0.421875 -0.25 L 0.421875 0 L 4.984375 0 Z M 5.28125 -1.9375 "/>
</symbol>
<symbol overflow="visible" id="glyph2-5">
<path style="stroke:none;" d="M 5.6875 -4.875 L 5.6875 -5.125 L 4.828125 -5.09375 C 4.671875 -5.09375 4.21875 -5.109375 3.96875 -5.125 L 3.96875 -4.875 C 4.6875 -4.875 4.6875 -4.34375 4.6875 -4.109375 L 4.6875 -1.15625 L 1.921875 -5 C 1.828125 -5.125 1.8125 -5.125 1.625 -5.125 L 0.421875 -5.125 L 0.421875 -4.875 C 0.671875 -4.875 0.953125 -4.875 1.140625 -4.8125 L 1.140625 -1 C 1.140625 -0.78125 1.140625 -0.25 0.421875 -0.25 L 0.421875 0 L 1.28125 -0.03125 C 1.4375 -0.03125 1.890625 -0.015625 2.140625 0 L 2.140625 -0.25 C 1.421875 -0.25 1.421875 -0.78125 1.421875 -1 L 1.421875 -4.578125 L 1.53125 -4.453125 L 4.65625 -0.109375 C 4.734375 0 4.765625 0 4.828125 0 C 4.96875 0 4.96875 -0.0625 4.96875 -0.265625 L 4.96875 -4.109375 C 4.96875 -4.34375 4.96875 -4.875 5.6875 -4.875 Z M 5.6875 -4.875 "/>
</symbol>
<symbol overflow="visible" id="glyph2-6">
<path style="stroke:none;" d="M 7.765625 -6.5 L 7.765625 -6.8125 C 7.453125 -6.78125 7.0625 -6.78125 6.796875 -6.78125 L 5.65625 -6.8125 L 5.65625 -6.5 C 6.234375 -6.484375 6.375 -6.1875 6.375 -6.015625 C 6.375 -5.96875 6.375 -5.9375 6.3125 -5.8125 L 4.34375 -0.921875 L 2.28125 -6.046875 C 2.265625 -6.078125 2.234375 -6.171875 2.234375 -6.203125 C 2.234375 -6.5 2.765625 -6.5 3.046875 -6.5 L 3.046875 -6.8125 C 2.6875 -6.78125 1.984375 -6.78125 1.609375 -6.78125 L 0.34375 -6.8125 L 0.34375 -6.5 C 1.109375 -6.5 1.1875 -6.453125 1.328125 -6.125 L 3.8125 0.015625 C 3.875 0.15625 3.890625 0.21875 4.046875 0.21875 C 4.21875 0.21875 4.234375 0.171875 4.296875 0.015625 L 6.65625 -5.859375 C 6.921875 -6.5 7.578125 -6.5 7.765625 -6.5 Z M 7.765625 -6.5 "/>
</symbol>
<symbol overflow="visible" id="glyph2-7">
<path style="stroke:none;" d="M 5.765625 0 L 5.765625 -0.25 C 5.21875 -0.25 5.125 -0.296875 5 -0.640625 L 3.28125 -5.078125 C 3.21875 -5.234375 3.171875 -5.296875 3.0625 -5.296875 C 2.921875 -5.296875 2.90625 -5.234375 2.84375 -5.109375 L 1.25 -0.984375 C 1.140625 -0.71875 0.96875 -0.265625 0.34375 -0.25 L 0.34375 0 C 0.5625 -0.015625 0.84375 -0.03125 1.0625 -0.03125 L 1.890625 0 L 1.890625 -0.25 C 1.46875 -0.265625 1.453125 -0.609375 1.453125 -0.703125 C 1.453125 -0.78125 1.453125 -0.796875 1.78125 -1.6875 L 3.84375 -1.6875 L 4.0625 -1.125 C 4.140625 -0.921875 4.28125 -0.59375 4.28125 -0.53125 C 4.28125 -0.25 3.921875 -0.25 3.75 -0.25 L 3.75 0 L 4.8125 -0.03125 C 5.140625 -0.03125 5.53125 -0.015625 5.765625 0 Z M 3.75 -1.9375 L 1.890625 -1.9375 L 2.828125 -4.34375 Z M 3.75 -1.9375 "/>
</symbol>
<symbol overflow="visible" id="glyph2-8">
<path style="stroke:none;" d="M 4.71875 -1.9375 L 4.46875 -1.9375 C 4.390625 -1.140625 4.28125 -0.25 2.890625 -0.25 L 2.265625 -0.25 C 1.90625 -0.25 1.859375 -0.28125 1.859375 -0.671875 L 1.859375 -4.375 C 1.859375 -4.875 2.015625 -4.875 2.765625 -4.875 L 2.765625 -5.125 L 1.53125 -5.09375 L 0.421875 -5.125 L 0.421875 -4.875 C 1.09375 -4.875 1.140625 -4.8125 1.140625 -4.40625 L 1.140625 -0.71875 C 1.140625 -0.3125 1.09375 -0.25 0.421875 -0.25 L 0.421875 0 L 4.53125 0 Z M 4.71875 -1.9375 "/>
</symbol>
<symbol overflow="visible" id="glyph2-9">
<path style="stroke:none;" d="M 5.828125 -2.546875 C 5.828125 -4.03125 4.640625 -5.265625 3.171875 -5.265625 C 1.6875 -5.265625 0.515625 -4.03125 0.515625 -2.546875 C 0.515625 -1.03125 1.71875 0.140625 3.171875 0.140625 C 4.625 0.140625 5.828125 -1.03125 5.828125 -2.546875 Z M 4.96875 -2.65625 C 4.96875 -0.6875 3.875 -0.125 3.171875 -0.125 C 2.46875 -0.125 1.359375 -0.6875 1.359375 -2.65625 C 1.359375 -4.53125 2.5 -5.015625 3.171875 -5.015625 C 3.84375 -5.015625 4.96875 -4.515625 4.96875 -2.65625 Z M 4.96875 -2.65625 "/>
</symbol>
<symbol overflow="visible" id="glyph2-10">
<path style="stroke:none;" d="M 4.0625 -1.421875 C 4.0625 -2.046875 3.671875 -2.453125 3.671875 -2.453125 C 3.296875 -2.828125 3.140625 -2.859375 2.296875 -3.0625 C 2.078125 -3.109375 1.734375 -3.1875 1.671875 -3.203125 C 1.171875 -3.40625 1.015625 -3.796875 1.015625 -4.09375 C 1.015625 -4.5625 1.421875 -5.046875 2.078125 -5.046875 C 3.34375 -5.046875 3.53125 -3.875 3.5625 -3.5625 C 3.59375 -3.484375 3.59375 -3.421875 3.703125 -3.421875 C 3.828125 -3.421875 3.828125 -3.484375 3.828125 -3.671875 L 3.828125 -5.03125 C 3.828125 -5.1875 3.828125 -5.265625 3.734375 -5.265625 C 3.671875 -5.265625 3.65625 -5.25 3.515625 -5.03125 C 3.453125 -4.984375 3.359375 -4.828125 3.3125 -4.78125 C 2.9375 -5.140625 2.484375 -5.265625 2.078125 -5.265625 C 1.171875 -5.265625 0.515625 -4.578125 0.515625 -3.8125 C 0.515625 -3.25 0.828125 -2.921875 0.953125 -2.796875 C 1.25 -2.5 1.453125 -2.46875 2.359375 -2.25 C 2.90625 -2.125 3 -2.109375 3.234375 -1.890625 C 3.28125 -1.859375 3.546875 -1.578125 3.546875 -1.140625 C 3.546875 -0.640625 3.15625 -0.109375 2.46875 -0.109375 C 2.21875 -0.109375 1.671875 -0.15625 1.25 -0.5 C 0.796875 -0.84375 0.765625 -1.328125 0.75 -1.609375 C 0.75 -1.6875 0.671875 -1.6875 0.640625 -1.6875 C 0.515625 -1.6875 0.515625 -1.625 0.515625 -1.453125 L 0.515625 -0.09375 C 0.515625 0.0625 0.515625 0.140625 0.609375 0.140625 C 0.671875 0.140625 0.671875 0.125 0.828125 -0.09375 C 0.875 -0.140625 0.984375 -0.296875 1.015625 -0.34375 C 1.3125 -0.09375 1.828125 0.140625 2.46875 0.140625 C 3.4375 0.140625 4.0625 -0.625 4.0625 -1.421875 Z M 4.0625 -1.421875 "/>
</symbol>
<symbol overflow="visible" id="glyph2-11">
<path style="stroke:none;" d="M 4.9375 -3.40625 L 4.75 -5.09375 L 0.421875 -5.09375 L 0.421875 -4.84375 C 1.09375 -4.84375 1.140625 -4.78125 1.140625 -4.375 L 1.140625 -0.71875 C 1.140625 -0.3125 1.09375 -0.25 0.421875 -0.25 L 0.421875 0 L 1.53125 -0.03125 L 2.765625 0 L 2.765625 -0.25 C 2.015625 -0.25 1.859375 -0.25 1.859375 -0.75 L 1.859375 -2.421875 L 2.53125 -2.421875 C 3.265625 -2.421875 3.375 -2.21875 3.375 -1.5625 L 3.625 -1.5625 L 3.625 -3.53125 L 3.375 -3.53125 C 3.375 -2.875 3.265625 -2.671875 2.53125 -2.671875 L 1.859375 -2.671875 L 1.859375 -4.421875 C 1.859375 -4.8125 1.90625 -4.84375 2.265625 -4.84375 L 3.203125 -4.84375 C 4.3125 -4.84375 4.59375 -4.53125 4.6875 -3.40625 Z M 4.9375 -3.40625 "/>
</symbol>
<symbol overflow="visible" id="glyph2-12">
<path style="stroke:none;" d="M 7.3125 -4.5 L 7.125 -6.75 L 0.703125 -6.75 L 0.515625 -4.5 L 0.765625 -4.5 C 0.90625 -6.1875 1.109375 -6.4375 2.671875 -6.4375 C 2.859375 -6.4375 3.15625 -6.4375 3.25 -6.421875 C 3.46875 -6.390625 3.46875 -6.265625 3.46875 -6.046875 L 3.46875 -0.78125 C 3.46875 -0.453125 3.46875 -0.3125 2.421875 -0.3125 L 2.03125 -0.3125 L 2.03125 0 C 2.4375 -0.03125 3.453125 -0.03125 3.90625 -0.03125 C 4.359375 -0.03125 5.390625 -0.03125 5.796875 0 L 5.796875 -0.3125 L 5.40625 -0.3125 C 4.359375 -0.3125 4.359375 -0.453125 4.359375 -0.78125 L 4.359375 -6.046875 C 4.359375 -6.265625 4.359375 -6.390625 4.578125 -6.421875 C 4.671875 -6.4375 4.96875 -6.4375 5.15625 -6.4375 C 6.703125 -6.4375 6.921875 -6.1875 7.0625 -4.5 Z M 7.3125 -4.5 "/>
</symbol>
<symbol overflow="visible" id="glyph2-13">
<path style="stroke:none;" d="M 5.875 0.078125 C 5.875 0 5.875 -0.109375 5.765625 -0.109375 C 5.671875 -0.109375 5.65625 -0.046875 5.65625 0.0625 C 5.59375 0.453125 5.21875 0.578125 4.96875 0.578125 C 4.8125 0.578125 4.53125 0.578125 4.234375 -0.078125 C 4.96875 -0.390625 5.828125 -1.265625 5.828125 -2.546875 C 5.828125 -4.03125 4.640625 -5.265625 3.171875 -5.265625 C 1.6875 -5.265625 0.515625 -4.03125 0.515625 -2.546875 C 0.515625 -1.03125 1.71875 0.140625 3.171875 0.140625 C 3.53125 0.140625 3.84375 0.0625 3.890625 0.046875 C 4.0625 0.796875 4.203125 1.4375 4.890625 1.4375 C 5.625 1.4375 5.875 0.546875 5.875 0.078125 Z M 5 -2.546875 C 5 -1.703125 4.765625 -0.84375 4.078125 -0.390625 C 3.921875 -0.671875 3.6875 -1.140625 3.1875 -1.140625 C 2.78125 -1.140625 2.5 -0.84375 2.5 -0.515625 C 2.5 -0.34375 2.578125 -0.234375 2.578125 -0.234375 C 2.078125 -0.421875 1.328125 -1 1.328125 -2.546875 C 1.328125 -4.390625 2.40625 -5.015625 3.171875 -5.015625 C 3.9375 -5.015625 5 -4.390625 5 -2.546875 Z M 3.828125 -0.25 C 3.8125 -0.234375 3.515625 -0.109375 3.171875 -0.109375 C 2.734375 -0.109375 2.71875 -0.453125 2.71875 -0.515625 C 2.71875 -0.734375 2.90625 -0.921875 3.1875 -0.921875 C 3.5 -0.921875 3.71875 -0.703125 3.828125 -0.25 Z M 3.828125 -0.25 "/>
</symbol>
<symbol overflow="visible" id="glyph2-14">
<path style="stroke:none;" d="M 5.6875 -4.875 L 5.6875 -5.125 C 5.4375 -5.109375 4.90625 -5.09375 4.84375 -5.09375 C 4.5625 -5.09375 4.28125 -5.109375 4 -5.125 L 4 -4.875 C 4.71875 -4.875 4.71875 -4.34375 4.71875 -4.109375 L 4.71875 -1.78125 C 4.71875 -0.625 3.859375 -0.109375 3.1875 -0.109375 C 2.875 -0.109375 1.859375 -0.234375 1.859375 -1.71875 L 1.859375 -4.40625 C 1.859375 -4.8125 1.90625 -4.875 2.578125 -4.875 L 2.578125 -5.125 L 1.5 -5.09375 L 0.421875 -5.125 L 0.421875 -4.875 C 1.109375 -4.875 1.140625 -4.8125 1.140625 -4.390625 L 1.140625 -2.21875 C 1.140625 -1.96875 1.140625 -1.609375 1.171875 -1.46875 C 1.25 -0.671875 2.046875 0.140625 3.15625 0.140625 C 4.3125 0.140625 4.953125 -0.875 4.96875 -1.609375 L 4.96875 -4.25 C 4.96875 -4.65625 5.234375 -4.875 5.6875 -4.875 Z M 5.6875 -4.875 "/>
</symbol>
<symbol overflow="visible" id="glyph3-0">
<path style="stroke:none;" d=""/>
</symbol>
<symbol overflow="visible" id="glyph3-1">
<path style="stroke:none;" d="M 4.671875 -3.703125 C 4.671875 -4.25 4.40625 -4.40625 4.234375 -4.40625 C 3.984375 -4.40625 3.734375 -4.140625 3.734375 -3.921875 C 3.734375 -3.796875 3.78125 -3.734375 3.890625 -3.625 C 4.109375 -3.421875 4.234375 -3.171875 4.234375 -2.8125 C 4.234375 -2.390625 3.625 -0.109375 2.46875 -0.109375 C 1.953125 -0.109375 1.71875 -0.453125 1.71875 -0.984375 C 1.71875 -1.53125 2 -2.265625 2.296875 -3.09375 C 2.375 -3.265625 2.421875 -3.40625 2.421875 -3.59375 C 2.421875 -4.03125 2.109375 -4.40625 1.609375 -4.40625 C 0.671875 -4.40625 0.296875 -2.953125 0.296875 -2.875 C 0.296875 -2.765625 0.40625 -2.765625 0.40625 -2.765625 C 0.515625 -2.765625 0.515625 -2.796875 0.5625 -2.953125 C 0.859375 -3.953125 1.28125 -4.1875 1.578125 -4.1875 C 1.65625 -4.1875 1.828125 -4.1875 1.828125 -3.875 C 1.828125 -3.625 1.71875 -3.34375 1.65625 -3.171875 C 1.21875 -2.015625 1.09375 -1.5625 1.09375 -1.125 C 1.09375 -0.046875 1.96875 0.109375 2.421875 0.109375 C 4.09375 0.109375 4.671875 -3.1875 4.671875 -3.703125 Z M 4.671875 -3.703125 "/>
</symbol>
<symbol overflow="visible" id="glyph3-2">
<path style="stroke:none;" d="M 6.921875 -2.5 C 6.921875 -2.609375 6.84375 -2.65625 6.734375 -2.71875 L 1.203125 -5.3125 C 1.078125 -5.390625 1.0625 -5.390625 1.03125 -5.390625 C 0.921875 -5.390625 0.828125 -5.296875 0.828125 -5.1875 C 0.828125 -5.09375 0.875 -5.03125 1.015625 -4.96875 L 6.25 -2.5 L 1.015625 -0.015625 C 0.875 0.046875 0.828125 0.109375 0.828125 0.203125 C 0.828125 0.3125 0.921875 0.40625 1.03125 0.40625 C 1.0625 0.40625 1.078125 0.40625 1.203125 0.328125 L 6.734375 -2.265625 C 6.84375 -2.328125 6.921875 -2.375 6.921875 -2.5 Z M 6.921875 -2.5 "/>
</symbol>
<symbol overflow="visible" id="glyph4-0">
<path style="stroke:none;" d=""/>
</symbol>
<symbol overflow="visible" id="glyph4-1">
<path style="stroke:none;" d="M 3.296875 0 L 3.296875 -0.25 L 3.03125 -0.25 C 2.328125 -0.25 2.328125 -0.34375 2.328125 -0.578125 L 2.328125 -4.4375 C 2.328125 -4.625 2.328125 -4.625 2.125 -4.625 C 1.671875 -4.1875 1.046875 -4.1875 0.765625 -4.1875 L 0.765625 -3.9375 C 0.921875 -3.9375 1.390625 -3.9375 1.765625 -4.125 L 1.765625 -0.578125 C 1.765625 -0.34375 1.765625 -0.25 1.078125 -0.25 L 0.8125 -0.25 L 0.8125 0 L 2.046875 -0.03125 Z M 3.296875 0 "/>
</symbol>
<symbol overflow="visible" id="glyph4-2">
<path style="stroke:none;" d="M 3.515625 -1.265625 L 3.28125 -1.265625 C 3.265625 -1.109375 3.1875 -0.703125 3.09375 -0.640625 C 3.046875 -0.59375 2.515625 -0.59375 2.40625 -0.59375 L 1.125 -0.59375 C 1.859375 -1.234375 2.109375 -1.4375 2.515625 -1.765625 C 3.03125 -2.171875 3.515625 -2.609375 3.515625 -3.265625 C 3.515625 -4.109375 2.78125 -4.625 1.890625 -4.625 C 1.03125 -4.625 0.4375 -4.015625 0.4375 -3.375 C 0.4375 -3.03125 0.734375 -2.984375 0.8125 -2.984375 C 0.96875 -2.984375 1.171875 -3.109375 1.171875 -3.359375 C 1.171875 -3.484375 1.125 -3.734375 0.765625 -3.734375 C 0.984375 -4.21875 1.453125 -4.375 1.78125 -4.375 C 2.484375 -4.375 2.84375 -3.828125 2.84375 -3.265625 C 2.84375 -2.65625 2.40625 -2.1875 2.1875 -1.9375 L 0.515625 -0.265625 C 0.4375 -0.203125 0.4375 -0.1875 0.4375 0 L 3.3125 0 Z M 3.515625 -1.265625 "/>
</symbol>
</g>
</defs>
<g id="surface1">
<g style="fill:rgb(0%,0%,0%);fill-opacity:1;">
  <use xlink:href="#glyph0-1" x="3.321" y="6.918"/>
  <use xlink:href="#glyph0-2" x="11.236286" y="6.918"/>
  <use xlink:href="#glyph0-3" x="16.328171" y="6.918"/>
  <use xlink:href="#glyph0-4" x="20.529399" y="6.918"/>
  <use xlink:href="#glyph0-5" x="25.400114" y="6.918"/>
  <use xlink:href="#glyph0-6" x="29.108194" y="6.918"/>
  <use xlink:href="#glyph0-7" x="31.653638" y="6.918"/>
  <use xlink:href="#glyph0-8" x="36.524353" y="6.918"/>
  <use xlink:href="#glyph0-9" x="41.754718" y="6.918"/>
</g>
<g style="fill:rgb(0%,0%,0%);fill-opacity:1;">
  <use xlink:href="#glyph1-1" x="47.234" y="6.918"/>
</g>
<g style="fill:rgb(0%,0%,0%);fill-opacity:1;">
  <use xlink:href="#glyph1-2" x="54.98291" y="6.918"/>
  <use xlink:href="#glyph1-3" x="61.416757" y="6.918"/>
  <use xlink:href="#glyph1-4" x="65.845133" y="6.918"/>
  <use xlink:href="#glyph1-5" x="70.633159" y="6.918"/>
  <use xlink:href="#glyph1-6" x="73.013224" y="6.918"/>
  <use xlink:href="#glyph1-7" x="75.393289" y="6.918"/>
  <use xlink:href="#glyph1-4" x="79.724031" y="6.918"/>
</g>
<g style="fill:rgb(0%,0%,0%);fill-opacity:1;">
  <use xlink:href="#glyph1-4" x="87.829602" y="6.918"/>
</g>
<g style="fill:rgb(0%,0%,0%);fill-opacity:1;">
  <use xlink:href="#glyph1-8" x="95.935174" y="6.918"/>
  <use xlink:href="#glyph1-9" x="99.532669" y="6.918"/>
  <use xlink:href="#glyph1-10" x="102.936889" y="6.918"/>
</g>
<g style="fill:rgb(0%,0%,0%);fill-opacity:1;">
  <use xlink:href="#glyph1-11" x="108.197142" y="6.918"/>
  <use xlink:href="#glyph1-4" x="112.625518" y="6.918"/>
</g>
<g style="fill:rgb(0%,0%,0%);fill-opacity:1;">
  <use xlink:href="#glyph1-12" x="120.731089" y="6.918"/>
  <use xlink:href="#glyph1-3" x="125.878764" y="6.918"/>
</g>
<g style="fill:rgb(0%,0%,0%);fill-opacity:1;">
  <use xlink:href="#glyph1-13" x="133.634648" y="6.918"/>
  <use xlink:href="#glyph1-4" x="138.228403" y="6.918"/>
  <use xlink:href="#glyph1-5" x="143.016429" y="6.918"/>
  <use xlink:href="#glyph1-10" x="145.396494" y="6.918"/>
</g>
<g style="fill:rgb(0%,0%,0%);fill-opacity:1;">
  <use xlink:href="#glyph1-9" x="150.098841" y="6.918"/>
  <use xlink:href="#glyph1-3" x="153.503062" y="6.918"/>
  <use xlink:href="#glyph1-14" x="157.931437" y="6.918"/>
</g>
<g style="fill:rgb(0%,0%,0%);fill-opacity:1;">
  <use xlink:href="#glyph1-3" x="165.067648" y="6.918"/>
  <use xlink:href="#glyph1-15" x="169.496023" y="6.918"/>
  <use xlink:href="#glyph1-8" x="174.643699" y="6.918"/>
  <use xlink:href="#glyph1-9" x="178.241194" y="6.918"/>
  <use xlink:href="#glyph1-3" x="181.645414" y="6.918"/>
</g>
<g style="fill:rgb(0%,0%,0%);fill-opacity:1;">
  <use xlink:href="#glyph1-12" x="189.391336" y="6.918"/>
  <use xlink:href="#glyph1-16" x="194.539011" y="6.918"/>
  <use xlink:href="#glyph1-4" x="199.686687" y="6.918"/>
  <use xlink:href="#glyph1-14" x="204.474712" y="6.918"/>
</g>
<g style="fill:rgb(0%,0%,0%);fill-opacity:1;">
  <use xlink:href="#glyph1-13" x="211.620885" y="6.918"/>
  <use xlink:href="#glyph1-4" x="216.21464" y="6.918"/>
</g>
<g style="fill:rgb(0%,0%,0%);fill-opacity:1;">
  <use xlink:href="#glyph1-9" x="220.723713" y="6.918"/>
  <use xlink:href="#glyph1-6" x="224.127933" y="6.918"/>
  <use xlink:href="#glyph1-17" x="226.507998" y="6.918"/>
  <use xlink:href="#glyph1-13" x="231.296024" y="6.918"/>
  <use xlink:href="#glyph1-3" x="235.889779" y="6.918"/>
  <use xlink:href="#glyph1-6" x="240.318154" y="6.918"/>
  <use xlink:href="#glyph1-14" x="242.698219" y="6.918"/>
</g>
<g style="fill:rgb(0%,0%,0%);fill-opacity:1;">
  <use xlink:href="#glyph1-18" x="249.83443" y="6.918"/>
  <use xlink:href="#glyph1-4" x="257.749716" y="6.918"/>
  <use xlink:href="#glyph1-15" x="262.537741" y="6.918"/>
  <use xlink:href="#glyph1-8" x="267.685417" y="6.918"/>
  <use xlink:href="#glyph1-3" x="271.282911" y="6.918"/>
  <use xlink:href="#glyph1-15" x="275.711287" y="6.918"/>
  <use xlink:href="#glyph1-12" x="280.858963" y="6.918"/>
  <use xlink:href="#glyph1-10" x="286.006638" y="6.918"/>
  <use xlink:href="#glyph1-19" x="290.987938" y="6.918"/>
  <use xlink:href="#glyph1-4" x="294.308473" y="6.918"/>
  <use xlink:href="#glyph1-14" x="299.096498" y="6.918"/>
</g>
<g style="fill:rgb(0%,0%,0%);fill-opacity:1;">
  <use xlink:href="#glyph1-3" x="306.232708" y="6.918"/>
  <use xlink:href="#glyph1-18" x="310.661084" y="6.918"/>
</g>
<g style="fill:rgb(0%,0%,0%);fill-opacity:1;">
  <use xlink:href="#glyph1-10" x="321.893916" y="6.918"/>
</g>
<g style="fill:rgb(0%,0%,0%);fill-opacity:1;">
  <use xlink:href="#glyph1-9" x="326.606225" y="6.918"/>
  <use xlink:href="#glyph1-12" x="330.010446" y="6.918"/>
  <use xlink:href="#glyph1-3" x="335.158121" y="6.918"/>
</g>
<g style="fill:rgb(0%,0%,0%);fill-opacity:1;">
  <use xlink:href="#glyph1-18" x="339.576534" y="6.918"/>
</g>
<g style="fill:rgb(0%,0%,0%);fill-opacity:1;">
  <use xlink:href="#glyph1-15" x="350.819328" y="6.918"/>
  <use xlink:href="#glyph1-20" x="355.967004" y="6.918"/>
  <use xlink:href="#glyph1-10" x="360.755029" y="6.918"/>
</g>
<g style="fill:rgb(0%,0%,0%);fill-opacity:1;">
  <use xlink:href="#glyph1-12" x="369.053875" y="6.918"/>
  <use xlink:href="#glyph1-3" x="374.201551" y="6.918"/>
  <use xlink:href="#glyph1-11" x="378.629926" y="6.918"/>
  <use xlink:href="#glyph1-9" x="383.058302" y="6.918"/>
  <use xlink:href="#glyph1-3" x="386.462523" y="6.918"/>
  <use xlink:href="#glyph1-14" x="390.890898" y="6.918"/>
  <use xlink:href="#glyph1-11" x="394.709563" y="6.918"/>
  <use xlink:href="#glyph1-3" x="399.137938" y="6.918"/>
  <use xlink:href="#glyph1-15" x="403.566314" y="6.918"/>
  <use xlink:href="#glyph1-8" x="408.71399" y="6.918"/>
  <use xlink:href="#glyph1-3" x="412.311484" y="6.918"/>
</g>
<g style="fill:rgb(0%,0%,0%);fill-opacity:1;">
  <use xlink:href="#glyph0-10" x="3.321" y="18.873"/>
  <use xlink:href="#glyph0-2" x="10.322715" y="18.873"/>
  <use xlink:href="#glyph0-11" x="15.4146" y="18.873"/>
  <use xlink:href="#glyph0-12" x="21.004615" y="18.873"/>
  <use xlink:href="#glyph0-2" x="26.59463" y="18.873"/>
  <use xlink:href="#glyph0-5" x="31.686515" y="18.873"/>
</g>
<g style="fill:rgb(0%,0%,0%);fill-opacity:1;">
  <use xlink:href="#glyph1-1" x="35.395" y="18.873"/>
</g>
<g style="fill:rgb(0%,0%,0%);fill-opacity:1;">
  <use xlink:href="#glyph1-12" x="43.14391" y="18.873"/>
  <use xlink:href="#glyph1-16" x="48.291586" y="18.873"/>
  <use xlink:href="#glyph1-4" x="53.439261" y="18.873"/>
  <use xlink:href="#glyph1-14" x="58.227287" y="18.873"/>
</g>
<g style="fill:rgb(0%,0%,0%);fill-opacity:1;">
  <use xlink:href="#glyph1-13" x="65.363497" y="18.873"/>
  <use xlink:href="#glyph1-4" x="69.957252" y="18.873"/>
</g>
<g style="fill:rgb(0%,0%,0%);fill-opacity:1;">
  <use xlink:href="#glyph1-9" x="74.466325" y="18.873"/>
  <use xlink:href="#glyph1-6" x="77.870545" y="18.873"/>
  <use xlink:href="#glyph1-17" x="80.25061" y="18.873"/>
  <use xlink:href="#glyph1-13" x="85.038636" y="18.873"/>
  <use xlink:href="#glyph1-3" x="89.632391" y="18.873"/>
  <use xlink:href="#glyph1-6" x="94.060766" y="18.873"/>
  <use xlink:href="#glyph1-14" x="96.440832" y="18.873"/>
</g>
<g style="fill:rgb(0%,0%,0%);fill-opacity:1;">
  <use xlink:href="#glyph1-21" x="103.587004" y="18.873"/>
</g>
<g style="fill:rgb(0%,0%,0%);fill-opacity:1;">
  <use xlink:href="#glyph1-10" x="109.00367" y="18.873"/>
</g>
<g style="fill:rgb(0%,0%,0%);fill-opacity:1;">
  <use xlink:href="#glyph1-9" x="113.71598" y="18.873"/>
</g>
<g style="fill:rgb(0%,0%,0%);fill-opacity:1;">
  <use xlink:href="#glyph1-9" x="120.437746" y="18.873"/>
  <use xlink:href="#glyph1-3" x="123.841967" y="18.873"/>
  <use xlink:href="#glyph1-22" x="128.270342" y="18.873"/>
  <use xlink:href="#glyph1-3" x="131.314913" y="18.873"/>
  <use xlink:href="#glyph1-9" x="135.743289" y="18.873"/>
  <use xlink:href="#glyph1-23" x="139.147509" y="18.873"/>
  <use xlink:href="#glyph1-15" x="143.575885" y="18.873"/>
  <use xlink:href="#glyph1-11" x="148.72356" y="18.873"/>
  <use xlink:href="#glyph1-6" x="153.151936" y="18.873"/>
  <use xlink:href="#glyph1-4" x="155.532001" y="18.873"/>
</g>
<g style="fill:rgb(0%,0%,0%);fill-opacity:1;">
  <use xlink:href="#glyph0-13" x="3.321" y="30.828"/>
  <use xlink:href="#glyph0-3" x="10.626575" y="30.828"/>
  <use xlink:href="#glyph0-3" x="14.827803" y="30.828"/>
  <use xlink:href="#glyph0-2" x="19.029031" y="30.828"/>
  <use xlink:href="#glyph0-14" x="24.120916" y="30.828"/>
  <use xlink:href="#glyph0-12" x="29.600346" y="30.828"/>
  <use xlink:href="#glyph0-5" x="35.190361" y="30.828"/>
  <use xlink:href="#glyph0-15" x="38.898441" y="30.828"/>
</g>
<g style="fill:rgb(0%,0%,0%);fill-opacity:1;">
  <use xlink:href="#glyph1-1" x="44.128" y="30.828"/>
</g>
<g style="fill:rgb(0%,0%,0%);fill-opacity:1;">
  <use xlink:href="#glyph1-24" x="51.87691" y="30.828"/>
  <use xlink:href="#glyph1-16" x="57.024586" y="30.828"/>
  <use xlink:href="#glyph1-3" x="62.172261" y="30.828"/>
</g>
<g style="fill:rgb(0%,0%,0%);fill-opacity:1;">
  <use xlink:href="#glyph1-21" x="69.918183" y="30.828"/>
</g>
<g style="fill:rgb(0%,0%,0%);fill-opacity:1;">
  <use xlink:href="#glyph1-9" x="74.786905" y="30.828"/>
  <use xlink:href="#glyph1-6" x="78.191126" y="30.828"/>
  <use xlink:href="#glyph1-18" x="80.571191" y="30.828"/>
  <use xlink:href="#glyph1-3" x="88.486476" y="30.828"/>
  <use xlink:href="#glyph1-6" x="92.914852" y="30.828"/>
  <use xlink:href="#glyph1-9" x="95.294917" y="30.828"/>
  <use xlink:href="#glyph1-4" x="98.699138" y="30.828"/>
</g>
<g style="fill:rgb(0%,0%,0%);fill-opacity:1;">
  <use xlink:href="#glyph1-13" x="106.814672" y="30.828"/>
  <use xlink:href="#glyph1-4" x="111.408427" y="30.828"/>
</g>
<g style="fill:rgb(0%,0%,0%);fill-opacity:1;">
  <use xlink:href="#glyph1-9" x="115.917499" y="30.828"/>
  <use xlink:href="#glyph1-6" x="119.32172" y="30.828"/>
  <use xlink:href="#glyph1-17" x="121.701785" y="30.828"/>
  <use xlink:href="#glyph1-13" x="126.48981" y="30.828"/>
  <use xlink:href="#glyph1-3" x="131.083565" y="30.828"/>
  <use xlink:href="#glyph1-5" x="135.511941" y="30.828"/>
</g>
<g style="fill:rgb(0%,0%,0%);fill-opacity:1;">
  <use xlink:href="#glyph1-8" x="141.209552" y="30.828"/>
  <use xlink:href="#glyph1-3" x="144.807047" y="30.828"/>
  <use xlink:href="#glyph1-15" x="149.235423" y="30.828"/>
  <use xlink:href="#glyph1-25" x="154.383098" y="30.828"/>
  <use xlink:href="#glyph1-4" x="159.530773" y="30.828"/>
</g>
<g style="fill:rgb(0%,0%,0%);fill-opacity:1;">
  <use xlink:href="#glyph1-10" x="167.636345" y="30.828"/>
</g>
<g style="fill:rgb(0%,0%,0%);fill-opacity:1;">
  <use xlink:href="#glyph1-13" x="175.935191" y="30.828"/>
  <use xlink:href="#glyph1-4" x="180.528945" y="30.828"/>
  <use xlink:href="#glyph1-5" x="185.316971" y="30.828"/>
  <use xlink:href="#glyph1-10" x="187.697036" y="30.828"/>
</g>
<g style="fill:rgb(0%,0%,0%);fill-opacity:1;">
  <use xlink:href="#glyph1-9" x="192.409346" y="30.828"/>
</g>
<g style="fill:rgb(0%,0%,0%);fill-opacity:1;">
  <use xlink:href="#glyph1-18" x="199.131112" y="30.828"/>
  <use xlink:href="#glyph1-26" x="207.046398" y="30.828"/>
  <use xlink:href="#glyph1-15" x="209.426463" y="30.828"/>
  <use xlink:href="#glyph1-6" x="214.574138" y="30.828"/>
  <use xlink:href="#glyph1-18" x="216.954204" y="30.828"/>
  <use xlink:href="#glyph1-10" x="224.869489" y="30.828"/>
</g>
<g style="fill:rgb(0%,0%,0%);fill-opacity:1;">
  <use xlink:href="#glyph1-3" x="233.168335" y="30.828"/>
</g>
<g style="fill:rgb(0%,0%,0%);fill-opacity:1;">
  <use xlink:href="#glyph1-4" x="240.914257" y="30.828"/>
</g>
<g style="fill:rgb(0%,0%,0%);fill-opacity:1;">
  <use xlink:href="#glyph1-14" x="249.02979" y="30.828"/>
  <use xlink:href="#glyph1-3" x="252.848455" y="30.828"/>
  <use xlink:href="#glyph1-27" x="257.276831" y="30.828"/>
  <use xlink:href="#glyph1-16" x="262.258131" y="30.828"/>
  <use xlink:href="#glyph1-15" x="267.405806" y="30.828"/>
  <use xlink:href="#glyph1-12" x="272.553482" y="30.828"/>
  <use xlink:href="#glyph1-4" x="277.701157" y="30.828"/>
  <use xlink:href="#glyph1-28" x="282.489183" y="30.828"/>
</g>
<g style="fill:rgb(0%,0%,0%);fill-opacity:1;">
  <use xlink:href="#glyph1-10" x="288.574339" y="30.828"/>
</g>
<g style="fill:rgb(0%,0%,0%);fill-opacity:1;">
  <use xlink:href="#glyph1-18" x="296.873184" y="30.828"/>
  <use xlink:href="#glyph1-17" x="304.78847" y="30.828"/>
  <use xlink:href="#glyph1-29" x="309.576496" y="30.828"/>
  <use xlink:href="#glyph1-6" x="314.170251" y="30.828"/>
  <use xlink:href="#glyph1-18" x="316.550316" y="30.828"/>
  <use xlink:href="#glyph1-10" x="324.465601" y="30.828"/>
</g>
<g style="fill:rgb(0%,0%,0%);fill-opacity:1;">
  <use xlink:href="#glyph0-16" x="20.257" y="54.739"/>
</g>
<g style="fill:rgb(0%,0%,0%);fill-opacity:1;">
  <use xlink:href="#glyph0-5" x="25.538174" y="54.739"/>
</g>
<g style="fill:rgb(0%,0%,0%);fill-opacity:1;">
  <use xlink:href="#glyph0-9" x="29.256217" y="54.739"/>
</g>
<g style="fill:rgb(0%,0%,0%);fill-opacity:1;">
  <use xlink:href="#glyph0-4" x="35.034525" y="54.739"/>
  <use xlink:href="#glyph0-2" x="39.90524" y="54.739"/>
  <use xlink:href="#glyph0-17" x="44.997125" y="54.739"/>
  <use xlink:href="#glyph0-6" x="50.587139" y="54.739"/>
  <use xlink:href="#glyph0-18" x="53.132584" y="54.739"/>
  <use xlink:href="#glyph0-2" x="61.767169" y="54.739"/>
  <use xlink:href="#glyph0-19" x="66.859054" y="54.739"/>
  <use xlink:href="#glyph0-20" x="72.449069" y="54.739"/>
  <use xlink:href="#glyph0-9" x="76.475952" y="54.739"/>
</g>
<g style="fill:rgb(0%,0%,0%);fill-opacity:1;">
  <use xlink:href="#glyph2-1" x="85.277" y="54.739"/>
  <use xlink:href="#glyph2-2" x="93.689419" y="54.739"/>
  <use xlink:href="#glyph2-3" x="99.688897" y="54.739"/>
  <use xlink:href="#glyph2-4" x="105.910541" y="54.739"/>
  <use xlink:href="#glyph2-5" x="111.467679" y="54.739"/>
  <use xlink:href="#glyph2-4" x="117.577742" y="54.739"/>
</g>
<g style="fill:rgb(0%,0%,0%);fill-opacity:1;">
  <use xlink:href="#glyph2-6" x="122.915703" y="54.739"/>
</g>
<g style="fill:rgb(0%,0%,0%);fill-opacity:1;">
  <use xlink:href="#glyph2-7" x="129.858639" y="54.739"/>
  <use xlink:href="#glyph2-8" x="135.968701" y="54.739"/>
  <use xlink:href="#glyph2-9" x="141.082504" y="54.739"/>
  <use xlink:href="#glyph2-2" x="147.414732" y="54.739"/>
  <use xlink:href="#glyph2-4" x="153.41421" y="54.739"/>
  <use xlink:href="#glyph2-10" x="158.971348" y="54.739"/>
</g>
<g style="fill:rgb(0%,0%,0%);fill-opacity:1;">
  <use xlink:href="#glyph1-30" x="163.536" y="54.739"/>
</g>
<g style="fill:rgb(0%,0%,0%);fill-opacity:1;">
  <use xlink:href="#glyph3-1" x="167.411" y="54.739"/>
</g>
<g style="fill:rgb(0%,0%,0%);fill-opacity:1;">
  <use xlink:href="#glyph4-1" x="172.24" y="56.233"/>
</g>
<g style="fill:rgb(0%,0%,0%);fill-opacity:1;">
  <use xlink:href="#glyph1-1" x="176.709" y="54.739"/>
</g>
<g style="fill:rgb(0%,0%,0%);fill-opacity:1;">
  <use xlink:href="#glyph2-2" x="179.477" y="54.739"/>
  <use xlink:href="#glyph2-4" x="185.476478" y="54.739"/>
  <use xlink:href="#glyph2-11" x="191.033616" y="54.739"/>
</g>
<g style="fill:rgb(0%,0%,0%);fill-opacity:1;">
  <use xlink:href="#glyph1-28" x="196.369" y="54.739"/>
</g>
<g style="fill:rgb(0%,0%,0%);fill-opacity:1;">
  <use xlink:href="#glyph3-1" x="202.457" y="54.739"/>
</g>
<g style="fill:rgb(0%,0%,0%);fill-opacity:1;">
  <use xlink:href="#glyph4-2" x="207.286" y="56.233"/>
</g>
<g style="fill:rgb(0%,0%,0%);fill-opacity:1;">
  <use xlink:href="#glyph1-1" x="211.755" y="54.739"/>
</g>
<g style="fill:rgb(0%,0%,0%);fill-opacity:1;">
  <use xlink:href="#glyph2-2" x="214.523" y="54.739"/>
  <use xlink:href="#glyph2-4" x="220.522478" y="54.739"/>
  <use xlink:href="#glyph2-11" x="226.079616" y="54.739"/>
</g>
<g style="fill:rgb(0%,0%,0%);fill-opacity:1;">
  <use xlink:href="#glyph1-31" x="231.415" y="54.739"/>
</g>
<g style="fill:rgb(0%,0%,0%);fill-opacity:1;">
  <use xlink:href="#glyph0-3" x="35.201" y="66.694"/>
  <use xlink:href="#glyph0-2" x="39.402228" y="66.694"/>
</g>
<g style="fill:rgb(0%,0%,0%);fill-opacity:1;">
  <use xlink:href="#glyph3-1" x="47.815" y="66.694"/>
</g>
<g style="fill:rgb(0%,0%,0%);fill-opacity:1;">
  <use xlink:href="#glyph4-2" x="52.644" y="68.188"/>
</g>
<g style="fill:rgb(0%,0%,0%);fill-opacity:1;">
  <use xlink:href="#glyph3-2" x="59.881" y="66.694"/>
</g>
<g style="fill:rgb(0%,0%,0%);fill-opacity:1;">
  <use xlink:href="#glyph3-1" x="70.399513" y="66.694"/>
</g>
<g style="fill:rgb(0%,0%,0%);fill-opacity:1;">
  <use xlink:href="#glyph4-1" x="75.226" y="68.188"/>
</g>
<g style="fill:rgb(0%,0%,0%);fill-opacity:1;">
  <use xlink:href="#glyph0-2" x="83.016" y="66.694"/>
  <use xlink:href="#glyph0-19" x="88.107885" y="66.694"/>
  <use xlink:href="#glyph0-20" x="93.6979" y="66.694"/>
  <use xlink:href="#glyph0-8" x="97.724783" y="66.694"/>
  <use xlink:href="#glyph0-9" x="102.955148" y="66.694"/>
</g>
<g style="fill:rgb(0%,0%,0%);fill-opacity:1;">
  <use xlink:href="#glyph2-12" x="50.145" y="78.649"/>
  <use xlink:href="#glyph2-2" x="57.9766" y="78.649"/>
</g>
<g style="fill:rgb(0%,0%,0%);fill-opacity:1;">
  <use xlink:href="#glyph2-9" x="63.7569" y="78.649"/>
  <use xlink:href="#glyph2-13" x="70.089129" y="78.649"/>
  <use xlink:href="#glyph2-14" x="76.421358" y="78.649"/>
  <use xlink:href="#glyph2-4" x="82.53142" y="78.649"/>
</g>
<g style="fill:rgb(0%,0%,0%);fill-opacity:1;">
  <use xlink:href="#glyph2-6" x="87.869381" y="78.649"/>
</g>
<g style="fill:rgb(0%,0%,0%);fill-opacity:1;">
  <use xlink:href="#glyph2-7" x="94.812317" y="78.649"/>
  <use xlink:href="#glyph2-8" x="100.92238" y="78.649"/>
  <use xlink:href="#glyph2-9" x="106.036182" y="78.649"/>
  <use xlink:href="#glyph2-2" x="112.368411" y="78.649"/>
  <use xlink:href="#glyph2-4" x="118.367889" y="78.649"/>
  <use xlink:href="#glyph2-10" x="123.925027" y="78.649"/>
</g>
<g style="fill:rgb(0%,0%,0%);fill-opacity:1;">
  <use xlink:href="#glyph1-30" x="128.488" y="78.649"/>
</g>
<g style="fill:rgb(0%,0%,0%);fill-opacity:1;">
  <use xlink:href="#glyph3-1" x="132.362" y="78.649"/>
</g>
<g style="fill:rgb(0%,0%,0%);fill-opacity:1;">
  <use xlink:href="#glyph4-1" x="137.191" y="80.143"/>
</g>
<g style="fill:rgb(0%,0%,0%);fill-opacity:1;">
  <use xlink:href="#glyph1-28" x="141.66" y="78.649"/>
</g>
<g style="fill:rgb(0%,0%,0%);fill-opacity:1;">
  <use xlink:href="#glyph3-1" x="147.749" y="78.649"/>
</g>
<g style="fill:rgb(0%,0%,0%);fill-opacity:1;">
  <use xlink:href="#glyph4-2" x="152.578" y="80.143"/>
</g>
<g style="fill:rgb(0%,0%,0%);fill-opacity:1;">
  <use xlink:href="#glyph1-31" x="157.047" y="78.649"/>
</g>
<g style="fill:rgb(0%,0%,0%);fill-opacity:1;">
  <use xlink:href="#glyph0-21" x="35.201" y="90.604"/>
  <use xlink:href="#glyph0-18" x="41.04008" y="90.604"/>
</g>
<g style="fill:rgb(0%,0%,0%);fill-opacity:1;">
  <use xlink:href="#glyph0-3" x="53.330939" y="90.604"/>
  <use xlink:href="#glyph0-2" x="57.532168" y="90.604"/>
</g>
<g style="fill:rgb(0%,0%,0%);fill-opacity:1;">
  <use xlink:href="#glyph0-21" x="20.257" y="102.559"/>
  <use xlink:href="#glyph0-18" x="26.09608" y="102.559"/>
</g>
<g style="fill:rgb(0%,0%,0%);fill-opacity:1;">
  <use xlink:href="#glyph0-16" x="38.386939" y="102.559"/>
</g>
<g style="fill:rgb(0%,0%,0%);fill-opacity:1;">
  <use xlink:href="#glyph0-5" x="43.668114" y="102.559"/>
  <use xlink:href="#glyph0-9" x="47.376193" y="102.559"/>
</g>
<g style="fill:rgb(0%,0%,0%);fill-opacity:1;">
  <use xlink:href="#glyph0-4" x="53.164464" y="102.559"/>
  <use xlink:href="#glyph0-2" x="58.035179" y="102.559"/>
  <use xlink:href="#glyph0-17" x="63.127064" y="102.559"/>
  <use xlink:href="#glyph0-6" x="68.717079" y="102.559"/>
  <use xlink:href="#glyph0-18" x="71.262523" y="102.559"/>
  <use xlink:href="#glyph0-2" x="79.897109" y="102.559"/>
  <use xlink:href="#glyph0-19" x="84.988994" y="102.559"/>
  <use xlink:href="#glyph0-20" x="90.579008" y="102.559"/>
  <use xlink:href="#glyph0-9" x="94.605891" y="102.559"/>
</g>
</g>
</svg>
