<?xml version="1.0" encoding="UTF-8"?>
<svg xmlns="http://www.w3.org/2000/svg" xmlns:xlink="http://www.w3.org/1999/xlink" width="428.518pt" height="118.102pt" viewBox="0 0 428.518 118.102" version="1.1">
<defs>
<g>
<symbol overflow="visible" id="glyph0-0">
<path style="stroke:none;" d=""/>
</symbol>
<symbol overflow="visible" id="glyph0-1">
<path style="stroke:none;" d="M 7.296875 -3.40625 C 7.296875 -4.203125 7.171875 -5.15625 6.609375 -5.875 C 5.859375 -6.796875 4.671875 -6.921875 4.015625 -6.921875 L 1.390625 -6.921875 C 1.03125 -6.921875 0.90625 -6.8125 0.90625 -6.4375 L 0.90625 -0.484375 C 0.90625 -0.125 1.015625 0 1.390625 0 L 4.015625 0 C 6.453125 0 7.296875 -1.453125 7.296875 -3.40625 Z M 5.859375 -3.40625 C 5.859375 -2.28125 5.75 -0.859375 3.625 -0.859375 L 2.34375 -0.859375 L 2.34375 -6.0625 L 3.625 -6.0625 C 5.765625 -6.0625 5.859375 -4.53125 5.859375 -3.40625 Z M 5.859375 -3.40625 "/>
</symbol>
<symbol overflow="visible" id="glyph0-2">
<path style="stroke:none;" d="M 4.78125 -2.59375 C 4.78125 -3.875 4.171875 -4.734375 2.6875 -4.734375 C 1.09375 -4.734375 0.3125 -3.84375 0.3125 -2.328125 C 0.3125 -0.6875 1.25 0.109375 2.828125 0.109375 C 3.203125 0.109375 3.765625 0.0625 4.421875 -0.265625 C 4.640625 -0.375 4.71875 -0.40625 4.71875 -0.53125 C 4.71875 -0.59375 4.6875 -0.890625 4.671875 -0.96875 C 4.640625 -1.28125 4.625 -1.28125 4.53125 -1.28125 C 4.5 -1.28125 4.46875 -1.28125 4.359375 -1.1875 C 3.78125 -0.671875 3.1875 -0.609375 2.859375 -0.609375 C 1.734375 -0.609375 1.609375 -1.5 1.578125 -2.140625 L 4.296875 -2.140625 C 4.53125 -2.140625 4.78125 -2.140625 4.78125 -2.59375 Z M 3.671875 -2.65625 L 1.59375 -2.65625 C 1.625 -3.265625 1.828125 -4.015625 2.6875 -4.015625 C 3.484375 -4.015625 3.640625 -3.4375 3.671875 -2.65625 Z M 3.671875 -2.65625 "/>
</symbol>
<symbol overflow="visible" id="glyph0-3">
<path style="stroke:none;" d="M 3.953125 -1.40625 C 3.953125 -1.96875 3.65625 -2.3125 3.46875 -2.46875 C 3.078125 -2.828125 2.71875 -2.890625 2.296875 -2.96875 C 1.75 -3.078125 1.359375 -3.15625 1.359375 -3.53125 C 1.359375 -3.953125 1.6875 -4.03125 2.078125 -4.03125 C 2.734375 -4.03125 3.09375 -3.78125 3.359375 -3.5625 C 3.453125 -3.453125 3.484375 -3.453125 3.515625 -3.453125 C 3.625 -3.453125 3.640625 -3.546875 3.65625 -3.59375 C 3.671875 -3.671875 3.765625 -4.234375 3.765625 -4.28125 C 3.765625 -4.4375 3.234375 -4.578125 3.125 -4.609375 C 2.734375 -4.71875 2.40625 -4.734375 2.15625 -4.734375 C 1.703125 -4.734375 0.375 -4.734375 0.375 -3.3125 C 0.375 -2.828125 0.59375 -2.515625 0.859375 -2.28125 C 1.203125 -1.96875 1.59375 -1.890625 2.15625 -1.78125 C 2.453125 -1.734375 2.953125 -1.640625 2.953125 -1.203125 C 2.953125 -0.734375 2.578125 -0.671875 2.1875 -0.671875 C 1.75 -0.671875 1.1875 -0.796875 0.71875 -1.359375 C 0.671875 -1.40625 0.640625 -1.4375 0.578125 -1.4375 C 0.484375 -1.4375 0.453125 -1.34375 0.453125 -1.28125 C 0.421875 -1.140625 0.3125 -0.578125 0.3125 -0.484375 C 0.3125 -0.296875 1.0625 -0.0625 1.0625 -0.0625 C 1.609375 0.109375 2.015625 0.109375 2.1875 0.109375 C 2.6875 0.109375 3.953125 0.0625 3.953125 -1.40625 Z M 3.953125 -1.40625 "/>
</symbol>
<symbol overflow="visible" id="glyph0-4">
<path style="stroke:none;" d="M 4.5625 -0.5 C 4.5625 -0.609375 4.515625 -1.0625 4.5 -1.203125 C 4.5 -1.21875 4.46875 -1.328125 4.375 -1.328125 C 4.34375 -1.328125 4.3125 -1.328125 4.21875 -1.21875 C 4.046875 -1.078125 3.578125 -0.671875 2.765625 -0.671875 C 1.71875 -0.671875 1.71875 -1.671875 1.71875 -2.3125 C 1.71875 -3.125 1.78125 -3.953125 2.796875 -3.953125 C 3.4375 -3.953125 3.703125 -3.796875 4.0625 -3.5 C 4.1875 -3.390625 4.203125 -3.390625 4.25 -3.390625 C 4.34375 -3.390625 4.359375 -3.484375 4.375 -3.515625 C 4.390625 -3.59375 4.5 -4.15625 4.5 -4.203125 C 4.5 -4.296875 4.421875 -4.34375 4.25 -4.421875 C 3.78125 -4.640625 3.484375 -4.734375 2.78125 -4.734375 C 1.296875 -4.734375 0.375 -4.03125 0.375 -2.296875 C 0.375 -0.640625 1.21875 0.109375 2.734375 0.109375 C 3 0.109375 3.59375 0.09375 4.265625 -0.234375 C 4.546875 -0.390625 4.5625 -0.40625 4.5625 -0.5 Z M 4.5625 -0.5 "/>
</symbol>
<symbol overflow="visible" id="glyph0-5">
<path style="stroke:none;" d="M 3.546875 -3.9375 L 3.546875 -4.40625 C 3.546875 -4.609375 3.546875 -4.671875 3.375 -4.671875 C 3.09375 -4.671875 2.359375 -4.578125 1.890625 -3.5 L 1.890625 -4.140625 C 1.890625 -4.46875 1.8125 -4.625 1.40625 -4.625 L 1.09375 -4.625 C 0.734375 -4.625 0.609375 -4.515625 0.609375 -4.140625 L 0.609375 -0.484375 C 0.609375 -0.125 0.71875 0 1.09375 0 L 1.453125 0 C 1.828125 0 1.9375 -0.125 1.9375 -0.484375 L 1.9375 -2.296875 C 1.9375 -3.234375 2.71875 -3.625 3.34375 -3.671875 C 3.53125 -3.671875 3.546875 -3.671875 3.546875 -3.9375 Z M 3.546875 -3.9375 "/>
</symbol>
<symbol overflow="visible" id="glyph0-6">
<path style="stroke:none;" d="M 1.9375 -0.484375 L 1.9375 -4.09375 C 1.9375 -4.40625 1.859375 -4.5625 1.453125 -4.5625 L 1.09375 -4.5625 C 0.734375 -4.5625 0.609375 -4.453125 0.609375 -4.09375 L 0.609375 -0.484375 C 0.609375 -0.125 0.71875 0 1.09375 0 L 1.453125 0 C 1.828125 0 1.9375 -0.125 1.9375 -0.484375 Z M 2 -6.046875 L 2 -6.234375 C 2 -6.546875 1.9375 -6.703125 1.53125 -6.703125 L 1.015625 -6.703125 C 0.640625 -6.703125 0.53125 -6.578125 0.53125 -6.234375 L 0.53125 -6.046875 C 0.53125 -5.75 0.59375 -5.5625 1.015625 -5.5625 L 1.53125 -5.5625 C 1.9375 -5.5625 2 -5.734375 2 -6.046875 Z M 2 -6.046875 "/>
</symbol>
<symbol overflow="visible" id="glyph0-7">
<path style="stroke:none;" d="M 4.5625 -0.5 C 4.5625 -0.609375 4.515625 -1.0625 4.5 -1.203125 C 4.5 -1.21875 4.46875 -1.328125 4.375 -1.328125 C 4.34375 -1.328125 4.3125 -1.328125 4.21875 -1.21875 C 4.046875 -1.078125 3.578125 -0.671875 2.765625 -0.671875 C 1.71875 -0.671875 1.71875 -1.671875 1.71875 -2.3125 C 1.71875 -3.125 1.78125 -3.953125 2.796875 -3.953125 C 3.4375 -3.953125 3.703125 -3.796875 4.0625 -3.5 C 4.1875 -3.390625 4.203125 -3.390625 4.25 -3.390625 C 4.34375 -3.390625 4.359375 -3.484375 4.375 -3.515625 C 4.390625 -3.59375 4.5 -4.15625 4.5 -4.203125 C 4.5 -4.296875 4.421875 -4.34375 4.25 -4.421875 C 3.78125 -4.640625 3.484375 -4.734375 2.78125 -4.734375 C 1.296875 -4.734375 0.375 -4.03125 0.375 -2.296875 C 0.375 -0.640625 1.21875 0.109375 2.734375 0.109375 C 3 0.109375 3.59375 0.09375 4.265625 -0.234375 C 4.546875 -0.390625 4.5625 -0.40625 4.5625 -0.5 Z M 3.3125 0.59375 C 3.3125 0.453125 3.203125 0.453125 3.046875 0.453125 L 2.875 0.453125 C 2.65625 0.453125 2.65625 0.46875 2.515625 0.671875 C 2.40625 0.84375 1.6875 1.9375 1.6875 2 C 1.6875 2.140625 1.78125 2.140625 1.9375 2.140625 L 2.4375 2.140625 C 2.65625 2.140625 2.671875 2.140625 2.75 1.953125 L 3.265625 0.75 C 3.3125 0.625 3.3125 0.59375 3.3125 0.59375 Z M 3.3125 0.59375 "/>
</symbol>
<symbol overflow="visible" id="glyph0-8">
<path style="stroke:none;" d="M 4.71875 -0.484375 L 4.71875 -3.15625 C 4.71875 -4.71875 3.203125 -4.734375 2.71875 -4.734375 C 2.25 -4.734375 1.75 -4.6875 1.078125 -4.421875 C 0.875 -4.328125 0.8125 -4.296875 0.8125 -4.1875 C 0.8125 -4.109375 0.875 -3.53125 0.890625 -3.453125 C 0.890625 -3.40625 0.953125 -3.34375 1.015625 -3.34375 C 1.0625 -3.34375 1.09375 -3.375 1.125 -3.40625 C 1.5625 -3.859375 2.046875 -4.078125 2.671875 -4.078125 C 3.203125 -4.078125 3.375 -3.75 3.375 -3.15625 L 3.375 -2.8125 C 3.015625 -2.8125 0.40625 -2.796875 0.40625 -1.328125 C 0.40625 -0.625 0.96875 0.109375 1.84375 0.109375 C 2.1875 0.109375 2.9375 0.015625 3.40625 -0.671875 L 3.40625 -0.484375 C 3.40625 -0.15625 3.46875 0 3.875 0 L 4.25 0 C 4.625 0 4.71875 -0.125 4.71875 -0.484375 Z M 3.375 -1.53125 C 3.375 -0.609375 2.421875 -0.609375 2.390625 -0.609375 C 1.96875 -0.609375 1.703125 -0.96875 1.703125 -1.34375 C 1.703125 -2.328125 3.09375 -2.390625 3.375 -2.40625 Z M 4.453125 -6.625 C 4.453125 -6.78125 4.375 -6.78125 4.171875 -6.78125 L 4 -6.78125 C 3.796875 -6.78125 3.75 -6.78125 3.734375 -6.640625 C 3.6875 -6.25 3.453125 -6.203125 3.34375 -6.203125 C 3.1875 -6.203125 3.03125 -6.3125 2.875 -6.421875 C 2.65625 -6.5625 2.359375 -6.78125 1.90625 -6.78125 C 1.203125 -6.78125 0.8125 -6.140625 0.8125 -5.65625 C 0.8125 -5.484375 0.890625 -5.484375 1.078125 -5.484375 L 1.25 -5.484375 C 1.453125 -5.484375 1.5 -5.484375 1.53125 -5.625 C 1.5625 -6.015625 1.796875 -6.078125 1.90625 -6.078125 C 2.0625 -6.078125 2.21875 -5.96875 2.375 -5.859375 C 2.59375 -5.703125 2.90625 -5.484375 3.34375 -5.484375 C 4.0625 -5.484375 4.453125 -6.125 4.453125 -6.625 Z M 4.453125 -6.625 "/>
</symbol>
<symbol overflow="visible" id="glyph0-9">
<path style="stroke:none;" d="M 5.15625 -2.25 C 5.15625 -3.875 4.359375 -4.734375 2.734375 -4.734375 C 1.078125 -4.734375 0.3125 -3.84375 0.3125 -2.25 C 0.3125 -0.625 1.171875 0.109375 2.734375 0.109375 C 4.296875 0.109375 5.15625 -0.609375 5.15625 -2.25 Z M 3.8125 -2.359375 C 3.8125 -1.578125 3.8125 -0.671875 2.734375 -0.671875 C 1.671875 -0.671875 1.671875 -1.5625 1.671875 -2.359375 C 1.671875 -3.125 1.671875 -4.015625 2.734375 -4.015625 C 3.8125 -4.015625 3.8125 -3.140625 3.8125 -2.359375 Z M 3.8125 -2.359375 "/>
</symbol>
<symbol overflow="visible" id="glyph0-10">
<path style="stroke:none;" d="M 6.515625 -0.296875 L 4.8125 -3.1875 C 5.4375 -3.34375 6.390625 -3.71875 6.390625 -4.953125 C 6.390625 -6.921875 4.234375 -6.921875 3.78125 -6.921875 L 1.390625 -6.921875 C 1.03125 -6.921875 0.90625 -6.8125 0.90625 -6.4375 L 0.90625 -0.484375 C 0.90625 -0.125 1.015625 0 1.390625 0 L 1.859375 0 C 2.25 0 2.34375 -0.125 2.34375 -0.484375 L 2.34375 -3.09375 L 3.453125 -3.09375 L 5.078125 -0.234375 C 5.21875 0 5.328125 0 5.546875 0 L 6.140625 0 C 6.34375 0 6.515625 0 6.515625 -0.296875 Z M 5 -4.9375 C 5 -4.359375 4.859375 -3.8125 3.640625 -3.8125 L 2.34375 -3.8125 L 2.34375 -6.0625 L 3.640625 -6.0625 C 4.796875 -6.0625 5 -5.609375 5 -4.9375 Z M 5 -4.9375 "/>
</symbol>
<symbol overflow="visible" id="glyph0-11">
<path style="stroke:none;" d="M 4.96875 1.453125 L 4.96875 -4.203125 C 4.96875 -4.515625 4.90625 -4.671875 4.5 -4.671875 L 4.125 -4.671875 C 3.75 -4.671875 3.65625 -4.546875 3.65625 -4.203125 L 3.65625 -4 C 3.203125 -4.671875 2.625 -4.671875 2.453125 -4.671875 C 0.53125 -4.671875 0.375 -3.078125 0.375 -2.265625 C 0.375 -1.5 0.53125 0.109375 2.375 0.109375 C 2.90625 0.109375 3.28125 -0.09375 3.625 -0.484375 L 3.625 1.453125 C 3.625 1.78125 3.6875 1.9375 4.09375 1.9375 L 4.5 1.9375 C 4.875 1.9375 4.96875 1.796875 4.96875 1.453125 Z M 3.65625 -1.140625 C 3.46875 -0.890625 3.203125 -0.609375 2.734375 -0.609375 C 1.71875 -0.609375 1.71875 -1.875 1.71875 -2.265625 C 1.71875 -2.65625 1.71875 -3.890625 2.84375 -3.890625 C 3 -3.890625 3.203125 -3.859375 3.390625 -3.671875 C 3.65625 -3.421875 3.65625 -3.234375 3.65625 -3.125 Z M 3.65625 -1.140625 "/>
</symbol>
<symbol overflow="visible" id="glyph0-12">
<path style="stroke:none;" d="M 4.984375 -0.484375 L 4.984375 -4.09375 C 4.984375 -4.40625 4.921875 -4.5625 4.5 -4.5625 L 4.109375 -4.5625 C 3.734375 -4.5625 3.625 -4.4375 3.625 -4.09375 L 3.625 -1.71875 C 3.625 -1.0625 3.28125 -0.5 2.578125 -0.5 C 2.015625 -0.5 1.953125 -0.640625 1.953125 -1.171875 L 1.953125 -4.09375 C 1.953125 -4.40625 1.890625 -4.5625 1.46875 -4.5625 L 1.078125 -4.5625 C 0.71875 -4.5625 0.59375 -4.453125 0.59375 -4.09375 L 0.59375 -1.25 C 0.59375 -0.1875 1.171875 0.109375 2.21875 0.109375 C 2.484375 0.109375 3.1875 0.109375 3.65625 -0.734375 L 3.65625 -0.484375 C 3.65625 -0.15625 3.734375 0 4.140625 0 L 4.5 0 C 4.890625 0 4.984375 -0.125 4.984375 -0.484375 Z M 4.984375 -0.484375 "/>
</symbol>
<symbol overflow="visible" id="glyph0-13">
<path style="stroke:none;" d="M 6.875 -0.265625 C 6.875 -0.3125 6.875 -0.34375 6.828125 -0.46875 L 4.71875 -6.484375 C 4.578125 -6.921875 4.28125 -6.921875 4.09375 -6.921875 L 3.203125 -6.921875 C 3.015625 -6.921875 2.71875 -6.921875 2.578125 -6.484375 L 0.46875 -0.46875 C 0.421875 -0.34375 0.421875 -0.3125 0.421875 -0.265625 C 0.421875 0 0.671875 0 0.8125 0 L 1.171875 0 C 1.34375 0 1.65625 0 1.796875 -0.40625 L 2.1875 -1.5 L 4.9375 -1.5 L 5.28125 -0.546875 C 5.40625 -0.203125 5.46875 0 5.953125 0 L 6.484375 0 C 6.625 0 6.875 0 6.875 -0.265625 Z M 4.640625 -2.359375 L 2.484375 -2.359375 L 3.203125 -4.46875 C 3.34375 -4.921875 3.484375 -5.296875 3.5625 -5.65625 C 3.625 -5.40625 3.625 -5.390625 3.703125 -5.15625 Z M 4.640625 -2.359375 "/>
</symbol>
<symbol overflow="visible" id="glyph0-14">
<path style="stroke:none;" d="M 5.328125 -4.03125 C 5.328125 -4.078125 5.28125 -4.3125 5.25 -4.421875 C 5.21875 -4.65625 5.21875 -4.671875 5.03125 -4.671875 C 4.71875 -4.671875 4.234375 -4.5625 3.84375 -4.328125 C 3.375 -4.640625 2.859375 -4.671875 2.4375 -4.671875 C 2.015625 -4.671875 0.421875 -4.671875 0.421875 -3.03125 C 0.421875 -2.625 0.53125 -2.140625 0.921875 -1.796875 C 0.640625 -1.4375 0.640625 -1.046875 0.640625 -1 C 0.640625 -0.8125 0.703125 -0.484375 0.921875 -0.203125 C 0.765625 -0.15625 0.25 0.03125 0.25 0.671875 C 0.25 0.984375 0.40625 1.5 1.03125 1.78125 C 1.59375 2.046875 2.265625 2.046875 2.734375 2.046875 C 3.3125 2.046875 5.21875 2.046875 5.21875 0.640625 C 5.21875 -0.921875 3.8125 -0.921875 2.46875 -0.921875 L 2 -0.921875 C 1.640625 -0.921875 1.5 -0.921875 1.359375 -1.03125 C 1.3125 -1.078125 1.140625 -1.21875 1.140625 -1.484375 C 1.140625 -1.5625 1.15625 -1.578125 1.171875 -1.640625 C 1.640625 -1.375 2.21875 -1.375 2.4375 -1.375 C 2.84375 -1.375 4.4375 -1.375 4.4375 -3.015625 C 4.4375 -3.59375 4.21875 -3.953125 4.125 -4.0625 C 4.296875 -4.0625 4.640625 -4.0625 5.046875 -3.953125 C 5.09375 -3.921875 5.15625 -3.90625 5.1875 -3.90625 C 5.28125 -3.90625 5.328125 -3.96875 5.328125 -4.03125 Z M 3.15625 -3.03125 C 3.15625 -2.484375 3.125 -2.09375 2.4375 -2.09375 C 1.734375 -2.09375 1.703125 -2.46875 1.703125 -3.015625 C 1.703125 -3.5625 1.734375 -3.953125 2.4375 -3.953125 C 3.125 -3.953125 3.15625 -3.578125 3.15625 -3.03125 Z M 4.203125 0.671875 C 4.203125 1.328125 3.0625 1.328125 2.734375 1.328125 C 2.34375 1.328125 1.28125 1.328125 1.28125 0.640625 C 1.28125 0.171875 1.578125 0.171875 1.8125 0.171875 L 2.96875 0.171875 C 3.78125 0.171875 4.203125 0.3125 4.203125 0.671875 Z M 4.203125 0.671875 "/>
</symbol>
<symbol overflow="visible" id="glyph0-15">
<path style="stroke:none;" d="M 4.71875 -0.484375 L 4.71875 -3.15625 C 4.71875 -4.71875 3.203125 -4.734375 2.71875 -4.734375 C 2.25 -4.734375 1.75 -4.6875 1.078125 -4.421875 C 0.875 -4.328125 0.8125 -4.296875 0.8125 -4.1875 C 0.8125 -4.109375 0.875 -3.53125 0.890625 -3.453125 C 0.890625 -3.40625 0.953125 -3.34375 1.015625 -3.34375 C 1.0625 -3.34375 1.09375 -3.375 1.125 -3.40625 C 1.5625 -3.859375 2.046875 -4.078125 2.671875 -4.078125 C 3.203125 -4.078125 3.375 -3.75 3.375 -3.15625 L 3.375 -2.8125 C 3.015625 -2.8125 0.40625 -2.796875 0.40625 -1.328125 C 0.40625 -0.625 0.96875 0.109375 1.84375 0.109375 C 2.1875 0.109375 2.9375 0.015625 3.40625 -0.671875 L 3.40625 -0.484375 C 3.40625 -0.15625 3.46875 0 3.875 0 L 4.25 0 C 4.625 0 4.71875 -0.125 4.71875 -0.484375 Z M 3.375 -1.53125 C 3.375 -0.609375 2.421875 -0.609375 2.390625 -0.609375 C 1.96875 -0.609375 1.703125 -0.96875 1.703125 -1.34375 C 1.703125 -2.328125 3.09375 -2.390625 3.375 -2.40625 Z M 3.375 -1.53125 "/>
</symbol>
<symbol overflow="visible" id="glyph1-0">
<path style="stroke:none;" d=""/>
</symbol>
<symbol overflow="visible" id="glyph1-1">
<path style="stroke:none;" d="M 1.796875 -3.59375 L 1.796875 -4.421875 L 0.96875 -4.421875 L 0.96875 -3.59375 Z M 1.796875 0 L 1.796875 -0.828125 L 0.96875 -0.828125 L 0.96875 0 Z M 1.796875 0 "/>
</symbol>
<symbol overflow="visible" id="glyph1-2">
<path style="stroke:none;" d="M 5.515625 0 L 5.515625 -0.703125 L 4.265625 -0.703125 C 4.140625 -0.703125 4.03125 -0.703125 3.90625 -0.703125 L 1.828125 -0.703125 L 1.828125 -3.28125 L 5.109375 -3.28125 L 5.109375 -3.890625 L 1.828125 -3.890625 L 1.828125 -6.25 L 3.203125 -6.25 C 3.3125 -6.25 3.4375 -6.234375 3.5625 -6.234375 L 5.390625 -6.234375 L 5.390625 -6.890625 L 0.9375 -6.890625 L 0.9375 0 Z M 5.515625 0 "/>
</symbol>
<symbol overflow="visible" id="glyph1-3">
<path style="stroke:none;" d="M 3.59375 -1.28125 C 3.59375 -1.828125 3.21875 -2.15625 3.203125 -2.1875 C 2.8125 -2.546875 2.546875 -2.609375 2.046875 -2.6875 C 1.5 -2.796875 1.03125 -2.90625 1.03125 -3.390625 C 1.03125 -4 1.75 -4 1.890625 -4 C 2.203125 -4 2.734375 -3.96875 3.296875 -3.625 L 3.421875 -4.28125 C 2.90625 -4.515625 2.5 -4.59375 1.984375 -4.59375 C 1.734375 -4.59375 0.328125 -4.59375 0.328125 -3.296875 C 0.328125 -2.796875 0.625 -2.484375 0.875 -2.296875 C 1.171875 -2.078125 1.390625 -2.03125 1.9375 -1.921875 C 2.296875 -1.859375 2.875 -1.734375 2.875 -1.203125 C 2.875 -0.515625 2.09375 -0.515625 1.9375 -0.515625 C 1.140625 -0.515625 0.578125 -0.890625 0.40625 -1 L 0.28125 -0.328125 C 0.59375 -0.171875 1.140625 0.109375 1.953125 0.109375 C 2.140625 0.109375 2.6875 0.109375 3.109375 -0.203125 C 3.421875 -0.453125 3.59375 -0.84375 3.59375 -1.28125 Z M 3.59375 -1.28125 "/>
</symbol>
<symbol overflow="visible" id="glyph1-4">
<path style="stroke:none;" d="M 3.3125 -0.265625 L 3.15625 -0.859375 C 2.890625 -0.640625 2.578125 -0.53125 2.25 -0.53125 C 1.890625 -0.53125 1.75 -0.828125 1.75 -1.359375 L 1.75 -3.84375 L 3.15625 -3.84375 L 3.15625 -4.421875 L 1.75 -4.421875 L 1.75 -5.6875 L 1.0625 -5.6875 L 1.0625 -4.421875 L 0.1875 -4.421875 L 0.1875 -3.84375 L 1.03125 -3.84375 L 1.03125 -1.1875 C 1.03125 -0.59375 1.171875 0.109375 1.859375 0.109375 C 2.546875 0.109375 3.0625 -0.140625 3.3125 -0.265625 Z M 3.3125 -0.265625 "/>
</symbol>
<symbol overflow="visible" id="glyph1-5">
<path style="stroke:none;" d="M 1.5625 0 L 1.5625 -4.421875 L 0.8125 -4.421875 L 0.8125 0 Z M 1.640625 -5.640625 L 1.640625 -6.53125 L 0.75 -6.53125 L 0.75 -5.640625 Z M 1.640625 -5.640625 "/>
</symbol>
<symbol overflow="visible" id="glyph1-6">
<path style="stroke:none;" d="M 7.109375 0 L 7.109375 -2.96875 C 7.109375 -3.640625 6.953125 -4.53125 5.734375 -4.53125 C 5.140625 -4.53125 4.625 -4.25 4.25 -3.71875 C 4 -4.46875 3.296875 -4.53125 2.984375 -4.53125 C 2.265625 -4.53125 1.796875 -4.125 1.53125 -3.765625 L 1.53125 -4.484375 L 0.8125 -4.484375 L 0.8125 0 L 1.578125 0 L 1.578125 -2.4375 C 1.578125 -3.125 1.859375 -3.921875 2.59375 -3.921875 C 3.515625 -3.921875 3.5625 -3.28125 3.5625 -2.90625 L 3.5625 0 L 4.34375 0 L 4.34375 -2.4375 C 4.34375 -3.125 4.609375 -3.921875 5.359375 -3.921875 C 6.28125 -3.921875 6.328125 -3.28125 6.328125 -2.90625 L 6.328125 0 Z M 7.109375 0 "/>
</symbol>
<symbol overflow="visible" id="glyph1-7">
<path style="stroke:none;" d="M 4.078125 0 L 4.078125 -2.875 C 4.078125 -3.890625 3.34375 -4.59375 2.4375 -4.59375 C 1.78125 -4.59375 1.328125 -4.4375 0.875 -4.171875 L 0.921875 -3.515625 C 1.453125 -3.875 1.9375 -4 2.4375 -4 C 2.90625 -4 3.296875 -3.609375 3.296875 -2.875 L 3.296875 -2.4375 C 1.796875 -2.421875 0.53125 -2 0.53125 -1.125 C 0.53125 -0.703125 0.8125 0.109375 1.671875 0.109375 C 1.8125 0.109375 2.75 0.09375 3.328125 -0.359375 L 3.328125 0 Z M 3.296875 -1.3125 C 3.296875 -1.125 3.296875 -0.875 2.953125 -0.6875 C 2.671875 -0.515625 2.296875 -0.5 2.1875 -0.5 C 1.703125 -0.5 1.25 -0.734375 1.25 -1.140625 C 1.25 -1.84375 2.875 -1.90625 3.296875 -1.9375 Z M 3.296875 -1.3125 "/>
</symbol>
<symbol overflow="visible" id="glyph1-8">
<path style="stroke:none;" d="M 4.453125 -4.421875 L 3.703125 -4.421875 L 2.90625 -2.359375 C 2.703125 -1.796875 2.390625 -1 2.3125 -0.53125 L 2.296875 -0.53125 C 2.25 -0.890625 1.984375 -1.578125 1.890625 -1.84375 L 0.921875 -4.421875 L 0.140625 -4.421875 L 1.859375 0 L 2.734375 0 Z M 4.453125 -4.421875 "/>
</symbol>
<symbol overflow="visible" id="glyph1-9">
<path style="stroke:none;" d="M 4.328125 0 L 4.328125 -6.921875 L 3.578125 -6.921875 L 3.578125 -3.984375 C 3.046875 -4.421875 2.5 -4.53125 2.125 -4.53125 C 1.140625 -4.53125 0.359375 -3.5 0.359375 -2.21875 C 0.359375 -0.90625 1.125 0.109375 2.078125 0.109375 C 2.40625 0.109375 2.984375 0.015625 3.546875 -0.515625 L 3.546875 0 Z M 3.546875 -1.390625 C 3.546875 -1.25 3.53125 -1.0625 3.21875 -0.78125 C 2.984375 -0.578125 2.734375 -0.5 2.484375 -0.5 C 1.859375 -0.5 1.140625 -0.96875 1.140625 -2.203125 C 1.140625 -3.515625 2 -3.921875 2.578125 -3.921875 C 3.03125 -3.921875 3.328125 -3.703125 3.546875 -3.375 Z M 3.546875 -1.390625 "/>
</symbol>
<symbol overflow="visible" id="glyph1-10">
<path style="stroke:none;" d="M 1.5625 0 L 1.5625 -6.921875 L 0.8125 -6.921875 L 0.8125 0 Z M 1.5625 0 "/>
</symbol>
<symbol overflow="visible" id="glyph1-11">
<path style="stroke:none;" d="M 4.34375 0 L 4.34375 -4.421875 L 3.5625 -4.421875 L 3.5625 -1.53125 C 3.5625 -0.78125 3 -0.4375 2.359375 -0.4375 C 1.65625 -0.4375 1.578125 -0.703125 1.578125 -1.125 L 1.578125 -4.421875 L 0.8125 -4.421875 L 0.8125 -1.09375 C 0.8125 -0.375 1.03125 0.109375 1.859375 0.109375 C 2.390625 0.109375 3.09375 -0.046875 3.59375 -0.484375 L 3.59375 0 Z M 4.34375 0 "/>
</symbol>
<symbol overflow="visible" id="glyph1-12">
<path style="stroke:none;" d="M 3.265625 -3.875 L 3.265625 -4.53125 C 2.375 -4.53125 1.828125 -4.03125 1.515625 -3.578125 L 1.515625 -4.484375 L 0.8125 -4.484375 L 0.8125 0 L 1.5625 0 L 1.5625 -2.140625 C 1.5625 -3.125 2.28125 -3.84375 3.265625 -3.875 Z M 3.265625 -3.875 "/>
</symbol>
<symbol overflow="visible" id="glyph1-13">
<path style="stroke:none;" d="M 4.125 -2.1875 C 4.125 -2.515625 4.109375 -3.265625 3.734375 -3.875 C 3.3125 -4.484375 2.71875 -4.59375 2.359375 -4.59375 C 1.25 -4.59375 0.34375 -3.53125 0.34375 -2.25 C 0.34375 -0.9375 1.3125 0.109375 2.5 0.109375 C 3.125 0.109375 3.703125 -0.125 4.09375 -0.40625 L 4.03125 -1.0625 C 3.40625 -0.53125 2.734375 -0.5 2.515625 -0.5 C 1.71875 -0.5 1.078125 -1.203125 1.046875 -2.1875 Z M 3.5625 -2.734375 L 1.09375 -2.734375 C 1.25 -3.484375 1.78125 -3.984375 2.359375 -3.984375 C 2.875 -3.984375 3.421875 -3.65625 3.5625 -2.734375 Z M 3.5625 -2.734375 "/>
</symbol>
<symbol overflow="visible" id="glyph1-14">
<path style="stroke:none;" d="M 4.78125 -2.21875 C 4.78125 -3.421875 4.15625 -4.53125 3.203125 -4.53125 C 2.609375 -4.53125 2.03125 -4.328125 1.5625 -3.9375 L 1.5625 -4.421875 L 0.8125 -4.421875 L 0.8125 1.9375 L 1.59375 1.9375 L 1.59375 -0.453125 C 1.90625 -0.171875 2.34375 0.109375 2.9375 0.109375 C 3.90625 0.109375 4.78125 -0.875 4.78125 -2.21875 Z M 4 -2.21875 C 4 -1.203125 3.296875 -0.5 2.546875 -0.5 C 2.15625 -0.5 1.890625 -0.703125 1.6875 -0.96875 C 1.59375 -1.109375 1.59375 -1.140625 1.59375 -1.3125 L 1.59375 -3.3125 C 1.828125 -3.671875 2.21875 -3.890625 2.65625 -3.890625 C 3.40625 -3.890625 4 -3.140625 4 -2.21875 Z M 4 -2.21875 "/>
</symbol>
<symbol overflow="visible" id="glyph1-15">
<path style="stroke:none;" d="M 4.125 -2.1875 C 4.125 -2.515625 4.109375 -3.265625 3.734375 -3.875 C 3.3125 -4.484375 2.71875 -4.59375 2.359375 -4.59375 C 1.25 -4.59375 0.34375 -3.53125 0.34375 -2.25 C 0.34375 -0.9375 1.3125 0.109375 2.5 0.109375 C 3.125 0.109375 3.703125 -0.125 4.09375 -0.40625 L 4.03125 -1.0625 C 3.40625 -0.53125 2.734375 -0.5 2.515625 -0.5 C 1.71875 -0.5 1.078125 -1.203125 1.046875 -2.1875 Z M 3.5625 -2.734375 L 1.09375 -2.734375 C 1.25 -3.484375 1.78125 -3.984375 2.359375 -3.984375 C 2.875 -3.984375 3.421875 -3.65625 3.5625 -2.734375 Z M 3.625 -6.921875 L 2.84375 -6.921875 L 1.515625 -5.25 L 2.125 -5.25 Z M 3.625 -6.921875 "/>
</symbol>
<symbol overflow="visible" id="glyph1-16">
<path style="stroke:none;" d="M 4.671875 -2.1875 C 4.671875 -3.53125 3.671875 -4.59375 2.5 -4.59375 C 1.265625 -4.59375 0.296875 -3.5 0.296875 -2.1875 C 0.296875 -0.875 1.3125 0.109375 2.484375 0.109375 C 3.671875 0.109375 4.671875 -0.890625 4.671875 -2.1875 Z M 3.890625 -2.296875 C 3.890625 -1.109375 3.21875 -0.53125 2.484375 -0.53125 C 1.796875 -0.53125 1.078125 -1.09375 1.078125 -2.296875 C 1.078125 -3.5 1.828125 -3.984375 2.484375 -3.984375 C 3.1875 -3.984375 3.890625 -3.46875 3.890625 -2.296875 Z M 3.890625 -2.296875 "/>
</symbol>
<symbol overflow="visible" id="glyph1-17">
<path style="stroke:none;" d="M 4.78125 -2.21875 C 4.78125 -3.453125 4.109375 -4.53125 3.171875 -4.53125 C 2.78125 -4.53125 2.15625 -4.4375 1.5625 -3.953125 L 1.5625 -6.921875 L 0.8125 -6.921875 L 0.8125 0 L 1.59375 0 L 1.59375 -0.453125 C 1.828125 -0.234375 2.265625 0.109375 2.9375 0.109375 C 3.921875 0.109375 4.78125 -0.890625 4.78125 -2.21875 Z M 4 -2.21875 C 4 -0.921875 3.171875 -0.5 2.5625 -0.5 C 2.171875 -0.5 1.84375 -0.671875 1.59375 -1.140625 L 1.59375 -3.34375 C 1.75 -3.578125 2.109375 -3.921875 2.65625 -3.921875 C 3.25 -3.921875 4 -3.5 4 -2.21875 Z M 4 -2.21875 "/>
</symbol>
<symbol overflow="visible" id="glyph1-18">
<path style="stroke:none;" d="M 4.34375 0 L 4.34375 -2.96875 C 4.34375 -3.625 4.1875 -4.53125 2.96875 -4.53125 C 2.078125 -4.53125 1.578125 -3.859375 1.53125 -3.78125 L 1.53125 -4.484375 L 0.8125 -4.484375 L 0.8125 0 L 1.578125 0 L 1.578125 -2.4375 C 1.578125 -3.09375 1.828125 -3.921875 2.59375 -3.921875 C 3.546875 -3.921875 3.5625 -3.21875 3.5625 -2.90625 L 3.5625 0 Z M 4.34375 0 "/>
</symbol>
<symbol overflow="visible" id="glyph1-19">
<path style="stroke:none;" d="M 4.140625 -0.40625 L 4.078125 -1.0625 C 3.5625 -0.671875 3.03125 -0.53125 2.515625 -0.53125 C 1.6875 -0.53125 1.140625 -1.25 1.140625 -2.21875 C 1.140625 -3 1.5 -3.953125 2.5625 -3.953125 C 3.078125 -3.953125 3.421875 -3.875 3.96875 -3.515625 L 4.09375 -4.171875 C 3.5 -4.5 3.15625 -4.59375 2.546875 -4.59375 C 1.171875 -4.59375 0.359375 -3.390625 0.359375 -2.21875 C 0.359375 -0.984375 1.265625 0.109375 2.515625 0.109375 C 3.046875 0.109375 3.59375 -0.03125 4.140625 -0.40625 Z M 4.140625 -0.40625 "/>
</symbol>
<symbol overflow="visible" id="glyph1-20">
<path style="stroke:none;" d="M 4.96875 -1.890625 C 4.96875 -2.53125 4.671875 -3.015625 4.453125 -3.25 C 3.984375 -3.75 3.65625 -3.84375 2.734375 -4.0625 C 2.15625 -4.203125 2 -4.25 1.6875 -4.5 C 1.625 -4.5625 1.34375 -4.859375 1.34375 -5.296875 C 1.34375 -5.875 1.890625 -6.484375 2.796875 -6.484375 C 3.640625 -6.484375 4.109375 -6.15625 4.484375 -5.84375 L 4.640625 -6.640625 C 4.09375 -6.96875 3.53125 -7.140625 2.8125 -7.140625 C 1.421875 -7.140625 0.5625 -6.15625 0.5625 -5.171875 C 0.5625 -4.75 0.703125 -4.328125 1.09375 -3.90625 C 1.515625 -3.453125 1.953125 -3.34375 2.546875 -3.203125 C 3.390625 -2.984375 3.484375 -2.953125 3.765625 -2.71875 C 3.96875 -2.546875 4.1875 -2.21875 4.1875 -1.78125 C 4.1875 -1.125 3.640625 -0.46875 2.734375 -0.46875 C 2.328125 -0.46875 1.421875 -0.5625 0.59375 -1.28125 L 0.4375 -0.46875 C 1.3125 0.078125 2.109375 0.21875 2.734375 0.21875 C 4.0625 0.21875 4.96875 -0.78125 4.96875 -1.890625 Z M 4.96875 -1.890625 "/>
</symbol>
<symbol overflow="visible" id="glyph1-21">
<path style="stroke:none;" d="M 4.328125 1.9375 L 4.328125 -4.53125 L 3.578125 -4.53125 L 3.578125 -3.859375 C 3.484375 -3.984375 2.984375 -4.53125 2.21875 -4.53125 C 1.21875 -4.53125 0.359375 -3.546875 0.359375 -2.203125 C 0.359375 -0.9375 1.09375 0.109375 2.046875 0.109375 C 2.609375 0.109375 3.125 -0.125 3.546875 -0.5 L 3.546875 1.9375 Z M 3.578125 -1.390625 C 3.578125 -1.21875 3.578125 -1.203125 3.484375 -1.0625 C 3.21875 -0.671875 2.84375 -0.5 2.5 -0.5 C 1.734375 -0.5 1.140625 -1.28125 1.140625 -2.203125 C 1.140625 -3.21875 1.859375 -3.890625 2.578125 -3.890625 C 3.265625 -3.890625 3.578125 -3.1875 3.578125 -2.796875 Z M 3.578125 -1.390625 "/>
</symbol>
<symbol overflow="visible" id="glyph1-22">
<path style="stroke:none;" d="M 3.453125 -6.25 L 3.453125 -6.921875 C 3.34375 -6.953125 3.03125 -7.03125 2.65625 -7.03125 C 1.71875 -7.03125 1 -6.3125 1 -5.328125 L 1 -4.421875 L 0.265625 -4.421875 L 0.265625 -3.84375 L 1 -3.84375 L 1 0 L 1.75 0 L 1.75 -3.84375 L 2.84375 -3.84375 L 2.84375 -4.421875 L 1.71875 -4.421875 L 1.71875 -5.609375 C 1.71875 -6.34375 2.390625 -6.421875 2.65625 -6.421875 C 2.84375 -6.421875 3.125 -6.40625 3.453125 -6.25 Z M 3.453125 -6.25 "/>
</symbol>
<symbol overflow="visible" id="glyph1-23">
<path style="stroke:none;" d="M 4 0 L 4 -0.625 L 2.546875 -0.625 C 2.421875 -0.625 2.296875 -0.609375 2.1875 -0.609375 L 1.328125 -0.609375 L 3.984375 -4.03125 L 3.984375 -4.421875 L 0.421875 -4.421875 L 0.421875 -3.84375 L 1.796875 -3.84375 C 1.921875 -3.84375 2.046875 -3.84375 2.15625 -3.84375 L 2.9375 -3.84375 L 0.28125 -0.40625 L 0.28125 0 Z M 4 0 "/>
</symbol>
<symbol overflow="visible" id="glyph1-24">
<path style="stroke:none;" d="M 4.140625 -0.40625 L 4.078125 -1.0625 C 3.5625 -0.671875 3.03125 -0.53125 2.515625 -0.53125 C 1.6875 -0.53125 1.140625 -1.25 1.140625 -2.21875 C 1.140625 -3 1.5 -3.953125 2.5625 -3.953125 C 3.078125 -3.953125 3.421875 -3.875 3.96875 -3.515625 L 4.09375 -4.171875 C 3.5 -4.5 3.15625 -4.59375 2.546875 -4.59375 C 1.171875 -4.59375 0.359375 -3.390625 0.359375 -2.21875 C 0.359375 -0.984375 1.265625 0.109375 2.515625 0.109375 C 3.046875 0.109375 3.59375 -0.03125 4.140625 -0.40625 Z M 2.90625 0.453125 L 2.296875 0.453125 L 1.5625 2.140625 L 2.25 2.140625 Z M 2.90625 0.453125 "/>
</symbol>
<symbol overflow="visible" id="glyph1-25">
<path style="stroke:none;" d="M 4.078125 0 L 4.078125 -2.875 C 4.078125 -3.890625 3.34375 -4.59375 2.4375 -4.59375 C 1.78125 -4.59375 1.328125 -4.4375 0.875 -4.171875 L 0.921875 -3.515625 C 1.453125 -3.875 1.9375 -4 2.4375 -4 C 2.90625 -4 3.296875 -3.609375 3.296875 -2.875 L 3.296875 -2.4375 C 1.796875 -2.421875 0.53125 -2 0.53125 -1.125 C 0.53125 -0.703125 0.8125 0.109375 1.671875 0.109375 C 1.8125 0.109375 2.75 0.09375 3.328125 -0.359375 L 3.328125 0 Z M 3.296875 -1.3125 C 3.296875 -1.125 3.296875 -0.875 2.953125 -0.6875 C 2.671875 -0.515625 2.296875 -0.5 2.1875 -0.5 C 1.703125 -0.5 1.25 -0.734375 1.25 -1.140625 C 1.25 -1.84375 2.875 -1.90625 3.296875 -1.9375 Z M 4.0625 -6.671875 L 3.453125 -6.671875 C 3.4375 -6.34375 3.3125 -6.09375 3.0625 -6.09375 C 2.828125 -6.09375 2.625 -6.234375 2.359375 -6.4375 C 2.15625 -6.5625 1.96875 -6.671875 1.71875 -6.671875 C 1.25 -6.671875 0.75 -6.265625 0.734375 -5.5 L 1.34375 -5.5 C 1.359375 -5.828125 1.46875 -6.078125 1.734375 -6.078125 C 1.96875 -6.078125 2.171875 -5.9375 2.4375 -5.734375 C 2.625 -5.609375 2.828125 -5.5 3.078125 -5.5 C 3.546875 -5.5 4.03125 -5.90625 4.0625 -6.671875 Z M 4.0625 -6.671875 "/>
</symbol>
<symbol overflow="visible" id="glyph1-26">
<path style="stroke:none;" d="M 1.796875 -0.015625 L 1.796875 -0.828125 L 0.96875 -0.828125 L 0.96875 0 L 1.21875 0 L 0.96875 1.25 L 1.375 1.25 Z M 1.796875 -0.015625 "/>
</symbol>
<symbol overflow="visible" id="glyph1-27">
<path style="stroke:none;" d="M 4.34375 0 L 4.34375 -2.96875 C 4.34375 -3.625 4.1875 -4.53125 2.96875 -4.53125 C 2.359375 -4.53125 1.875 -4.234375 1.5625 -3.8125 L 1.5625 -6.921875 L 0.8125 -6.921875 L 0.8125 0 L 1.578125 0 L 1.578125 -2.4375 C 1.578125 -3.09375 1.828125 -3.921875 2.59375 -3.921875 C 3.546875 -3.921875 3.5625 -3.21875 3.5625 -2.90625 L 3.5625 0 Z M 4.34375 0 "/>
</symbol>
<symbol overflow="visible" id="glyph1-28">
<path style="stroke:none;" d="M 4.078125 0 L 4.078125 -2.875 C 4.078125 -3.890625 3.34375 -4.59375 2.4375 -4.59375 C 1.78125 -4.59375 1.328125 -4.4375 0.875 -4.171875 L 0.921875 -3.515625 C 1.453125 -3.875 1.9375 -4 2.4375 -4 C 2.90625 -4 3.296875 -3.609375 3.296875 -2.875 L 3.296875 -2.4375 C 1.796875 -2.421875 0.53125 -2 0.53125 -1.125 C 0.53125 -0.703125 0.8125 0.109375 1.671875 0.109375 C 1.8125 0.109375 2.75 0.09375 3.328125 -0.359375 L 3.328125 0 Z M 3.296875 -1.3125 C 3.296875 -1.125 3.296875 -0.875 2.953125 -0.6875 C 2.671875 -0.515625 2.296875 -0.5 2.1875 -0.5 C 1.703125 -0.5 1.25 -0.734375 1.25 -1.140625 C 1.25 -1.84375 2.875 -1.90625 3.296875 -1.9375 Z M 3.9375 -5.234375 L 2.6875 -6.953125 L 2.09375 -6.953125 L 0.84375 -5.234375 L 1.4375 -5.234375 L 2.390625 -6.453125 L 3.34375 -5.234375 Z M 3.9375 -5.234375 "/>
</symbol>
<symbol overflow="visible" id="glyph1-29">
<path style="stroke:none;" d="M 4.828125 -3.90625 L 4.71875 -4.53125 C 4.03125 -4.53125 3.453125 -4.34375 3.15625 -4.21875 C 2.9375 -4.390625 2.609375 -4.53125 2.203125 -4.53125 C 1.34375 -4.53125 0.625 -3.8125 0.625 -2.90625 C 0.625 -2.546875 0.75 -2.1875 0.953125 -1.921875 C 0.65625 -1.515625 0.65625 -1.125 0.65625 -1.078125 C 0.65625 -0.8125 0.75 -0.53125 0.921875 -0.3125 C 0.40625 -0.015625 0.28125 0.453125 0.28125 0.703125 C 0.28125 1.453125 1.265625 2.046875 2.484375 2.046875 C 3.703125 2.046875 4.6875 1.46875 4.6875 0.703125 C 4.6875 -0.6875 3.03125 -0.6875 2.640625 -0.6875 L 1.765625 -0.6875 C 1.640625 -0.6875 1.1875 -0.6875 1.1875 -1.21875 C 1.1875 -1.328125 1.21875 -1.484375 1.296875 -1.578125 C 1.5 -1.421875 1.828125 -1.28125 2.203125 -1.28125 C 3.09375 -1.28125 3.796875 -2.03125 3.796875 -2.90625 C 3.796875 -3.390625 3.578125 -3.765625 3.46875 -3.90625 L 3.515625 -3.890625 C 3.734375 -3.890625 4 -3.9375 4.25 -3.9375 C 4.421875 -3.9375 4.828125 -3.90625 4.828125 -3.90625 Z M 3.09375 -2.90625 C 3.09375 -2.140625 2.625 -1.859375 2.203125 -1.859375 C 1.828125 -1.859375 1.3125 -2.078125 1.3125 -2.90625 C 1.3125 -3.734375 1.828125 -3.96875 2.203125 -3.96875 C 2.625 -3.96875 3.09375 -3.6875 3.09375 -2.90625 Z M 4 0.71875 C 4 1.15625 3.3125 1.484375 2.5 1.484375 C 1.6875 1.484375 0.984375 1.171875 0.984375 0.703125 C 0.984375 0.671875 0.984375 0.03125 1.75 0.03125 L 2.65625 0.03125 C 2.875 0.03125 4 0.03125 4 0.71875 Z M 4 0.71875 "/>
</symbol>
<symbol overflow="visible" id="glyph1-30">
<path style="stroke:none;" d="M 1.796875 0 L 1.796875 -0.828125 L 0.96875 -0.828125 L 0.96875 0 Z M 1.796875 0 "/>
</symbol>
<symbol overflow="visible" id="glyph1-31">
<path style="stroke:none;" d="M 6.765625 -3.4375 C 6.765625 -5.53125 5.328125 -7.140625 3.671875 -7.140625 C 1.96875 -7.140625 0.5625 -5.515625 0.5625 -3.4375 C 0.5625 -1.328125 2.03125 0.21875 3.65625 0.21875 C 5.328125 0.21875 6.765625 -1.34375 6.765625 -3.4375 Z M 5.875 -3.59375 C 5.875 -1.640625 4.8125 -0.421875 3.671875 -0.421875 C 2.5 -0.421875 1.453125 -1.671875 1.453125 -3.59375 C 1.453125 -5.40625 2.546875 -6.5 3.65625 -6.5 C 4.8125 -6.5 5.875 -5.375 5.875 -3.59375 Z M 5.875 -3.59375 "/>
</symbol>
<symbol overflow="visible" id="glyph1-32">
<path style="stroke:none;" d="M 1.796875 -3.59375 L 1.796875 -4.421875 L 0.96875 -4.421875 L 0.96875 -3.59375 Z M 1.796875 -0.015625 L 1.796875 -0.828125 L 0.96875 -0.828125 L 0.96875 0 L 1.21875 0 L 0.96875 1.25 L 1.375 1.25 Z M 1.796875 -0.015625 "/>
</symbol>
<symbol overflow="visible" id="glyph1-33">
<path style="stroke:none;" d="M 5.859375 -0.453125 L 5.796875 -1.140625 C 5.5 -0.9375 5.21875 -0.75 4.875 -0.640625 C 4.5625 -0.53125 4.203125 -0.53125 3.875 -0.53125 C 3.21875 -0.53125 2.625 -0.875 2.21875 -1.390625 C 1.765625 -1.96875 1.546875 -2.71875 1.546875 -3.453125 C 1.546875 -4.203125 1.765625 -4.953125 2.21875 -5.546875 C 2.625 -6.046875 3.21875 -6.40625 3.875 -6.40625 C 4.171875 -6.40625 4.46875 -6.375 4.765625 -6.28125 C 5.0625 -6.1875 5.34375 -6.046875 5.609375 -5.859375 L 5.734375 -6.671875 C 5.4375 -6.796875 5.140625 -6.890625 4.8125 -6.953125 C 4.5 -7.015625 4.1875 -7.03125 3.875 -7.03125 C 2.984375 -7.03125 2.1875 -6.640625 1.59375 -5.984375 C 0.984375 -5.296875 0.65625 -4.390625 0.65625 -3.453125 C 0.65625 -2.53125 0.984375 -1.625 1.59375 -0.9375 C 2.1875 -0.296875 2.984375 0.109375 3.875 0.109375 C 4.21875 0.109375 4.5625 0.09375 4.90625 0 C 5.25 -0.09375 5.546875 -0.265625 5.859375 -0.453125 Z M 5.859375 -0.453125 "/>
</symbol>
<symbol overflow="visible" id="glyph1-34">
<path style="stroke:none;" d="M 6.359375 0 L 3.765625 -6.921875 L 2.875 -6.921875 L 0.28125 0 L 1.015625 0 L 1.78125 -2.03125 L 4.6875 -2.03125 L 5.4375 0 Z M 4.46875 -2.59375 L 2 -2.59375 C 2.5 -4.015625 2.140625 -2.96875 2.640625 -4.390625 C 2.84375 -4.984375 3.15625 -5.828125 3.234375 -6.203125 C 3.265625 -6.0625 3.328125 -5.8125 3.5625 -5.15625 Z M 4.46875 -2.59375 "/>
</symbol>
<symbol overflow="visible" id="glyph2-0">
<path style="stroke:none;" d=""/>
</symbol>
<symbol overflow="visible" id="glyph2-1">
<path style="stroke:none;" d="M 4.671875 -1.03125 C 4.671875 -1.09375 4.578125 -1.203125 4.5 -1.203125 C 4.46875 -1.203125 4.453125 -1.1875 4.375 -1.09375 C 3.640625 -0.15625 2.75 -0.109375 2.578125 -0.109375 C 2.046875 -0.109375 1.796875 -0.5625 1.796875 -1.140625 C 1.796875 -1.671875 2.0625 -2.71875 2.328125 -3.1875 C 2.6875 -3.84375 3.1875 -4.1875 3.625 -4.1875 C 3.734375 -4.1875 4.1875 -4.171875 4.34375 -3.765625 C 3.84375 -3.703125 3.84375 -3.265625 3.84375 -3.265625 C 3.84375 -3.109375 3.953125 -2.953125 4.171875 -2.953125 C 4.453125 -2.953125 4.6875 -3.171875 4.6875 -3.546875 C 4.6875 -4.03125 4.25 -4.40625 3.625 -4.40625 C 2.375 -4.40625 1.09375 -2.984375 1.09375 -1.53125 C 1.09375 -0.546875 1.6875 0.109375 2.5625 0.109375 C 3.84375 0.109375 4.671875 -0.890625 4.671875 -1.03125 Z M 4.671875 -1.03125 "/>
</symbol>
<symbol overflow="visible" id="glyph2-2">
<path style="stroke:none;" d="M 5.078125 -2.765625 C 5.078125 -3.71875 4.484375 -4.40625 3.625 -4.40625 C 2.375 -4.40625 1.09375 -2.984375 1.09375 -1.53125 C 1.09375 -0.515625 1.71875 0.109375 2.546875 0.109375 C 3.78125 0.109375 5.078125 -1.3125 5.078125 -2.765625 Z M 4.375 -3.15625 C 4.375 -2.734375 4.15625 -1.703125 3.84375 -1.109375 C 3.546875 -0.5625 3.046875 -0.109375 2.546875 -0.109375 C 2.15625 -0.109375 1.796875 -0.421875 1.796875 -1.140625 C 1.796875 -1.640625 2.046875 -2.734375 2.375 -3.28125 C 2.734375 -3.890625 3.21875 -4.1875 3.609375 -4.1875 C 4.09375 -4.1875 4.375 -3.75 4.375 -3.15625 Z M 4.375 -3.15625 "/>
</symbol>
<symbol overflow="visible" id="glyph2-3">
<path style="stroke:none;" d="M 8.390625 -1.421875 C 8.390625 -1.53125 8.3125 -1.53125 8.25 -1.53125 C 8.109375 -1.53125 8.109375 -1.5 8.078125 -1.359375 C 8 -1.09375 7.71875 -0.109375 7.140625 -0.109375 C 6.9375 -0.109375 6.921875 -0.265625 6.921875 -0.40625 C 6.921875 -0.640625 7.03125 -0.90625 7.109375 -1.140625 C 7.3125 -1.671875 7.71875 -2.796875 7.71875 -3.375 C 7.71875 -4.203125 7.140625 -4.40625 6.671875 -4.40625 C 5.96875 -4.40625 5.46875 -3.96875 5.171875 -3.53125 C 5.09375 -4.21875 4.578125 -4.40625 4.125 -4.40625 C 3.53125 -4.40625 3.046875 -4.078125 2.703125 -3.625 C 2.625 -4.109375 2.296875 -4.40625 1.859375 -4.40625 C 1.5 -4.40625 1.3125 -4.171875 1.140625 -3.875 C 0.953125 -3.484375 0.828125 -2.875 0.828125 -2.875 C 0.828125 -2.765625 0.921875 -2.765625 0.984375 -2.765625 C 1.109375 -2.765625 1.109375 -2.78125 1.171875 -3 C 1.34375 -3.703125 1.53125 -4.1875 1.84375 -4.1875 C 2.109375 -4.1875 2.109375 -3.890625 2.109375 -3.78125 C 2.109375 -3.625 2.078125 -3.4375 2.03125 -3.28125 L 1.28125 -0.296875 C 1.265625 -0.234375 1.25 -0.171875 1.25 -0.15625 C 1.25 -0.046875 1.328125 0.109375 1.53125 0.109375 C 1.65625 0.109375 1.828125 0.046875 1.890625 -0.15625 L 2.296875 -1.75 C 2.34375 -1.96875 2.40625 -2.171875 2.453125 -2.390625 C 2.578125 -2.875 2.578125 -2.90625 2.703125 -3.109375 C 2.984375 -3.609375 3.421875 -4.1875 4.109375 -4.1875 C 4.5625 -4.1875 4.5625 -3.671875 4.5625 -3.53125 C 4.5625 -3.265625 4.5 -2.96875 4.46875 -2.875 L 3.828125 -0.296875 C 3.8125 -0.234375 3.796875 -0.171875 3.796875 -0.15625 C 3.796875 -0.046875 3.875 0.109375 4.078125 0.109375 C 4.203125 0.109375 4.359375 0.046875 4.4375 -0.15625 L 4.828125 -1.75 C 4.890625 -1.96875 4.9375 -2.171875 5 -2.390625 C 5.125 -2.875 5.125 -2.90625 5.25 -3.109375 C 5.53125 -3.609375 5.96875 -4.1875 6.65625 -4.1875 C 7.109375 -4.1875 7.109375 -3.671875 7.109375 -3.53125 C 7.109375 -2.90625 6.671875 -1.71875 6.53125 -1.328125 C 6.40625 -0.984375 6.375 -0.890625 6.375 -0.6875 C 6.375 -0.25 6.65625 0.109375 7.125 0.109375 C 8.0625 0.109375 8.390625 -1.375 8.390625 -1.421875 Z M 8.390625 -1.421875 "/>
</symbol>
<symbol overflow="visible" id="glyph2-4">
<path style="stroke:none;" d="M 5.078125 -2.84375 C 5.078125 -3.921875 4.484375 -4.40625 3.890625 -4.40625 C 3.40625 -4.40625 2.96875 -4.046875 2.6875 -3.703125 C 2.5625 -4.28125 2.109375 -4.40625 1.859375 -4.40625 C 1.5 -4.40625 1.3125 -4.171875 1.140625 -3.875 C 0.953125 -3.484375 0.828125 -2.875 0.828125 -2.875 C 0.828125 -2.765625 0.921875 -2.765625 0.984375 -2.765625 C 1.109375 -2.765625 1.109375 -2.78125 1.171875 -3 C 1.34375 -3.703125 1.53125 -4.1875 1.84375 -4.1875 C 2.109375 -4.1875 2.109375 -3.890625 2.109375 -3.78125 C 2.109375 -3.734375 2.109375 -3.5625 2.03125 -3.296875 L 0.890625 1.28125 C 0.8125 1.578125 0.734375 1.609375 0.34375 1.625 C 0.265625 1.625 0.140625 1.625 0.140625 1.8125 C 0.140625 1.890625 0.1875 1.9375 0.265625 1.9375 C 0.53125 1.9375 0.8125 1.90625 1.09375 1.90625 C 1.421875 1.90625 1.75 1.9375 2.0625 1.9375 C 2.125 1.9375 2.25 1.9375 2.25 1.75 C 2.25 1.625 2.15625 1.625 2.015625 1.625 C 1.5 1.625 1.5 1.5625 1.5 1.46875 C 1.5 1.40625 1.578125 1.140625 1.609375 0.984375 L 1.96875 -0.46875 C 2.046875 -0.296875 2.296875 0.109375 2.8125 0.109375 C 3.890625 0.109375 5.078125 -1.359375 5.078125 -2.84375 Z M 3.859375 -1.0625 C 3.734375 -0.8125 3.3125 -0.109375 2.796875 -0.109375 C 2.21875 -0.109375 2.125 -0.953125 2.125 -1.03125 C 2.125 -1.0625 2.140625 -1.09375 2.15625 -1.171875 L 2.625 -3.0625 C 2.703125 -3.40625 3.3125 -4.1875 3.875 -4.1875 C 4.3125 -4.1875 4.421875 -3.625 4.421875 -3.296875 C 4.421875 -2.875 4.140625 -1.6875 3.859375 -1.0625 Z M 3.859375 -1.0625 "/>
</symbol>
<symbol overflow="visible" id="glyph2-5">
<path style="stroke:none;" d="M 4.875 -3.78125 C 4.875 -4.296875 4.234375 -4.40625 3.890625 -4.40625 C 3.203125 -4.40625 2.84375 -3.90625 2.6875 -3.6875 C 2.578125 -4.21875 2.1875 -4.40625 1.859375 -4.40625 C 1.5 -4.40625 1.3125 -4.171875 1.140625 -3.875 C 0.953125 -3.484375 0.828125 -2.875 0.828125 -2.875 C 0.828125 -2.765625 0.921875 -2.765625 0.984375 -2.765625 C 1.109375 -2.765625 1.109375 -2.78125 1.171875 -3 C 1.34375 -3.703125 1.53125 -4.1875 1.84375 -4.1875 C 2.109375 -4.1875 2.109375 -3.890625 2.109375 -3.78125 C 2.109375 -3.625 2.078125 -3.4375 2.03125 -3.28125 L 1.28125 -0.296875 C 1.265625 -0.234375 1.25 -0.171875 1.25 -0.15625 C 1.25 -0.046875 1.328125 0.109375 1.53125 0.109375 C 1.828125 0.109375 1.90625 -0.171875 1.921875 -0.265625 L 2.578125 -2.875 C 2.578125 -2.90625 3.03125 -4.1875 3.890625 -4.1875 C 3.9375 -4.1875 4.21875 -4.1875 4.421875 -4.046875 C 4.0625 -3.9375 4.03125 -3.625 4.03125 -3.5625 C 4.03125 -3.4375 4.125 -3.25 4.390625 -3.25 C 4.5625 -3.25 4.875 -3.390625 4.875 -3.78125 Z M 4.875 -3.78125 "/>
</symbol>
<symbol overflow="visible" id="glyph2-6">
<path style="stroke:none;" d="M 7.25 1.25 C 7.265625 1.171875 7.21875 1.09375 7.140625 1.09375 L -0.265625 1.09375 C -0.359375 1.09375 -0.4375 1.171875 -0.453125 1.25 C -0.484375 1.328125 -0.421875 1.390625 -0.34375 1.390625 L 7.0625 1.390625 C 7.140625 1.390625 7.234375 1.328125 7.25 1.25 Z M 7.25 1.25 "/>
</symbol>
<symbol overflow="visible" id="glyph2-7">
<path style="stroke:none;" d="M 3.921875 -1.5625 C 3.921875 -2.4375 3.140625 -2.609375 2.734375 -2.703125 C 2.453125 -2.765625 2.09375 -2.84375 2.09375 -3.265625 C 2.09375 -3.515625 2.296875 -4.1875 3.09375 -4.1875 C 3.375 -4.1875 3.734375 -4.09375 3.84375 -3.703125 C 3.53125 -3.65625 3.453125 -3.390625 3.453125 -3.296875 C 3.453125 -3.1875 3.515625 -3.015625 3.75 -3.015625 C 3.921875 -3.015625 4.171875 -3.125 4.171875 -3.5625 C 4.171875 -4.015625 3.765625 -4.40625 3.109375 -4.40625 C 1.9375 -4.40625 1.53125 -3.453125 1.53125 -2.9375 C 1.53125 -2.15625 2.1875 -2.03125 2.46875 -1.96875 C 2.90625 -1.859375 3.34375 -1.765625 3.34375 -1.21875 C 3.34375 -0.90625 3.078125 -0.109375 2.046875 -0.109375 C 1.828125 -0.109375 1.25 -0.15625 1.09375 -0.671875 C 1.609375 -0.71875 1.609375 -1.15625 1.609375 -1.15625 C 1.609375 -1.34375 1.46875 -1.46875 1.265625 -1.46875 C 1.03125 -1.46875 0.75 -1.3125 0.75 -0.859375 C 0.75 -0.25 1.328125 0.109375 2.046875 0.109375 C 3.53125 0.109375 3.921875 -1.109375 3.921875 -1.5625 Z M 3.921875 -1.5625 "/>
</symbol>
<symbol overflow="visible" id="glyph2-8">
<path style="stroke:none;" d="M 4.578125 -2.84375 C 4.578125 -3.921875 3.984375 -4.40625 3.375 -4.40625 C 3 -4.40625 2.65625 -4.203125 2.328125 -3.875 L 3.015625 -6.671875 C 3.03125 -6.703125 3.046875 -6.796875 3.046875 -6.796875 C 3.046875 -6.890625 2.984375 -6.921875 2.90625 -6.921875 C 2.875 -6.921875 2.78125 -6.90625 2.75 -6.890625 L 1.765625 -6.8125 C 1.640625 -6.8125 1.53125 -6.796875 1.53125 -6.609375 C 1.53125 -6.5 1.640625 -6.5 1.78125 -6.5 C 2.25 -6.5 2.265625 -6.4375 2.265625 -6.328125 C 2.265625 -6.296875 2.25 -6.15625 2.25 -6.15625 L 1.25 -2.21875 C 1.25 -2.1875 1.140625 -1.78125 1.140625 -1.40625 C 1.140625 -0.5625 1.5625 0.109375 2.296875 0.109375 C 3.40625 0.109375 4.578125 -1.390625 4.578125 -2.84375 Z M 3.34375 -1.0625 C 3.234375 -0.8125 2.796875 -0.109375 2.296875 -0.109375 C 2.046875 -0.109375 1.71875 -0.3125 1.71875 -1.0625 C 1.71875 -1.5 1.796875 -1.859375 2.09375 -2.984375 C 2.15625 -3.234375 2.15625 -3.25 2.3125 -3.453125 C 2.609375 -3.84375 2.984375 -4.1875 3.359375 -4.1875 C 3.8125 -4.1875 3.90625 -3.625 3.90625 -3.296875 C 3.90625 -2.875 3.640625 -1.6875 3.34375 -1.0625 Z M 3.34375 -1.0625 "/>
</symbol>
<symbol overflow="visible" id="glyph2-9">
<path style="stroke:none;" d="M 5.234375 -1.421875 C 5.234375 -1.53125 5.15625 -1.53125 5.078125 -1.53125 C 4.96875 -1.53125 4.953125 -1.515625 4.890625 -1.296875 C 4.75 -0.734375 4.5625 -0.109375 4.234375 -0.109375 C 3.96875 -0.109375 3.96875 -0.375 3.96875 -0.515625 C 3.96875 -0.59375 3.96875 -0.75 4.03125 -1.03125 L 4.71875 -3.734375 C 4.75 -3.875 4.75 -3.890625 4.75 -3.953125 C 4.75 -4.15625 4.578125 -4.203125 4.484375 -4.203125 C 4.171875 -4.203125 4.09375 -3.875 4.09375 -3.8125 C 3.890625 -4.25 3.578125 -4.40625 3.265625 -4.40625 C 2.15625 -4.40625 0.984375 -2.890625 0.984375 -1.4375 C 0.984375 -0.59375 1.4375 0.109375 2.1875 0.109375 C 2.546875 0.109375 2.984375 -0.09375 3.375 -0.59375 C 3.484375 -0.09375 3.859375 0.109375 4.203125 0.109375 C 4.578125 0.109375 4.78125 -0.140625 4.9375 -0.453125 C 5.109375 -0.828125 5.234375 -1.421875 5.234375 -1.421875 Z M 3.453125 -1.234375 C 3.375 -0.921875 2.75 -0.109375 2.203125 -0.109375 C 1.734375 -0.109375 1.65625 -0.703125 1.65625 -1 C 1.65625 -1.5 1.96875 -2.65625 2.140625 -3.078125 C 2.390625 -3.6875 2.84375 -4.1875 3.265625 -4.1875 C 3.703125 -4.1875 3.953125 -3.671875 3.953125 -3.25 C 3.953125 -3.25 3.9375 -3.1875 3.921875 -3.125 Z M 3.453125 -1.234375 "/>
</symbol>
<symbol overflow="visible" id="glyph2-10">
<path style="stroke:none;" d="M 4.671875 -1.03125 C 4.671875 -1.09375 4.578125 -1.203125 4.5 -1.203125 C 4.46875 -1.203125 4.453125 -1.1875 4.375 -1.09375 C 3.640625 -0.15625 2.75 -0.109375 2.578125 -0.109375 C 1.9375 -0.109375 1.828125 -0.8125 1.828125 -1.203125 C 1.828125 -1.578125 1.921875 -2.03125 2 -2.296875 L 2.375 -2.296875 C 2.6875 -2.296875 3.34375 -2.328125 3.828125 -2.515625 C 4.609375 -2.84375 4.609375 -3.484375 4.609375 -3.5625 C 4.609375 -4.015625 4.25 -4.40625 3.609375 -4.40625 C 2.5625 -4.40625 1.140625 -3.40625 1.140625 -1.640625 C 1.140625 -0.734375 1.609375 0.109375 2.5625 0.109375 C 3.84375 0.109375 4.671875 -0.890625 4.671875 -1.03125 Z M 4.234375 -3.578125 C 4.234375 -2.515625 2.59375 -2.515625 2.265625 -2.515625 L 2.046875 -2.515625 C 2.484375 -4.15625 3.515625 -4.1875 3.609375 -4.1875 C 4 -4.1875 4.234375 -3.921875 4.234375 -3.578125 Z M 5.109375 -6.65625 C 5.109375 -6.84375 4.953125 -6.9375 4.828125 -6.9375 C 4.6875 -6.9375 4.609375 -6.859375 4.53125 -6.765625 L 3.109375 -5.359375 C 3.015625 -5.25 3.015625 -5.234375 3.015625 -5.203125 C 3.015625 -5.125 3.09375 -5.03125 3.171875 -5.03125 C 3.203125 -5.03125 3.21875 -5.03125 3.3125 -5.109375 L 4.921875 -6.34375 C 5 -6.40625 5.109375 -6.484375 5.109375 -6.65625 Z M 5.109375 -6.65625 "/>
</symbol>
<symbol overflow="visible" id="glyph2-11">
<path style="stroke:none;" d="M 5.328125 -1.421875 C 5.328125 -1.53125 5.25 -1.53125 5.1875 -1.53125 C 5.0625 -1.53125 5.046875 -1.515625 5 -1.296875 C 4.859375 -0.734375 4.671875 -0.109375 4.328125 -0.109375 C 4.0625 -0.109375 4.0625 -0.375 4.0625 -0.515625 C 4.0625 -0.59375 4.0625 -0.734375 4.125 -0.984375 L 5.546875 -6.671875 C 5.5625 -6.703125 5.578125 -6.796875 5.578125 -6.796875 C 5.578125 -6.890625 5.515625 -6.921875 5.4375 -6.921875 C 5.40625 -6.921875 5.3125 -6.90625 5.28125 -6.890625 L 4.296875 -6.8125 C 4.171875 -6.8125 4.0625 -6.796875 4.0625 -6.609375 C 4.0625 -6.5 4.171875 -6.5 4.3125 -6.5 C 4.78125 -6.5 4.8125 -6.4375 4.8125 -6.328125 C 4.8125 -6.296875 4.78125 -6.15625 4.78125 -6.15625 L 4.203125 -3.828125 C 4.046875 -4.140625 3.78125 -4.40625 3.359375 -4.40625 C 2.25 -4.40625 1.078125 -2.890625 1.078125 -1.4375 C 1.078125 -0.59375 1.53125 0.109375 2.28125 0.109375 C 2.640625 0.109375 3.078125 -0.09375 3.484375 -0.59375 C 3.59375 -0.09375 3.953125 0.109375 4.3125 0.109375 C 4.671875 0.109375 4.890625 -0.140625 5.03125 -0.453125 C 5.21875 -0.828125 5.328125 -1.421875 5.328125 -1.421875 Z M 3.53125 -1.21875 C 3.453125 -0.90625 2.84375 -0.109375 2.296875 -0.109375 C 1.828125 -0.109375 1.75 -0.703125 1.75 -1 C 1.75 -1.5 2.0625 -2.65625 2.25 -3.078125 C 2.5 -3.6875 2.953125 -4.1875 3.359375 -4.1875 C 3.4375 -4.1875 3.671875 -4.171875 3.84375 -3.890625 C 3.953125 -3.734375 4.046875 -3.453125 4.046875 -3.265625 C 4.046875 -3.234375 4.03125 -3.1875 4.015625 -3.125 Z M 3.53125 -1.21875 "/>
</symbol>
<symbol overflow="visible" id="glyph2-12">
<path style="stroke:none;" d="M 3.296875 -1.421875 C 3.296875 -1.53125 3.21875 -1.53125 3.15625 -1.53125 C 3.015625 -1.53125 3.015625 -1.5 2.984375 -1.359375 C 2.90625 -1.0625 2.625 -0.109375 2.046875 -0.109375 C 1.96875 -0.109375 1.828125 -0.125 1.828125 -0.390625 C 1.828125 -0.640625 1.96875 -0.984375 2.09375 -1.34375 L 2.734375 -3.046875 C 2.828125 -3.34375 2.84375 -3.421875 2.84375 -3.609375 C 2.84375 -4.15625 2.46875 -4.40625 2.109375 -4.40625 C 1.171875 -4.40625 0.828125 -2.921875 0.828125 -2.875 C 0.828125 -2.765625 0.921875 -2.765625 0.984375 -2.765625 C 1.109375 -2.765625 1.109375 -2.796875 1.15625 -2.9375 C 1.25 -3.265625 1.5 -4.1875 2.078125 -4.1875 C 2.1875 -4.1875 2.296875 -4.140625 2.296875 -3.90625 C 2.296875 -3.671875 2.1875 -3.375 2.125 -3.1875 L 1.828125 -2.359375 L 1.453125 -1.375 C 1.3125 -1 1.28125 -0.890625 1.28125 -0.6875 C 1.28125 -0.296875 1.515625 0.109375 2.03125 0.109375 C 2.96875 0.109375 3.296875 -1.390625 3.296875 -1.421875 Z M 3.5625 -6.09375 C 3.5625 -6.296875 3.421875 -6.515625 3.125 -6.515625 C 2.796875 -6.515625 2.484375 -6.203125 2.484375 -5.890625 C 2.484375 -5.671875 2.640625 -5.46875 2.9375 -5.46875 C 3.25 -5.46875 3.5625 -5.765625 3.5625 -6.09375 Z M 3.5625 -6.09375 "/>
</symbol>
<symbol overflow="visible" id="glyph2-13">
<path style="stroke:none;" d="M 4.671875 -1.03125 C 4.671875 -1.09375 4.578125 -1.203125 4.5 -1.203125 C 4.46875 -1.203125 4.453125 -1.1875 4.375 -1.09375 C 3.640625 -0.15625 2.75 -0.109375 2.578125 -0.109375 C 1.9375 -0.109375 1.828125 -0.8125 1.828125 -1.203125 C 1.828125 -1.578125 1.921875 -2.03125 2 -2.296875 L 2.375 -2.296875 C 2.6875 -2.296875 3.34375 -2.328125 3.828125 -2.515625 C 4.609375 -2.84375 4.609375 -3.484375 4.609375 -3.5625 C 4.609375 -4.015625 4.25 -4.40625 3.609375 -4.40625 C 2.5625 -4.40625 1.140625 -3.40625 1.140625 -1.640625 C 1.140625 -0.734375 1.609375 0.109375 2.5625 0.109375 C 3.84375 0.109375 4.671875 -0.890625 4.671875 -1.03125 Z M 4.234375 -3.578125 C 4.234375 -2.515625 2.59375 -2.515625 2.265625 -2.515625 L 2.046875 -2.515625 C 2.484375 -4.15625 3.515625 -4.1875 3.609375 -4.1875 C 4 -4.1875 4.234375 -3.921875 4.234375 -3.578125 Z M 4.234375 -3.578125 "/>
</symbol>
<symbol overflow="visible" id="glyph2-14">
<path style="stroke:none;" d="M 2.796875 -1.421875 C 2.796875 -1.53125 2.71875 -1.53125 2.640625 -1.53125 C 2.59375 -1.53125 2.53125 -1.53125 2.5 -1.46875 L 2.4375 -1.21875 C 2.265625 -0.53125 2.078125 -0.109375 1.796875 -0.109375 C 1.53125 -0.109375 1.53125 -0.375 1.53125 -0.515625 C 1.53125 -0.59375 1.53125 -0.734375 1.59375 -0.984375 L 3.015625 -6.671875 C 3.03125 -6.703125 3.046875 -6.796875 3.046875 -6.796875 C 3.046875 -6.890625 2.984375 -6.921875 2.90625 -6.921875 C 2.875 -6.921875 2.78125 -6.90625 2.75 -6.890625 L 1.765625 -6.8125 C 1.640625 -6.8125 1.53125 -6.796875 1.53125 -6.609375 C 1.53125 -6.5 1.640625 -6.5 1.78125 -6.5 C 2.25 -6.5 2.265625 -6.4375 2.265625 -6.328125 C 2.265625 -6.296875 2.25 -6.15625 2.25 -6.15625 L 1 -1.171875 C 0.984375 -1.140625 0.9375 -0.9375 0.9375 -0.78125 C 0.9375 -0.265625 1.296875 0.109375 1.78125 0.109375 C 2.15625 0.109375 2.359375 -0.15625 2.484375 -0.40625 C 2.65625 -0.75 2.796875 -1.390625 2.796875 -1.421875 Z M 2.796875 -1.421875 "/>
</symbol>
<symbol overflow="visible" id="glyph2-15">
<path style="stroke:none;" d="M 3.546875 -1.421875 C 3.546875 -1.53125 3.46875 -1.53125 3.40625 -1.53125 C 3.28125 -1.53125 3.28125 -1.515625 3.203125 -1.328125 C 3.015625 -0.859375 2.625 -0.109375 2.046875 -0.109375 C 1.78125 -0.109375 1.78125 -0.359375 1.78125 -0.515625 C 1.78125 -0.59375 1.78125 -0.75 1.859375 -1.03125 L 2.59375 -3.984375 L 3.4375 -3.984375 C 3.609375 -3.984375 3.71875 -3.984375 3.71875 -4.171875 C 3.71875 -4.296875 3.625 -4.296875 3.46875 -4.296875 L 2.671875 -4.296875 L 3.046875 -5.765625 C 3.078125 -5.90625 3.078125 -5.9375 3.078125 -5.984375 C 3.078125 -6.1875 2.90625 -6.234375 2.8125 -6.234375 C 2.5625 -6.234375 2.46875 -6.03125 2.421875 -5.875 L 2.03125 -4.296875 L 1.1875 -4.296875 C 1.015625 -4.296875 0.90625 -4.296875 0.90625 -4.109375 C 0.90625 -3.984375 1 -3.984375 1.15625 -3.984375 L 1.953125 -3.984375 L 1.234375 -1.125 C 1.21875 -1.09375 1.1875 -0.921875 1.1875 -0.78125 C 1.1875 -0.296875 1.515625 0.109375 2.03125 0.109375 C 3.046875 0.109375 3.546875 -1.375 3.546875 -1.421875 Z M 3.546875 -1.421875 "/>
</symbol>
<symbol overflow="visible" id="glyph2-16">
<path style="stroke:none;" d="M 5.59375 -1.421875 C 5.59375 -1.53125 5.515625 -1.53125 5.4375 -1.53125 C 5.328125 -1.53125 5.3125 -1.515625 5.25 -1.296875 C 5.109375 -0.734375 4.921875 -0.109375 4.578125 -0.109375 C 4.328125 -0.109375 4.328125 -0.375 4.328125 -0.515625 C 4.328125 -0.59375 4.328125 -0.75 4.390625 -1.03125 L 5.109375 -3.890625 C 5.140625 -3.953125 5.140625 -4 5.140625 -4.03125 C 5.140625 -4.140625 5.0625 -4.296875 4.859375 -4.296875 C 4.5625 -4.296875 4.5 -4 4.46875 -3.921875 L 3.75 -1.015625 C 3.703125 -0.84375 3.703125 -0.8125 3.609375 -0.6875 C 3.421875 -0.40625 3.125 -0.109375 2.6875 -0.109375 C 2.25 -0.109375 2.15625 -0.546875 2.15625 -0.875 C 2.15625 -1.484375 2.484375 -2.375 2.734375 -3.0625 C 2.8125 -3.265625 2.859375 -3.40625 2.859375 -3.59375 C 2.859375 -4.09375 2.53125 -4.40625 2.109375 -4.40625 C 1.171875 -4.40625 0.828125 -2.9375 0.828125 -2.875 C 0.828125 -2.765625 0.921875 -2.765625 0.984375 -2.765625 C 1.109375 -2.765625 1.109375 -2.796875 1.15625 -2.9375 C 1.234375 -3.234375 1.5 -4.1875 2.078125 -4.1875 C 2.1875 -4.1875 2.296875 -4.15625 2.296875 -3.890625 C 2.296875 -3.65625 2.203125 -3.390625 2.0625 -3 C 1.796875 -2.296875 1.546875 -1.5625 1.546875 -1.046875 C 1.546875 -0.171875 2.125 0.109375 2.65625 0.109375 C 3.1875 0.109375 3.53125 -0.1875 3.765625 -0.484375 C 3.953125 0.046875 4.375 0.109375 4.5625 0.109375 C 4.9375 0.109375 5.140625 -0.140625 5.296875 -0.453125 C 5.46875 -0.828125 5.59375 -1.421875 5.59375 -1.421875 Z M 5.59375 -1.421875 "/>
</symbol>
<symbol overflow="visible" id="glyph3-0">
<path style="stroke:none;" d=""/>
</symbol>
<symbol overflow="visible" id="glyph3-1">
<path style="stroke:none;" d="M 6.28125 -0.296875 C 6.28125 -0.375 6.265625 -0.390625 6.15625 -0.5 L 4.171875 -2.5 L 6.15625 -4.484375 C 6.265625 -4.59375 6.28125 -4.609375 6.28125 -4.6875 C 6.28125 -4.8125 6.1875 -4.890625 6.078125 -4.890625 C 6 -4.890625 5.96875 -4.859375 5.875 -4.765625 L 3.875 -2.765625 L 1.875 -4.765625 C 1.765625 -4.875 1.75 -4.890625 1.671875 -4.890625 C 1.5625 -4.890625 1.46875 -4.8125 1.46875 -4.6875 C 1.46875 -4.609375 1.5 -4.578125 1.59375 -4.484375 L 3.578125 -2.5 L 1.59375 -0.515625 C 1.5 -0.40625 1.46875 -0.34375 1.46875 -0.296875 C 1.46875 -0.171875 1.5625 -0.09375 1.671875 -0.09375 C 1.75 -0.09375 1.765625 -0.109375 1.875 -0.21875 L 3.875 -2.21875 L 5.859375 -0.21875 C 5.96875 -0.125 6.015625 -0.09375 6.078125 -0.09375 C 6.203125 -0.09375 6.28125 -0.171875 6.28125 -0.296875 Z M 6.28125 -0.296875 "/>
</symbol>
<symbol overflow="visible" id="glyph4-0">
<path style="stroke:none;" d=""/>
</symbol>
<symbol overflow="visible" id="glyph4-1">
<path style="stroke:none;" d="M 4.421875 -7.28125 C 4.421875 -7.390625 4.34375 -7.484375 4.234375 -7.484375 C 4.15625 -7.484375 4.09375 -7.453125 4.0625 -7.390625 L 0.59375 2.109375 C 0.546875 2.25 0.546875 2.296875 0.546875 2.296875 C 0.546875 2.40625 0.640625 2.5 0.75 2.5 C 0.875 2.5 0.90625 2.421875 0.96875 2.25 L 4.375 -7.09375 C 4.421875 -7.234375 4.421875 -7.28125 4.421875 -7.28125 Z M 4.421875 -7.28125 "/>
</symbol>
</g>
<clipPath id="clip1">
  <path d="M 420 14 L 428.519531 14 L 428.519531 19 L 420 19 Z M 420 14 "/>
</clipPath>
</defs>
<g id="surface1">
<g style="fill:rgb(0%,0%,0%);fill-opacity:1;">
  <use xlink:href="#glyph0-1" x="3.321" y="6.919"/>
  <use xlink:href="#glyph0-2" x="11.236286" y="6.919"/>
  <use xlink:href="#glyph0-3" x="16.328171" y="6.919"/>
  <use xlink:href="#glyph0-4" x="20.529399" y="6.919"/>
  <use xlink:href="#glyph0-5" x="25.400114" y="6.919"/>
  <use xlink:href="#glyph0-6" x="29.108194" y="6.919"/>
  <use xlink:href="#glyph0-7" x="31.653638" y="6.919"/>
  <use xlink:href="#glyph0-8" x="36.524353" y="6.919"/>
  <use xlink:href="#glyph0-9" x="41.754718" y="6.919"/>
</g>
<g style="fill:rgb(0%,0%,0%);fill-opacity:1;">
  <use xlink:href="#glyph1-1" x="47.234" y="6.919"/>
</g>
<g style="fill:rgb(0%,0%,0%);fill-opacity:1;">
  <use xlink:href="#glyph1-2" x="54.98291" y="6.919"/>
  <use xlink:href="#glyph1-3" x="60.932575" y="6.919"/>
  <use xlink:href="#glyph1-4" x="64.75124" y="6.919"/>
  <use xlink:href="#glyph1-5" x="68.348734" y="6.919"/>
  <use xlink:href="#glyph1-6" x="70.7288" y="6.919"/>
  <use xlink:href="#glyph1-7" x="78.644085" y="6.919"/>
  <use xlink:href="#glyph1-4" x="83.432111" y="6.919"/>
  <use xlink:href="#glyph1-5" x="87.029606" y="6.919"/>
  <use xlink:href="#glyph1-8" x="89.409671" y="6.919"/>
  <use xlink:href="#glyph1-7" x="94.003426" y="6.919"/>
</g>
<g style="fill:rgb(0%,0%,0%);fill-opacity:1;">
  <use xlink:href="#glyph1-9" x="102.079109" y="6.919"/>
  <use xlink:href="#glyph1-7" x="107.226785" y="6.919"/>
</g>
<g style="fill:rgb(0%,0%,0%);fill-opacity:1;">
  <use xlink:href="#glyph1-7" x="115.312431" y="6.919"/>
  <use xlink:href="#glyph1-10" x="120.100456" y="6.919"/>
  <use xlink:href="#glyph1-4" x="122.480522" y="6.919"/>
  <use xlink:href="#glyph1-11" x="126.078016" y="6.919"/>
  <use xlink:href="#glyph1-12" x="131.225692" y="6.919"/>
  <use xlink:href="#glyph1-7" x="134.629912" y="6.919"/>
</g>
<g style="fill:rgb(0%,0%,0%);fill-opacity:1;">
  <use xlink:href="#glyph1-9" x="142.705596" y="6.919"/>
  <use xlink:href="#glyph1-13" x="147.853271" y="6.919"/>
</g>
<g style="fill:rgb(0%,0%,0%);fill-opacity:1;">
  <use xlink:href="#glyph1-11" x="155.579268" y="6.919"/>
</g>
<g style="fill:rgb(0%,0%,0%);fill-opacity:1;">
  <use xlink:href="#glyph1-6" x="160.71698" y="6.919"/>
</g>
<g style="fill:rgb(0%,0%,0%);fill-opacity:1;">
  <use xlink:href="#glyph1-14" x="171.929887" y="6.919"/>
</g>
<g style="fill:rgb(0%,0%,0%);fill-opacity:1;">
  <use xlink:href="#glyph1-12" x="176.798609" y="6.919"/>
  <use xlink:href="#glyph1-15" x="180.20283" y="6.919"/>
  <use xlink:href="#glyph1-9" x="184.631205" y="6.919"/>
  <use xlink:href="#glyph1-5" x="189.778881" y="6.919"/>
  <use xlink:href="#glyph1-16" x="192.158946" y="6.919"/>
</g>
<g style="fill:rgb(0%,0%,0%);fill-opacity:1;">
  <use xlink:href="#glyph1-17" x="200.437867" y="6.919"/>
</g>
<g style="fill:rgb(0%,0%,0%);fill-opacity:1;">
  <use xlink:href="#glyph1-7" x="205.575579" y="6.919"/>
  <use xlink:href="#glyph1-3" x="210.363605" y="6.919"/>
  <use xlink:href="#glyph1-13" x="214.18227" y="6.919"/>
  <use xlink:href="#glyph1-7" x="218.610645" y="6.919"/>
  <use xlink:href="#glyph1-9" x="223.398671" y="6.919"/>
  <use xlink:href="#glyph1-7" x="228.546346" y="6.919"/>
</g>
<g style="fill:rgb(0%,0%,0%);fill-opacity:1;">
  <use xlink:href="#glyph1-18" x="236.631992" y="6.919"/>
  <use xlink:href="#glyph1-16" x="241.779668" y="6.919"/>
</g>
<g style="fill:rgb(0%,0%,0%);fill-opacity:1;">
  <use xlink:href="#glyph1-19" x="250.048626" y="6.919"/>
  <use xlink:href="#glyph1-16" x="254.477001" y="6.919"/>
  <use xlink:href="#glyph1-6" x="259.458301" y="6.919"/>
  <use xlink:href="#glyph1-14" x="267.373587" y="6.919"/>
</g>
<g style="fill:rgb(0%,0%,0%);fill-opacity:1;">
  <use xlink:href="#glyph1-12" x="272.24231" y="6.919"/>
  <use xlink:href="#glyph1-5" x="275.64653" y="6.919"/>
  <use xlink:href="#glyph1-6" x="278.026595" y="6.919"/>
  <use xlink:href="#glyph1-13" x="285.941881" y="6.919"/>
  <use xlink:href="#glyph1-18" x="290.370257" y="6.919"/>
  <use xlink:href="#glyph1-4" x="295.517932" y="6.919"/>
  <use xlink:href="#glyph1-16" x="299.115427" y="6.919"/>
</g>
<g style="fill:rgb(0%,0%,0%);fill-opacity:1;">
  <use xlink:href="#glyph1-9" x="307.394348" y="6.919"/>
  <use xlink:href="#glyph1-7" x="312.542023" y="6.919"/>
</g>
<g style="fill:rgb(0%,0%,0%);fill-opacity:1;">
  <use xlink:href="#glyph1-3" x="320.617707" y="6.919"/>
  <use xlink:href="#glyph1-16" x="324.436371" y="6.919"/>
  <use xlink:href="#glyph1-6" x="329.417671" y="6.919"/>
  <use xlink:href="#glyph1-17" x="337.332957" y="6.919"/>
</g>
<g style="fill:rgb(0%,0%,0%);fill-opacity:1;">
  <use xlink:href="#glyph1-12" x="342.20168" y="6.919"/>
  <use xlink:href="#glyph1-7" x="345.6059" y="6.919"/>
</g>
<g style="fill:rgb(0%,0%,0%);fill-opacity:1;">
  <use xlink:href="#glyph1-9" x="353.691546" y="6.919"/>
  <use xlink:href="#glyph1-16" x="358.839222" y="6.919"/>
</g>
<g style="fill:rgb(0%,0%,0%);fill-opacity:1;">
  <use xlink:href="#glyph1-14" x="367.10818" y="6.919"/>
</g>
<g style="fill:rgb(0%,0%,0%);fill-opacity:1;">
  <use xlink:href="#glyph1-12" x="371.976902" y="6.919"/>
  <use xlink:href="#glyph1-15" x="375.381123" y="6.919"/>
  <use xlink:href="#glyph1-9" x="379.809498" y="6.919"/>
  <use xlink:href="#glyph1-5" x="384.957174" y="6.919"/>
  <use xlink:href="#glyph1-16" x="387.337239" y="6.919"/>
</g>
<g style="fill:rgb(0%,0%,0%);fill-opacity:1;">
  <use xlink:href="#glyph1-19" x="395.616159" y="6.919"/>
  <use xlink:href="#glyph1-7" x="400.044535" y="6.919"/>
  <use xlink:href="#glyph1-11" x="404.832561" y="6.919"/>
  <use xlink:href="#glyph1-3" x="409.980236" y="6.919"/>
  <use xlink:href="#glyph1-7" x="413.798901" y="6.919"/>
  <use xlink:href="#glyph1-9" x="418.586926" y="6.919"/>
  <use xlink:href="#glyph1-7" x="423.734602" y="6.919"/>
</g>
<g style="fill:rgb(0%,0%,0%);fill-opacity:1;">
  <use xlink:href="#glyph1-14" x="20.257" y="18.874"/>
</g>
<g style="fill:rgb(0%,0%,0%);fill-opacity:1;">
  <use xlink:href="#glyph1-13" x="25.683628" y="18.874"/>
  <use xlink:href="#glyph1-10" x="30.112004" y="18.874"/>
  <use xlink:href="#glyph1-16" x="32.492069" y="18.874"/>
</g>
<g style="fill:rgb(0%,0%,0%);fill-opacity:1;">
  <use xlink:href="#glyph1-20" x="40.85069" y="18.874"/>
  <use xlink:href="#glyph1-16" x="46.385911" y="18.874"/>
  <use xlink:href="#glyph1-10" x="51.367211" y="18.874"/>
</g>
<g style="fill:rgb(0%,0%,0%);fill-opacity:1;">
  <use xlink:href="#glyph1-13" x="57.124598" y="18.874"/>
</g>
<g style="fill:rgb(0%,0%,0%);fill-opacity:1;">
  <use xlink:href="#glyph1-18" x="64.930295" y="18.874"/>
</g>
<g style="fill:rgb(0%,0%,0%);fill-opacity:1;">
  <use xlink:href="#glyph1-16" x="70.068007" y="18.874"/>
</g>
<g style="fill:rgb(0%,0%,0%);fill-opacity:1;">
  <use xlink:href="#glyph1-9" x="78.426629" y="18.874"/>
  <use xlink:href="#glyph1-7" x="83.574304" y="18.874"/>
</g>
<g style="fill:rgb(0%,0%,0%);fill-opacity:1;">
  <use xlink:href="#glyph1-3" x="91.739651" y="18.874"/>
  <use xlink:href="#glyph1-16" x="95.558316" y="18.874"/>
  <use xlink:href="#glyph1-6" x="100.539616" y="18.874"/>
  <use xlink:href="#glyph1-17" x="108.454902" y="18.874"/>
</g>
<g style="fill:rgb(0%,0%,0%);fill-opacity:1;">
  <use xlink:href="#glyph1-12" x="113.333587" y="18.874"/>
</g>
<g style="fill:rgb(0%,0%,0%);fill-opacity:1;">
  <use xlink:href="#glyph1-7" x="116.727845" y="18.874"/>
</g>
<g style="fill:rgb(0%,0%,0%);fill-opacity:1;">
  <use xlink:href="#glyph1-9" x="124.893192" y="18.874"/>
  <use xlink:href="#glyph1-7" x="130.040867" y="18.874"/>
</g>
<g style="fill:rgb(0%,0%,0%);fill-opacity:1;">
  <use xlink:href="#glyph1-14" x="138.206214" y="18.874"/>
</g>
<g style="fill:rgb(0%,0%,0%);fill-opacity:1;">
  <use xlink:href="#glyph1-13" x="143.632842" y="18.874"/>
  <use xlink:href="#glyph1-3" x="148.061218" y="18.874"/>
  <use xlink:href="#glyph1-3" x="151.879882" y="18.874"/>
  <use xlink:href="#glyph1-16" x="155.698547" y="18.874"/>
  <use xlink:href="#glyph1-7" x="160.679847" y="18.874"/>
</g>
<g style="fill:rgb(0%,0%,0%);fill-opacity:1;">
  <use xlink:href="#glyph1-21" x="168.845194" y="18.874"/>
  <use xlink:href="#glyph1-11" x="173.992869" y="18.874"/>
  <use xlink:href="#glyph1-13" x="179.140545" y="18.874"/>
</g>
<g style="fill:rgb(0%,0%,0%);fill-opacity:1;">
  <use xlink:href="#glyph1-22" x="186.946242" y="18.874"/>
  <use xlink:href="#glyph1-7" x="189.990812" y="18.874"/>
  <use xlink:href="#glyph1-23" x="194.778838" y="18.874"/>
</g>
<g style="fill:rgb(0%,0%,0%);fill-opacity:1;">
  <use xlink:href="#glyph1-7" x="202.486902" y="18.874"/>
</g>
<g style="fill:rgb(0%,0%,0%);fill-opacity:1;">
  <use xlink:href="#glyph1-6" x="210.652249" y="18.874"/>
  <use xlink:href="#glyph1-13" x="218.567534" y="18.874"/>
  <use xlink:href="#glyph1-9" x="222.99591" y="18.874"/>
</g>
<g style="fill:rgb(0%,0%,0%);fill-opacity:1;">
  <use xlink:href="#glyph1-5" x="228.133623" y="18.874"/>
  <use xlink:href="#glyph1-24" x="230.513688" y="18.874"/>
  <use xlink:href="#glyph1-25" x="234.942064" y="18.874"/>
  <use xlink:href="#glyph1-16" x="239.730089" y="18.874"/>
  <use xlink:href="#glyph1-26" x="244.711389" y="18.874"/>
</g>
<g style="fill:rgb(0%,0%,0%);fill-opacity:1;">
  <use xlink:href="#glyph1-11" x="250.876246" y="18.874"/>
  <use xlink:href="#glyph1-3" x="256.023922" y="18.874"/>
  <use xlink:href="#glyph1-7" x="259.842586" y="18.874"/>
  <use xlink:href="#glyph1-18" x="264.630612" y="18.874"/>
  <use xlink:href="#glyph1-9" x="269.778287" y="18.874"/>
  <use xlink:href="#glyph1-16" x="274.925963" y="18.874"/>
</g>
<g style="fill:rgb(0%,0%,0%);fill-opacity:1;">
  <use xlink:href="#glyph1-7" x="283.284584" y="18.874"/>
</g>
<g style="fill:rgb(0%,0%,0%);fill-opacity:1;">
  <use xlink:href="#glyph1-3" x="291.449931" y="18.874"/>
  <use xlink:href="#glyph1-13" x="295.268595" y="18.874"/>
</g>
<g style="fill:rgb(0%,0%,0%);fill-opacity:1;">
  <use xlink:href="#glyph1-6" x="299.687009" y="18.874"/>
  <use xlink:href="#glyph1-13" x="307.602294" y="18.874"/>
  <use xlink:href="#glyph1-10" x="312.03067" y="18.874"/>
  <use xlink:href="#glyph1-27" x="314.410735" y="18.874"/>
  <use xlink:href="#glyph1-7" x="319.558411" y="18.874"/>
  <use xlink:href="#glyph1-18" x="324.346436" y="18.874"/>
  <use xlink:href="#glyph1-24" x="329.494111" y="18.874"/>
  <use xlink:href="#glyph1-7" x="333.922487" y="18.874"/>
</g>
<g style="fill:rgb(0%,0%,0%);fill-opacity:1;">
  <use xlink:href="#glyph1-9" x="342.087834" y="18.874"/>
  <use xlink:href="#glyph1-13" x="347.23551" y="18.874"/>
</g>
<g style="fill:rgb(0%,0%,0%);fill-opacity:1;">
  <use xlink:href="#glyph1-4" x="355.041207" y="18.874"/>
  <use xlink:href="#glyph1-12" x="358.638702" y="18.874"/>
  <use xlink:href="#glyph1-5" x="362.042922" y="18.874"/>
  <use xlink:href="#glyph1-28" x="364.422987" y="18.874"/>
  <use xlink:href="#glyph1-18" x="369.211013" y="18.874"/>
  <use xlink:href="#glyph1-29" x="374.358688" y="18.874"/>
  <use xlink:href="#glyph1-11" x="379.339988" y="18.874"/>
  <use xlink:href="#glyph1-10" x="384.487663" y="18.874"/>
  <use xlink:href="#glyph1-16" x="386.867729" y="18.874"/>
  <use xlink:href="#glyph1-3" x="391.849029" y="18.874"/>
</g>
<g style="fill:rgb(0%,0%,0%);fill-opacity:1;">
  <use xlink:href="#glyph1-14" x="399.045015" y="18.874"/>
  <use xlink:href="#glyph1-7" x="404.19269" y="18.874"/>
</g>
<g style="fill:rgb(0%,0%,0%);fill-opacity:1;">
  <use xlink:href="#glyph1-12" x="408.701763" y="18.874"/>
  <use xlink:href="#glyph1-7" x="412.105983" y="18.874"/>
</g>
<g clip-path="url(#clip1)" clip-rule="nonzero">
<g style="fill:rgb(0%,0%,0%);fill-opacity:1;">
  <use xlink:href="#glyph1-3" x="420.27133" y="18.874"/>
  <use xlink:href="#glyph1-13" x="424.089995" y="18.874"/>
</g>
</g>
<g style="fill:rgb(0%,0%,0%);fill-opacity:1;">
  <use xlink:href="#glyph1-16" x="20.257" y="30.829"/>
  <use xlink:href="#glyph1-17" x="25.2383" y="30.829"/>
  <use xlink:href="#glyph1-4" x="30.385975" y="30.829"/>
  <use xlink:href="#glyph1-13" x="33.98347" y="30.829"/>
  <use xlink:href="#glyph1-12" x="38.411846" y="30.829"/>
</g>
<g style="fill:rgb(0%,0%,0%);fill-opacity:1;">
  <use xlink:href="#glyph1-16" x="45.133612" y="30.829"/>
</g>
<g style="fill:rgb(0%,0%,0%);fill-opacity:1;">
  <use xlink:href="#glyph1-12" x="53.442421" y="30.829"/>
  <use xlink:href="#glyph1-13" x="56.846641" y="30.829"/>
  <use xlink:href="#glyph1-3" x="61.275017" y="30.829"/>
  <use xlink:href="#glyph1-11" x="65.093681" y="30.829"/>
  <use xlink:href="#glyph1-10" x="70.241357" y="30.829"/>
  <use xlink:href="#glyph1-4" x="72.621422" y="30.829"/>
  <use xlink:href="#glyph1-7" x="76.218917" y="30.829"/>
</g>
<g style="fill:rgb(0%,0%,0%);fill-opacity:1;">
  <use xlink:href="#glyph1-9" x="80.99698" y="30.829"/>
  <use xlink:href="#glyph1-16" x="86.144655" y="30.829"/>
</g>
<g style="fill:rgb(0%,0%,0%);fill-opacity:1;">
  <use xlink:href="#glyph1-6" x="94.453464" y="30.829"/>
  <use xlink:href="#glyph1-13" x="102.368749" y="30.829"/>
  <use xlink:href="#glyph1-9" x="106.797125" y="30.829"/>
  <use xlink:href="#glyph1-5" x="111.9448" y="30.829"/>
  <use xlink:href="#glyph1-7" x="114.324865" y="30.829"/>
  <use xlink:href="#glyph1-18" x="119.112891" y="30.829"/>
  <use xlink:href="#glyph1-4" x="124.260566" y="30.829"/>
  <use xlink:href="#glyph1-13" x="127.858061" y="30.829"/>
</g>
<g style="fill:rgb(0%,0%,0%);fill-opacity:1;">
  <use xlink:href="#glyph1-7" x="135.603983" y="30.829"/>
</g>
<g style="fill:rgb(0%,0%,0%);fill-opacity:1;">
  <use xlink:href="#glyph1-7" x="143.709554" y="30.829"/>
  <use xlink:href="#glyph1-10" x="148.49758" y="30.829"/>
  <use xlink:href="#glyph1-4" x="150.877645" y="30.829"/>
  <use xlink:href="#glyph1-11" x="154.47514" y="30.829"/>
  <use xlink:href="#glyph1-12" x="159.622815" y="30.829"/>
  <use xlink:href="#glyph1-7" x="163.027036" y="30.829"/>
</g>
<g style="fill:rgb(0%,0%,0%);fill-opacity:1;">
  <use xlink:href="#glyph1-9" x="171.132607" y="30.829"/>
  <use xlink:href="#glyph1-7" x="176.280282" y="30.829"/>
</g>
<g style="fill:rgb(0%,0%,0%);fill-opacity:1;">
  <use xlink:href="#glyph1-14" x="184.395816" y="30.829"/>
</g>
<g style="fill:rgb(0%,0%,0%);fill-opacity:1;">
  <use xlink:href="#glyph1-13" x="189.812482" y="30.829"/>
  <use xlink:href="#glyph1-3" x="194.240858" y="30.829"/>
  <use xlink:href="#glyph1-3" x="198.059522" y="30.829"/>
  <use xlink:href="#glyph1-16" x="201.878187" y="30.829"/>
  <use xlink:href="#glyph1-7" x="206.859487" y="30.829"/>
  <use xlink:href="#glyph1-30" x="211.647512" y="30.829"/>
</g>
<g style="fill:rgb(0%,0%,0%);fill-opacity:1;">
  <use xlink:href="#glyph0-10" x="3.321" y="42.784"/>
  <use xlink:href="#glyph0-2" x="10.322715" y="42.784"/>
  <use xlink:href="#glyph0-11" x="15.4146" y="42.784"/>
  <use xlink:href="#glyph0-12" x="21.004615" y="42.784"/>
  <use xlink:href="#glyph0-2" x="26.59463" y="42.784"/>
  <use xlink:href="#glyph0-5" x="31.686515" y="42.784"/>
</g>
<g style="fill:rgb(0%,0%,0%);fill-opacity:1;">
  <use xlink:href="#glyph1-1" x="35.395" y="42.784"/>
</g>
<g style="fill:rgb(0%,0%,0%);fill-opacity:1;">
  <use xlink:href="#glyph1-31" x="43.14391" y="42.784"/>
</g>
<g style="fill:rgb(0%,0%,0%);fill-opacity:1;">
  <use xlink:href="#glyph1-19" x="54.9207" y="42.784"/>
  <use xlink:href="#glyph1-16" x="59.349075" y="42.784"/>
  <use xlink:href="#glyph1-6" x="64.330375" y="42.784"/>
  <use xlink:href="#glyph1-14" x="72.245661" y="42.784"/>
</g>
<g style="fill:rgb(0%,0%,0%);fill-opacity:1;">
  <use xlink:href="#glyph1-12" x="77.114384" y="42.784"/>
  <use xlink:href="#glyph1-5" x="80.518604" y="42.784"/>
  <use xlink:href="#glyph1-6" x="82.898669" y="42.784"/>
  <use xlink:href="#glyph1-13" x="90.813955" y="42.784"/>
  <use xlink:href="#glyph1-18" x="95.242331" y="42.784"/>
  <use xlink:href="#glyph1-4" x="100.390006" y="42.784"/>
  <use xlink:href="#glyph1-16" x="103.987501" y="42.784"/>
</g>
<g style="fill:rgb(0%,0%,0%);fill-opacity:1;">
  <use xlink:href="#glyph1-9" x="113.422083" y="42.784"/>
</g>
<g style="fill:rgb(0%,0%,0%);fill-opacity:1;">
  <use xlink:href="#glyph1-7" x="118.559796" y="42.784"/>
</g>
<g style="fill:rgb(0%,0%,0%);fill-opacity:1;">
  <use xlink:href="#glyph1-3" x="127.801104" y="42.784"/>
  <use xlink:href="#glyph1-16" x="131.619768" y="42.784"/>
  <use xlink:href="#glyph1-6" x="136.601068" y="42.784"/>
  <use xlink:href="#glyph1-17" x="144.516354" y="42.784"/>
</g>
<g style="fill:rgb(0%,0%,0%);fill-opacity:1;">
  <use xlink:href="#glyph1-12" x="149.385077" y="42.784"/>
  <use xlink:href="#glyph1-7" x="152.789297" y="42.784"/>
</g>
<g style="fill:rgb(0%,0%,0%);fill-opacity:1;">
  <use xlink:href="#glyph1-9" x="162.020642" y="42.784"/>
  <use xlink:href="#glyph1-16" x="167.168318" y="42.784"/>
</g>
<g style="fill:rgb(0%,0%,0%);fill-opacity:1;">
  <use xlink:href="#glyph1-14" x="176.6029" y="42.784"/>
</g>
<g style="fill:rgb(0%,0%,0%);fill-opacity:1;">
  <use xlink:href="#glyph1-12" x="181.471623" y="42.784"/>
  <use xlink:href="#glyph1-15" x="184.875843" y="42.784"/>
  <use xlink:href="#glyph1-9" x="189.304219" y="42.784"/>
  <use xlink:href="#glyph1-5" x="194.451894" y="42.784"/>
  <use xlink:href="#glyph1-16" x="196.831959" y="42.784"/>
  <use xlink:href="#glyph1-26" x="201.813259" y="42.784"/>
</g>
<g style="fill:rgb(0%,0%,0%);fill-opacity:1;">
  <use xlink:href="#glyph1-16" x="209.303142" y="42.784"/>
</g>
<g style="fill:rgb(0%,0%,0%);fill-opacity:1;">
  <use xlink:href="#glyph1-19" x="218.737724" y="42.784"/>
  <use xlink:href="#glyph1-16" x="223.1661" y="42.784"/>
  <use xlink:href="#glyph1-6" x="228.1474" y="42.784"/>
  <use xlink:href="#glyph1-14" x="236.062685" y="42.784"/>
</g>
<g style="fill:rgb(0%,0%,0%);fill-opacity:1;">
  <use xlink:href="#glyph1-12" x="240.931408" y="42.784"/>
  <use xlink:href="#glyph1-5" x="244.335629" y="42.784"/>
  <use xlink:href="#glyph1-6" x="246.715694" y="42.784"/>
  <use xlink:href="#glyph1-13" x="254.630979" y="42.784"/>
  <use xlink:href="#glyph1-18" x="259.059355" y="42.784"/>
  <use xlink:href="#glyph1-4" x="264.20703" y="42.784"/>
  <use xlink:href="#glyph1-16" x="267.804525" y="42.784"/>
</g>
<g style="fill:rgb(0%,0%,0%);fill-opacity:1;">
  <use xlink:href="#glyph1-9" x="277.229145" y="42.784"/>
  <use xlink:href="#glyph1-7" x="282.37682" y="42.784"/>
</g>
<g style="fill:rgb(0%,0%,0%);fill-opacity:1;">
  <use xlink:href="#glyph1-3" x="291.608165" y="42.784"/>
  <use xlink:href="#glyph1-16" x="295.42683" y="42.784"/>
  <use xlink:href="#glyph1-6" x="300.40813" y="42.784"/>
  <use xlink:href="#glyph1-17" x="308.323416" y="42.784"/>
</g>
<g style="fill:rgb(0%,0%,0%);fill-opacity:1;">
  <use xlink:href="#glyph1-12" x="313.192138" y="42.784"/>
  <use xlink:href="#glyph1-7" x="316.596359" y="42.784"/>
</g>
<g style="fill:rgb(0%,0%,0%);fill-opacity:1;">
  <use xlink:href="#glyph1-9" x="325.837667" y="42.784"/>
  <use xlink:href="#glyph1-7" x="330.985342" y="42.784"/>
</g>
<g style="fill:rgb(0%,0%,0%);fill-opacity:1;">
  <use xlink:href="#glyph1-14" x="340.216687" y="42.784"/>
</g>
<g style="fill:rgb(0%,0%,0%);fill-opacity:1;">
  <use xlink:href="#glyph1-13" x="345.643315" y="42.784"/>
  <use xlink:href="#glyph1-3" x="350.071691" y="42.784"/>
  <use xlink:href="#glyph1-3" x="353.890356" y="42.784"/>
  <use xlink:href="#glyph1-16" x="357.70902" y="42.784"/>
  <use xlink:href="#glyph1-7" x="362.69032" y="42.784"/>
</g>
<g style="fill:rgb(0%,0%,0%);fill-opacity:1;">
  <use xlink:href="#glyph1-13" x="371.921665" y="42.784"/>
</g>
<g style="fill:rgb(0%,0%,0%);fill-opacity:1;">
  <use xlink:href="#glyph1-7" x="380.793361" y="42.784"/>
</g>
<g style="fill:rgb(0%,0%,0%);fill-opacity:1;">
  <use xlink:href="#glyph1-7" x="390.034668" y="42.784"/>
  <use xlink:href="#glyph1-10" x="394.822694" y="42.784"/>
  <use xlink:href="#glyph1-4" x="397.202759" y="42.784"/>
  <use xlink:href="#glyph1-11" x="400.800254" y="42.784"/>
  <use xlink:href="#glyph1-12" x="405.947929" y="42.784"/>
  <use xlink:href="#glyph1-7" x="409.35215" y="42.784"/>
</g>
<g style="fill:rgb(0%,0%,0%);fill-opacity:1;">
  <use xlink:href="#glyph1-9" x="418.583495" y="42.784"/>
  <use xlink:href="#glyph1-7" x="423.73117" y="42.784"/>
</g>
<g style="fill:rgb(0%,0%,0%);fill-opacity:1;">
  <use xlink:href="#glyph1-14" x="20.257" y="54.74"/>
</g>
<g style="fill:rgb(0%,0%,0%);fill-opacity:1;">
  <use xlink:href="#glyph1-13" x="25.683628" y="54.74"/>
  <use xlink:href="#glyph1-3" x="30.112004" y="54.74"/>
  <use xlink:href="#glyph1-3" x="33.930669" y="54.74"/>
  <use xlink:href="#glyph1-16" x="37.749333" y="54.74"/>
  <use xlink:href="#glyph1-7" x="42.730633" y="54.74"/>
  <use xlink:href="#glyph1-32" x="47.518659" y="54.74"/>
</g>
<g style="fill:rgb(0%,0%,0%);fill-opacity:1;">
  <use xlink:href="#glyph1-4" x="53.603815" y="54.74"/>
  <use xlink:href="#glyph1-16" x="57.20131" y="54.74"/>
</g>
<g style="fill:rgb(0%,0%,0%);fill-opacity:1;">
  <use xlink:href="#glyph1-9" x="62.461562" y="54.74"/>
  <use xlink:href="#glyph1-16" x="67.609238" y="54.74"/>
  <use xlink:href="#glyph1-3" x="72.590538" y="54.74"/>
</g>
<g style="fill:rgb(0%,0%,0%);fill-opacity:1;">
  <use xlink:href="#glyph1-16" x="79.726748" y="54.74"/>
  <use xlink:href="#glyph1-3" x="84.708048" y="54.74"/>
</g>
<g style="fill:rgb(0%,0%,0%);fill-opacity:1;">
  <use xlink:href="#glyph1-8" x="91.854221" y="54.74"/>
  <use xlink:href="#glyph1-7" x="96.447976" y="54.74"/>
</g>
<g style="fill:rgb(0%,0%,0%);fill-opacity:1;">
  <use xlink:href="#glyph1-10" x="101.226039" y="54.74"/>
  <use xlink:href="#glyph1-16" x="103.606104" y="54.74"/>
</g>
<g style="fill:rgb(0%,0%,0%);fill-opacity:1;">
  <use xlink:href="#glyph1-12" x="108.318414" y="54.74"/>
  <use xlink:href="#glyph1-13" x="111.722634" y="54.74"/>
  <use xlink:href="#glyph1-3" x="116.15101" y="54.74"/>
</g>
<g style="fill:rgb(0%,0%,0%);fill-opacity:1;">
  <use xlink:href="#glyph1-13" x="123.28722" y="54.74"/>
  <use xlink:href="#glyph1-6" x="127.715596" y="54.74"/>
</g>
<g style="fill:rgb(0%,0%,0%);fill-opacity:1;">
  <use xlink:href="#glyph1-6" x="138.948428" y="54.74"/>
  <use xlink:href="#glyph1-13" x="146.863713" y="54.74"/>
  <use xlink:href="#glyph1-4" x="151.292089" y="54.74"/>
  <use xlink:href="#glyph1-12" x="154.889584" y="54.74"/>
  <use xlink:href="#glyph1-16" x="158.293804" y="54.74"/>
  <use xlink:href="#glyph1-3" x="163.275104" y="54.74"/>
</g>
<g style="fill:rgb(0%,0%,0%);fill-opacity:1;">
  <use xlink:href="#glyph1-13" x="170.411315" y="54.74"/>
</g>
<g style="fill:rgb(0%,0%,0%);fill-opacity:1;">
  <use xlink:href="#glyph1-6" x="178.167199" y="54.74"/>
  <use xlink:href="#glyph1-7" x="186.082484" y="54.74"/>
  <use xlink:href="#glyph1-5" x="190.87051" y="54.74"/>
  <use xlink:href="#glyph1-16" x="193.250575" y="54.74"/>
</g>
<g style="fill:rgb(0%,0%,0%);fill-opacity:1;">
  <use xlink:href="#glyph1-12" x="197.952922" y="54.74"/>
  <use xlink:href="#glyph1-13" x="201.357143" y="54.74"/>
  <use xlink:href="#glyph1-3" x="205.785519" y="54.74"/>
</g>
<g style="fill:rgb(0%,0%,0%);fill-opacity:1;">
  <use xlink:href="#glyph1-21" x="212.921729" y="54.74"/>
  <use xlink:href="#glyph1-11" x="218.069404" y="54.74"/>
  <use xlink:href="#glyph1-13" x="223.21708" y="54.74"/>
</g>
<g style="fill:rgb(0%,0%,0%);fill-opacity:1;">
  <use xlink:href="#glyph1-23" x="230.963001" y="54.74"/>
  <use xlink:href="#glyph1-13" x="235.293743" y="54.74"/>
  <use xlink:href="#glyph1-12" x="239.722119" y="54.74"/>
  <use xlink:href="#glyph1-16" x="243.12634" y="54.74"/>
</g>
<g style="fill:rgb(0%,0%,0%);fill-opacity:1;">
  <use xlink:href="#glyph0-13" x="3.321" y="66.695"/>
  <use xlink:href="#glyph0-3" x="10.626575" y="66.695"/>
  <use xlink:href="#glyph0-3" x="14.827803" y="66.695"/>
  <use xlink:href="#glyph0-2" x="19.029031" y="66.695"/>
  <use xlink:href="#glyph0-14" x="24.120916" y="66.695"/>
  <use xlink:href="#glyph0-12" x="29.600346" y="66.695"/>
  <use xlink:href="#glyph0-5" x="35.190361" y="66.695"/>
  <use xlink:href="#glyph0-15" x="38.898441" y="66.695"/>
</g>
<g style="fill:rgb(0%,0%,0%);fill-opacity:1;">
  <use xlink:href="#glyph1-1" x="44.128" y="66.695"/>
</g>
<g style="fill:rgb(0%,0%,0%);fill-opacity:1;">
  <use xlink:href="#glyph1-7" x="51.87691" y="66.695"/>
</g>
<g style="fill:rgb(0%,0%,0%);fill-opacity:1;">
  <use xlink:href="#glyph1-7" x="59.982482" y="66.695"/>
  <use xlink:href="#glyph1-10" x="64.770507" y="66.695"/>
  <use xlink:href="#glyph1-4" x="67.150572" y="66.695"/>
  <use xlink:href="#glyph1-11" x="70.748067" y="66.695"/>
  <use xlink:href="#glyph1-12" x="75.895743" y="66.695"/>
  <use xlink:href="#glyph1-7" x="79.299963" y="66.695"/>
</g>
<g style="fill:rgb(0%,0%,0%);fill-opacity:1;">
  <use xlink:href="#glyph1-13" x="87.405534" y="66.695"/>
  <use xlink:href="#glyph1-3" x="91.83391" y="66.695"/>
  <use xlink:href="#glyph1-4" x="95.652575" y="66.695"/>
  <use xlink:href="#glyph1-5" x="99.25007" y="66.695"/>
  <use xlink:href="#glyph1-6" x="101.630135" y="66.695"/>
  <use xlink:href="#glyph1-7" x="109.54542" y="66.695"/>
  <use xlink:href="#glyph1-9" x="114.333446" y="66.695"/>
  <use xlink:href="#glyph1-7" x="119.481121" y="66.695"/>
</g>
<g style="fill:rgb(0%,0%,0%);fill-opacity:1;">
  <use xlink:href="#glyph1-9" x="127.596655" y="66.695"/>
  <use xlink:href="#glyph1-16" x="132.744331" y="66.695"/>
</g>
<g style="fill:rgb(0%,0%,0%);fill-opacity:1;">
  <use xlink:href="#glyph1-14" x="141.043177" y="66.695"/>
</g>
<g style="fill:rgb(0%,0%,0%);fill-opacity:1;">
  <use xlink:href="#glyph1-12" x="145.911899" y="66.695"/>
  <use xlink:href="#glyph1-15" x="149.31612" y="66.695"/>
  <use xlink:href="#glyph1-9" x="153.744495" y="66.695"/>
  <use xlink:href="#glyph1-5" x="158.892171" y="66.695"/>
  <use xlink:href="#glyph1-16" x="161.272236" y="66.695"/>
</g>
<g style="fill:rgb(0%,0%,0%);fill-opacity:1;">
  <use xlink:href="#glyph1-13" x="169.571082" y="66.695"/>
  <use xlink:href="#glyph1-6" x="173.999457" y="66.695"/>
</g>
<g style="fill:rgb(0%,0%,0%);fill-opacity:1;">
  <use xlink:href="#glyph1-6" x="185.242251" y="66.695"/>
  <use xlink:href="#glyph1-13" x="193.157537" y="66.695"/>
</g>
<g style="fill:rgb(0%,0%,0%);fill-opacity:1;">
  <use xlink:href="#glyph1-4" x="197.57595" y="66.695"/>
  <use xlink:href="#glyph1-12" x="201.173445" y="66.695"/>
  <use xlink:href="#glyph1-16" x="204.577666" y="66.695"/>
  <use xlink:href="#glyph1-3" x="209.558966" y="66.695"/>
</g>
<g style="fill:rgb(0%,0%,0%);fill-opacity:1;">
  <use xlink:href="#glyph1-31" x="20.257" y="90.605"/>
  <use xlink:href="#glyph1-17" x="27.59047" y="90.605"/>
  <use xlink:href="#glyph1-4" x="32.738145" y="90.605"/>
  <use xlink:href="#glyph1-13" x="36.33564" y="90.605"/>
  <use xlink:href="#glyph1-18" x="40.764016" y="90.605"/>
  <use xlink:href="#glyph1-27" x="45.911691" y="90.605"/>
  <use xlink:href="#glyph1-7" x="51.059367" y="90.605"/>
</g>
<g style="fill:rgb(0%,0%,0%);fill-opacity:1;">
  <use xlink:href="#glyph1-16" x="59.164938" y="90.605"/>
  <use xlink:href="#glyph1-3" x="64.146238" y="90.605"/>
</g>
<g style="fill:rgb(0%,0%,0%);fill-opacity:1;">
  <use xlink:href="#glyph1-8" x="71.292411" y="90.605"/>
  <use xlink:href="#glyph1-7" x="75.886166" y="90.605"/>
</g>
<g style="fill:rgb(0%,0%,0%);fill-opacity:1;">
  <use xlink:href="#glyph1-10" x="80.664229" y="90.605"/>
  <use xlink:href="#glyph1-16" x="83.044294" y="90.605"/>
</g>
<g style="fill:rgb(0%,0%,0%);fill-opacity:1;">
  <use xlink:href="#glyph1-12" x="87.756604" y="90.605"/>
  <use xlink:href="#glyph1-13" x="91.160824" y="90.605"/>
  <use xlink:href="#glyph1-3" x="95.5892" y="90.605"/>
</g>
<g style="fill:rgb(0%,0%,0%);fill-opacity:1;">
  <use xlink:href="#glyph1-9" x="102.72541" y="90.605"/>
  <use xlink:href="#glyph1-13" x="107.873086" y="90.605"/>
</g>
<g style="fill:rgb(0%,0%,0%);fill-opacity:1;">
  <use xlink:href="#glyph2-1" x="115.622" y="90.605"/>
</g>
<g style="fill:rgb(0%,0%,0%);fill-opacity:1;">
  <use xlink:href="#glyph2-2" x="119.696703" y="90.605"/>
  <use xlink:href="#glyph2-3" x="124.788588" y="90.605"/>
  <use xlink:href="#glyph2-4" x="132.936003" y="90.605"/>
  <use xlink:href="#glyph2-5" x="138.027887" y="90.605"/>
  <use xlink:href="#glyph2-6" x="142.229116" y="90.605"/>
  <use xlink:href="#glyph2-7" x="149.635313" y="90.605"/>
  <use xlink:href="#glyph2-2" x="153.70902" y="90.605"/>
  <use xlink:href="#glyph2-3" x="158.800905" y="90.605"/>
  <use xlink:href="#glyph2-8" x="166.948319" y="90.605"/>
  <use xlink:href="#glyph2-5" x="171.531115" y="90.605"/>
</g>
<g style="fill:rgb(0%,0%,0%);fill-opacity:1;">
  <use xlink:href="#glyph2-9" x="175.224251" y="90.605"/>
  <use xlink:href="#glyph2-6" x="180.316136" y="90.605"/>
  <use xlink:href="#glyph2-4" x="187.722332" y="90.605"/>
  <use xlink:href="#glyph2-5" x="192.814217" y="90.605"/>
</g>
<g style="fill:rgb(0%,0%,0%);fill-opacity:1;">
  <use xlink:href="#glyph2-10" x="196.497391" y="90.605"/>
</g>
<g style="fill:rgb(0%,0%,0%);fill-opacity:1;">
  <use xlink:href="#glyph2-11" x="200.572094" y="90.605"/>
  <use xlink:href="#glyph2-12" x="205.663979" y="90.605"/>
  <use xlink:href="#glyph2-2" x="208.719508" y="90.605"/>
</g>
<g style="fill:rgb(0%,0%,0%);fill-opacity:1;">
  <use xlink:href="#glyph1-26" x="213.814" y="90.605"/>
</g>
<g style="fill:rgb(0%,0%,0%);fill-opacity:1;">
  <use xlink:href="#glyph2-1" x="219.903" y="90.605"/>
</g>
<g style="fill:rgb(0%,0%,0%);fill-opacity:1;">
  <use xlink:href="#glyph2-2" x="223.977703" y="90.605"/>
  <use xlink:href="#glyph2-3" x="229.069588" y="90.605"/>
  <use xlink:href="#glyph2-4" x="237.217003" y="90.605"/>
  <use xlink:href="#glyph2-5" x="242.308887" y="90.605"/>
  <use xlink:href="#glyph2-6" x="246.510116" y="90.605"/>
  <use xlink:href="#glyph2-7" x="253.916313" y="90.605"/>
  <use xlink:href="#glyph2-2" x="257.99002" y="90.605"/>
  <use xlink:href="#glyph2-3" x="263.081905" y="90.605"/>
  <use xlink:href="#glyph2-8" x="271.229319" y="90.605"/>
  <use xlink:href="#glyph2-5" x="275.812115" y="90.605"/>
</g>
<g style="fill:rgb(0%,0%,0%);fill-opacity:1;">
  <use xlink:href="#glyph2-9" x="279.505251" y="90.605"/>
  <use xlink:href="#glyph2-6" x="284.597136" y="90.605"/>
  <use xlink:href="#glyph2-4" x="292.003332" y="90.605"/>
</g>
<g style="fill:rgb(0%,0%,0%);fill-opacity:1;">
  <use xlink:href="#glyph2-13" x="296.577162" y="90.605"/>
  <use xlink:href="#glyph2-7" x="301.159958" y="90.605"/>
  <use xlink:href="#glyph2-7" x="305.233665" y="90.605"/>
  <use xlink:href="#glyph2-7" x="309.307372" y="90.605"/>
  <use xlink:href="#glyph2-2" x="313.38108" y="90.605"/>
</g>
<g style="fill:rgb(0%,0%,0%);fill-opacity:1;">
  <use xlink:href="#glyph2-9" x="317.964872" y="90.605"/>
</g>
<g style="fill:rgb(0%,0%,0%);fill-opacity:1;">
  <use xlink:href="#glyph1-13" x="326.381" y="90.605"/>
</g>
<g style="fill:rgb(0%,0%,0%);fill-opacity:1;">
  <use xlink:href="#glyph2-9" x="334.13" y="90.605"/>
  <use xlink:href="#glyph2-14" x="339.221885" y="90.605"/>
  <use xlink:href="#glyph2-15" x="341.767329" y="90.605"/>
  <use xlink:href="#glyph2-16" x="345.076905" y="90.605"/>
  <use xlink:href="#glyph2-5" x="350.423832" y="90.605"/>
</g>
<g style="fill:rgb(0%,0%,0%);fill-opacity:1;">
  <use xlink:href="#glyph2-9" x="354.116968" y="90.605"/>
  <use xlink:href="#glyph2-6" x="359.208853" y="90.605"/>
  <use xlink:href="#glyph2-4" x="366.61505" y="90.605"/>
</g>
<g style="fill:rgb(0%,0%,0%);fill-opacity:1;">
  <use xlink:href="#glyph2-13" x="371.198842" y="90.605"/>
  <use xlink:href="#glyph2-7" x="375.781638" y="90.605"/>
  <use xlink:href="#glyph2-7" x="379.855345" y="90.605"/>
  <use xlink:href="#glyph2-2" x="383.929052" y="90.605"/>
</g>
<g style="fill:rgb(0%,0%,0%);fill-opacity:1;">
  <use xlink:href="#glyph2-9" x="388.512845" y="90.605"/>
</g>
<g style="fill:rgb(0%,0%,0%);fill-opacity:1;">
  <use xlink:href="#glyph1-33" x="20.257" y="102.56"/>
  <use xlink:href="#glyph1-7" x="26.622105" y="102.56"/>
  <use xlink:href="#glyph1-10" x="31.410131" y="102.56"/>
  <use xlink:href="#glyph1-19" x="33.790196" y="102.56"/>
  <use xlink:href="#glyph1-11" x="38.218572" y="102.56"/>
  <use xlink:href="#glyph1-10" x="43.366247" y="102.56"/>
  <use xlink:href="#glyph1-13" x="45.746312" y="102.56"/>
</g>
<g style="fill:rgb(0%,0%,0%);fill-opacity:1;">
  <use xlink:href="#glyph2-9" x="53.494" y="102.56"/>
  <use xlink:href="#glyph2-14" x="58.585885" y="102.56"/>
  <use xlink:href="#glyph2-15" x="61.131329" y="102.56"/>
  <use xlink:href="#glyph2-16" x="64.440905" y="102.56"/>
  <use xlink:href="#glyph2-5" x="69.787832" y="102.56"/>
</g>
<g style="fill:rgb(0%,0%,0%);fill-opacity:1;">
  <use xlink:href="#glyph2-9" x="73.480968" y="102.56"/>
  <use xlink:href="#glyph2-6" x="78.572853" y="102.56"/>
  <use xlink:href="#glyph2-4" x="85.97905" y="102.56"/>
  <use xlink:href="#glyph2-5" x="91.070935" y="102.56"/>
</g>
<g style="fill:rgb(0%,0%,0%);fill-opacity:1;">
  <use xlink:href="#glyph2-10" x="94.764071" y="102.56"/>
</g>
<g style="fill:rgb(0%,0%,0%);fill-opacity:1;">
  <use xlink:href="#glyph2-11" x="98.838774" y="102.56"/>
  <use xlink:href="#glyph2-12" x="103.930659" y="102.56"/>
  <use xlink:href="#glyph2-2" x="106.986188" y="102.56"/>
</g>
<g style="fill:rgb(0%,0%,0%);fill-opacity:1;">
  <use xlink:href="#glyph1-19" x="115.395" y="102.56"/>
  <use xlink:href="#glyph1-16" x="119.823376" y="102.56"/>
  <use xlink:href="#glyph1-6" x="124.804676" y="102.56"/>
  <use xlink:href="#glyph1-16" x="132.719961" y="102.56"/>
</g>
<g style="fill:rgb(0%,0%,0%);fill-opacity:1;">
  <use xlink:href="#glyph2-1" x="141.021" y="102.56"/>
</g>
<g style="fill:rgb(0%,0%,0%);fill-opacity:1;">
  <use xlink:href="#glyph2-2" x="145.095703" y="102.56"/>
  <use xlink:href="#glyph2-3" x="150.187588" y="102.56"/>
  <use xlink:href="#glyph2-4" x="158.335003" y="102.56"/>
  <use xlink:href="#glyph2-5" x="163.426887" y="102.56"/>
  <use xlink:href="#glyph2-6" x="167.628116" y="102.56"/>
  <use xlink:href="#glyph2-7" x="175.034313" y="102.56"/>
  <use xlink:href="#glyph2-2" x="179.10802" y="102.56"/>
  <use xlink:href="#glyph2-3" x="184.199905" y="102.56"/>
  <use xlink:href="#glyph2-8" x="192.347319" y="102.56"/>
  <use xlink:href="#glyph2-5" x="196.930115" y="102.56"/>
</g>
<g style="fill:rgb(0%,0%,0%);fill-opacity:1;">
  <use xlink:href="#glyph2-9" x="200.623251" y="102.56"/>
  <use xlink:href="#glyph2-6" x="205.715136" y="102.56"/>
  <use xlink:href="#glyph2-4" x="213.121332" y="102.56"/>
  <use xlink:href="#glyph2-5" x="218.213217" y="102.56"/>
</g>
<g style="fill:rgb(0%,0%,0%);fill-opacity:1;">
  <use xlink:href="#glyph2-10" x="221.896391" y="102.56"/>
</g>
<g style="fill:rgb(0%,0%,0%);fill-opacity:1;">
  <use xlink:href="#glyph2-11" x="225.971094" y="102.56"/>
  <use xlink:href="#glyph2-12" x="231.062979" y="102.56"/>
  <use xlink:href="#glyph2-2" x="234.118508" y="102.56"/>
</g>
<g style="fill:rgb(0%,0%,0%);fill-opacity:1;">
  <use xlink:href="#glyph3-1" x="241.428" y="102.56"/>
</g>
<g style="fill:rgb(0%,0%,0%);fill-opacity:1;">
  <use xlink:href="#glyph2-9" x="251.39" y="102.56"/>
  <use xlink:href="#glyph2-14" x="256.481885" y="102.56"/>
  <use xlink:href="#glyph2-15" x="259.027329" y="102.56"/>
  <use xlink:href="#glyph2-16" x="262.336905" y="102.56"/>
  <use xlink:href="#glyph2-5" x="267.683832" y="102.56"/>
</g>
<g style="fill:rgb(0%,0%,0%);fill-opacity:1;">
  <use xlink:href="#glyph2-9" x="271.376968" y="102.56"/>
  <use xlink:href="#glyph2-6" x="276.468853" y="102.56"/>
  <use xlink:href="#glyph2-4" x="283.87505" y="102.56"/>
</g>
<g style="fill:rgb(0%,0%,0%);fill-opacity:1;">
  <use xlink:href="#glyph2-13" x="288.458842" y="102.56"/>
  <use xlink:href="#glyph2-7" x="293.041638" y="102.56"/>
  <use xlink:href="#glyph2-7" x="297.115345" y="102.56"/>
  <use xlink:href="#glyph2-2" x="301.189052" y="102.56"/>
</g>
<g style="fill:rgb(0%,0%,0%);fill-opacity:1;">
  <use xlink:href="#glyph2-9" x="305.772845" y="102.56"/>
</g>
<g style="fill:rgb(0%,0%,0%);fill-opacity:1;">
  <use xlink:href="#glyph4-1" x="310.861" y="102.56"/>
</g>
<g style="fill:rgb(0%,0%,0%);fill-opacity:1;">
  <use xlink:href="#glyph2-1" x="315.843" y="102.56"/>
</g>
<g style="fill:rgb(0%,0%,0%);fill-opacity:1;">
  <use xlink:href="#glyph2-2" x="319.917703" y="102.56"/>
  <use xlink:href="#glyph2-3" x="325.009588" y="102.56"/>
  <use xlink:href="#glyph2-4" x="333.157003" y="102.56"/>
  <use xlink:href="#glyph2-5" x="338.248887" y="102.56"/>
  <use xlink:href="#glyph2-6" x="342.450116" y="102.56"/>
  <use xlink:href="#glyph2-7" x="349.856313" y="102.56"/>
  <use xlink:href="#glyph2-2" x="353.93002" y="102.56"/>
  <use xlink:href="#glyph2-3" x="359.021905" y="102.56"/>
  <use xlink:href="#glyph2-8" x="367.169319" y="102.56"/>
  <use xlink:href="#glyph2-5" x="371.752115" y="102.56"/>
</g>
<g style="fill:rgb(0%,0%,0%);fill-opacity:1;">
  <use xlink:href="#glyph2-9" x="375.445251" y="102.56"/>
  <use xlink:href="#glyph2-6" x="380.537136" y="102.56"/>
  <use xlink:href="#glyph2-4" x="387.943332" y="102.56"/>
</g>
<g style="fill:rgb(0%,0%,0%);fill-opacity:1;">
  <use xlink:href="#glyph2-13" x="392.517162" y="102.56"/>
  <use xlink:href="#glyph2-7" x="397.099958" y="102.56"/>
  <use xlink:href="#glyph2-7" x="401.173665" y="102.56"/>
  <use xlink:href="#glyph2-2" x="405.247372" y="102.56"/>
</g>
<g style="fill:rgb(0%,0%,0%);fill-opacity:1;">
  <use xlink:href="#glyph2-9" x="409.831165" y="102.56"/>
</g>
<g style="fill:rgb(0%,0%,0%);fill-opacity:1;">
  <use xlink:href="#glyph1-34" x="20.257" y="114.515"/>
  <use xlink:href="#glyph1-14" x="26.899065" y="114.515"/>
</g>
<g style="fill:rgb(0%,0%,0%);fill-opacity:1;">
  <use xlink:href="#glyph1-12" x="31.767788" y="114.515"/>
  <use xlink:href="#glyph1-13" x="35.172008" y="114.515"/>
  <use xlink:href="#glyph1-3" x="39.600384" y="114.515"/>
  <use xlink:href="#glyph1-13" x="43.419049" y="114.515"/>
  <use xlink:href="#glyph1-18" x="47.847424" y="114.515"/>
  <use xlink:href="#glyph1-4" x="52.9951" y="114.515"/>
  <use xlink:href="#glyph1-13" x="56.592595" y="114.515"/>
</g>
<g style="fill:rgb(0%,0%,0%);fill-opacity:1;">
  <use xlink:href="#glyph1-7" x="64.338516" y="114.515"/>
</g>
<g style="fill:rgb(0%,0%,0%);fill-opacity:1;">
  <use xlink:href="#glyph1-13" x="72.45405" y="114.515"/>
  <use xlink:href="#glyph1-3" x="76.882426" y="114.515"/>
  <use xlink:href="#glyph1-4" x="80.70109" y="114.515"/>
  <use xlink:href="#glyph1-5" x="84.298585" y="114.515"/>
  <use xlink:href="#glyph1-6" x="86.67865" y="114.515"/>
  <use xlink:href="#glyph1-7" x="94.593936" y="114.515"/>
  <use xlink:href="#glyph1-4" x="99.381962" y="114.515"/>
  <use xlink:href="#glyph1-5" x="102.979457" y="114.515"/>
  <use xlink:href="#glyph1-8" x="105.359522" y="114.515"/>
  <use xlink:href="#glyph1-7" x="109.953277" y="114.515"/>
</g>
<g style="fill:rgb(0%,0%,0%);fill-opacity:1;">
  <use xlink:href="#glyph2-9" x="118.057" y="114.515"/>
  <use xlink:href="#glyph2-14" x="123.148885" y="114.515"/>
  <use xlink:href="#glyph2-15" x="125.694329" y="114.515"/>
  <use xlink:href="#glyph2-16" x="129.003905" y="114.515"/>
  <use xlink:href="#glyph2-5" x="134.350832" y="114.515"/>
</g>
<g style="fill:rgb(0%,0%,0%);fill-opacity:1;">
  <use xlink:href="#glyph2-9" x="138.043968" y="114.515"/>
  <use xlink:href="#glyph2-6" x="143.135853" y="114.515"/>
  <use xlink:href="#glyph2-4" x="150.54205" y="114.515"/>
  <use xlink:href="#glyph2-5" x="155.633935" y="114.515"/>
</g>
<g style="fill:rgb(0%,0%,0%);fill-opacity:1;">
  <use xlink:href="#glyph2-10" x="159.327071" y="114.515"/>
</g>
<g style="fill:rgb(0%,0%,0%);fill-opacity:1;">
  <use xlink:href="#glyph2-11" x="163.401774" y="114.515"/>
  <use xlink:href="#glyph2-12" x="168.493659" y="114.515"/>
  <use xlink:href="#glyph2-2" x="171.549188" y="114.515"/>
</g>
</g>
</svg>
